#N canvas 254 257 602 391 10;
#X floatatom 200 147 0 0 0 0 - - -;
#X obj 200 180 pack f f;
#X floatatom 251 151 5 0 0 0 - - -, f 5;
#X obj 200 131 notein 1;
#X obj 201 206 route 0 1 2 3 4 5 6 7 8 9;
#X connect 0 0 1 0;
#X connect 1 0 4 0;
#X connect 2 0 1 1;
#X connect 3 0 0 0;
#X connect 3 1 2 0;
