#N canvas 283 153 1244 729 10;
#X obj 103 -69 cnv 15 130 50 empty empty empty 20 12 0 14 -233017 -66577
0;
#X obj 241 -69 cnv 15 90 50 empty empty empty 20 12 0 14 -233017 -66577
0;
#X obj 161 -5 cnv 15 170 25 empty empty empty 20 12 0 14 -233017 -66577
0;
#X floatatom 394 -250 0 0 0 0 - - -;
#X obj 384 -274 ctlin 98 1;
#X floatatom 559 -257 0 0 0 0 - - -;
#X obj 559 -274 ctlin 99 1;
#X floatatom 480 -253 0 0 0 0 - - -;
#X obj 474 -274 ctlin 6 1;
#X text 473 -289 valeur;
#X text 382 -289 controleur;
#X obj 384 -224 pack f f;
#X text 558 -288 ??;
#X floatatom 108 -64 5 0 0 0 - - -;
#X floatatom 149 -64 5 0 0 0 - - -;
#X floatatom 190 -64 5 0 0 0 - - -;
#X floatatom 190 -40 5 0 0 0 - - -;
#X floatatom 244 -64 5 0 0 0 - - -;
#X floatatom 286 -64 5 0 0 0 - - -;
#X floatatom 244 -40 5 0 0 0 - - -;
#X floatatom 287 -40 5 0 0 0 - - -;
#X obj 108 -108 route 2 6 5 4 8 7 1 0 100 101;
#X floatatom 245 -1 5 0 0 0 - - -;
#X floatatom 288 -1 5 0 0 0 - - -;
#X obj 448 27 cnv 15 130 50 empty empty empty 20 12 0 14 -233017 -66577
0;
#X obj 586 27 cnv 15 90 50 empty empty empty 20 12 0 14 -233017 -66577
0;
#X obj 506 91 cnv 15 170 25 empty empty empty 20 12 0 14 -233017 -66577
0;
#X floatatom 453 32 5 0 0 0 - - -;
#X floatatom 494 32 5 0 0 0 - - -;
#X floatatom 535 32 5 0 0 0 - - -;
#X floatatom 535 56 5 0 0 0 - - -;
#X floatatom 589 32 5 0 0 0 - - -;
#X floatatom 631 32 5 0 0 0 - - -;
#X floatatom 589 56 5 0 0 0 - - -;
#X floatatom 632 56 5 0 0 0 - - -;
#X floatatom 590 95 5 0 0 0 - - -;
#X floatatom 633 95 5 0 0 0 - - -;
#X obj 453 -12 route 12 16 15 14 18 17 11 10 110 111;
#X connect 4 0 3 0;
#X connect 4 0 11 0;
#X connect 6 0 5 0;
#X connect 8 0 7 0;
#X connect 8 0 11 1;
#X connect 11 0 21 0;
#X connect 11 0 37 0;
#X connect 21 0 13 0;
#X connect 21 1 14 0;
#X connect 21 2 15 0;
#X connect 21 3 16 0;
#X connect 21 4 17 0;
#X connect 21 5 18 0;
#X connect 21 6 19 0;
#X connect 21 7 20 0;
#X connect 21 8 22 0;
#X connect 21 9 23 0;
#X connect 37 0 27 0;
#X connect 37 1 28 0;
#X connect 37 2 29 0;
#X connect 37 3 30 0;
#X connect 37 4 31 0;
#X connect 37 5 32 0;
#X connect 37 6 33 0;
#X connect 37 7 34 0;
#X connect 37 8 35 0;
#X connect 37 9 36 0;
