#N canvas 326 371 1090 430 10;
#X obj -1202 -78 gemwin;
#X obj -1199 -211 hsl 128 15 0 1 0 0 empty empty empty -2 -8 0 10 -257985
-1 -1 9652 1;
#X msg -1202 -193 color \$1 \$1 \$1;
#X obj -1412 -95 r caameeraa;
#X msg -1155 -95 fogmode 3 \, fog 0.0025 \, fogcolor 0.2 0.3 0.6;
#X obj -1034 -112 loadbang;
#X obj -1202 -252 loadbang;
#X msg -1202 -232 0.76;
#X msg -1162 -139 fogcolor 0.4 0.5 0.9;
#X msg -1294 -95 fogmode 0;
#X msg -1183 -167 fogcolor \$1 \$1 \$1;
#X floatatom -1033 -183 5 0 0 0 - - -;
#X msg -703 -124 1440;
#X floatatom -701 -81 5 0 0 0 - - -;
#X obj -702 -103 expr $f1 * 2 / 6;
#X obj -1200 18 bng 15 250 50 0 empty empty reboot 17 7 0 10 -258113
-1 -1;
#X msg -1200 137 create \, 1;
#X msg -946 55 0 \, destroy;
#X obj -946 176 gemwin;
#X obj -1200 38 t b b b b b;
#X obj -946 82 t a;
#X obj -946 104 t a;
#X obj -946 130 t a;
#X obj -946 154 t a;
#X msg -774 -220 lighting \$1;
#X obj -774 -239 tgl 15 0 empty empty empty 17 7 0 10 -262144 -1 -1
0 1;
#X msg -961 -41 lighting 0;
#X obj -1114 -18 inlet;
#X msg -1200 159 view 0 0 4 0 0 0 0 1 0;
#X msg -794 91 frame 60 \, dimen 800 300;
#X obj -944 2 inlet;
#X msg -1357 87 frame 60 \, dimen 1600 600;
#X msg -1151 64 FSAA 14 \, perspec -1 1 -1 1 1 300;
#X msg -1169 87 frame 60 \, dimen 1600 450;
#X msg -1185 115 border 1 \, offset 0 0;
#X connect 1 0 2 0;
#X connect 2 0 0 0;
#X connect 3 0 0 0;
#X connect 4 0 0 0;
#X connect 5 0 4 0;
#X connect 6 0 7 0;
#X connect 7 0 1 0;
#X connect 8 0 0 0;
#X connect 9 0 0 0;
#X connect 10 0 0 0;
#X connect 11 0 10 0;
#X connect 12 0 14 0;
#X connect 14 0 13 0;
#X connect 15 0 19 0;
#X connect 16 0 23 0;
#X connect 17 0 20 0;
#X connect 19 0 16 0;
#X connect 19 0 28 0;
#X connect 19 1 34 0;
#X connect 19 2 33 0;
#X connect 19 3 32 0;
#X connect 19 4 17 0;
#X connect 20 0 18 0;
#X connect 21 0 18 0;
#X connect 22 0 18 0;
#X connect 23 0 18 0;
#X connect 25 0 24 0;
#X connect 26 0 0 0;
#X connect 27 0 15 0;
#X connect 28 0 18 0;
#X connect 29 0 18 0;
#X connect 30 0 17 0;
#X connect 31 0 21 0;
#X connect 32 0 20 0;
#X connect 33 0 21 0;
#X connect 34 0 22 0;
