#N canvas 116 192 1374 585 10;
#X obj 865 106 hid 0;
#X msg 865 49 open 17;
#X msg 882 69 print;
#X obj 865 126 route key abs msc;
#X obj 865 183 print;
#X obj 898 164 print;
#X obj 931 145 print;
#X obj 621 97 route btn_0 btn_1 btn_2 btn_3;
#X obj 498 97 route btn_8 btn_9;
#X obj 334 98 route abs_hat0y abs_hat0x;
#X obj 846 208 s key;
#X obj 913 196 s abs;
#X obj 1039 136 s msc;
#X obj 334 79 r key;
#X obj 353 145 r abs;
#X obj 1085 135 r msc;
#X obj 644 168 route abs_rz abs_z;
#X obj 353 164 route abs_x abs_y;
#X obj 498 78 r key;
#X obj 621 78 r key;
#X obj 644 149 r abs;
#X floatatom 339 202 5 0 0 0 - - -;
#X floatatom 395 205 5 0 0 0 - - -;
#X floatatom 642 201 5 0 0 0 - - -;
#X floatatom 698 205 5 0 0 0 - - -;
#X obj 228 113 grid grid1 50 0 256 50 0 256 1 1 1 10 10 130 -352;
#X msg 898 89 poll 30;
#X connect 0 0 3 0;
#X connect 1 0 0 0;
#X connect 2 0 0 0;
#X connect 3 0 4 0;
#X connect 3 0 10 0;
#X connect 3 1 5 0;
#X connect 3 1 11 0;
#X connect 3 2 6 0;
#X connect 13 0 9 0;
#X connect 14 0 17 0;
#X connect 16 0 23 0;
#X connect 16 1 24 0;
#X connect 17 0 21 0;
#X connect 17 1 22 0;
#X connect 18 0 8 0;
#X connect 19 0 7 0;
#X connect 20 0 16 0;
#X connect 26 0 0 0;
