#N canvas 73 341 1485 479 10;
#X text 269 -59 encodeur rotatif;
#X obj 240 71 >= 65;
#X obj 267 110 sel 1 0;
#X obj 288 264 f;
#X obj 325 263 +;
#X obj 240 90 t b f;
#X obj 272 -3 ctlin 96;
#X obj 304 215 f;
#X obj 410 97 expr -1 * ($f1 - 64);
#X obj 341 215 f;
#X obj 271 30 t f f f;
#X obj 655 146 cnv 15 130 50 empty empty empty 20 12 0 14 -233017 -66577
0;
#X obj 793 146 cnv 15 90 50 empty empty empty 20 12 0 14 -233017 -66577
0;
#X floatatom 790 30 0 0 0 0 - - -;
#X obj 780 6 ctlin 98 1;
#X floatatom 955 23 0 0 0 0 - - -;
#X obj 955 6 ctlin 99 1;
#X floatatom 876 27 0 0 0 0 - - -;
#X obj 870 6 ctlin 6 1;
#X text 869 -9 valeur;
#X text 778 -9 controleur;
#X obj 780 56 pack f f;
#X text 954 -8 ??;
#X floatatom 660 151 5 0 0 0 - - -;
#X floatatom 701 151 5 0 0 0 - - -;
#X floatatom 742 151 5 0 0 0 - - -;
#X floatatom 796 151 5 0 0 0 - - -;
#X floatatom 838 151 5 0 0 0 - - -;
#X obj 660 107 route 2 6 5 4 8 7 1 0 100 101;
#X obj 853 107 route 12 16 15 14 18 17 11 10 110 111;
#X obj 713 210 cnv 15 170 25 empty empty empty 20 12 0 14 -233017 -66577
0;
#X floatatom 742 175 5 0 0 0 - - -;
#X floatatom 796 175 5 0 0 0 - - -;
#X floatatom 839 175 5 0 0 0 - - -;
#X floatatom 797 214 5 0 0 0 - - -;
#X floatatom 840 214 5 0 0 0 - - -;
#X text 776 -61 electribe cc;
#X floatatom 1287 21 0 0 0 0 - - -;
#X obj 1287 54 pack f f;
#X floatatom 1338 25 5 0 0 0 - - -;
#X obj 1287 5 notein 1;
#X obj 1288 80 route 0 1 2 3 4 5 6 7 8 9;
#X text 1292 -60 electribe note;
#X obj 1287 154 bng 15 250 50 0 empty empty empty 17 7 0 10 -262144
-1 -1;
#X obj 1325 139 bng 15 250 50 0 empty empty empty 17 7 0 10 -262144
-1 -1;
#X obj 1352 138 bng 15 250 50 0 empty empty empty 17 7 0 10 -262144
-1 -1;
#X obj 1353 138 bng 15 250 50 0 empty empty empty 17 7 0 10 -262144
-1 -1;
#X obj 1374 139 bng 15 250 50 0 empty empty empty 17 7 0 10 -262144
-1 -1;
#X floatatom 1148 265 0 0 0 0 - - -;
#X obj 1148 298 pack f f;
#X floatatom 1199 269 5 0 0 0 - - -;
#X obj 1148 249 notein 1;
#X obj 1149 324 route 0 1 2 3 4 5 6 7 8 9;
#X obj 1151 367 print;
#X connect 1 0 5 0;
#X connect 2 0 7 0;
#X connect 2 1 9 0;
#X connect 3 0 4 0;
#X connect 4 0 3 1;
#X connect 5 0 3 0;
#X connect 5 1 2 0;
#X connect 6 0 10 0;
#X connect 7 0 4 1;
#X connect 8 0 7 1;
#X connect 9 0 4 1;
#X connect 10 0 1 0;
#X connect 10 1 9 1;
#X connect 10 2 8 0;
#X connect 14 0 13 0;
#X connect 14 0 21 0;
#X connect 16 0 15 0;
#X connect 18 0 17 0;
#X connect 18 0 21 1;
#X connect 21 0 28 0;
#X connect 21 0 29 0;
#X connect 28 0 23 0;
#X connect 28 1 24 0;
#X connect 28 2 25 0;
#X connect 28 3 31 0;
#X connect 28 4 26 0;
#X connect 28 5 27 0;
#X connect 28 6 32 0;
#X connect 28 7 33 0;
#X connect 28 8 34 0;
#X connect 28 9 35 0;
#X connect 37 0 38 0;
#X connect 38 0 41 0;
#X connect 39 0 38 1;
#X connect 40 0 37 0;
#X connect 40 1 39 0;
#X connect 41 0 43 0;
#X connect 41 1 44 0;
#X connect 41 2 46 0;
#X connect 48 0 49 0;
#X connect 49 0 52 0;
#X connect 50 0 49 1;
#X connect 51 0 48 0;
#X connect 51 1 50 0;
