#N canvas 588 326 657 506 10;
#X obj 36 85 >= 65;
#X obj 63 124 sel 1 0;
#X obj 84 278 f;
#X obj 121 277 +;
#X obj 36 104 t b f;
#X obj 100 229 f;
#X obj 206 111 expr -1 * ($f1 - 64);
#X obj 137 229 f;
#X obj 67 44 t f f f;
#X floatatom 32 328 5 0 0 0 - - -;
#X obj 121 324 outlet;
#X obj 65 11 ctlin \$1;
#X text 137 11 numero de controleurs du "Pocket Dial" de 96 a 111;
#X connect 0 0 4 0;
#X connect 1 0 5 0;
#X connect 1 1 7 0;
#X connect 2 0 3 0;
#X connect 3 0 2 1;
#X connect 3 0 9 0;
#X connect 3 0 10 0;
#X connect 4 0 2 0;
#X connect 4 1 1 0;
#X connect 5 0 3 1;
#X connect 6 0 5 1;
#X connect 7 0 3 1;
#X connect 8 0 0 0;
#X connect 8 1 7 1;
#X connect 8 2 6 0;
#X connect 11 0 8 0;
