#N canvas 108 151 1226 470 10;
#X obj 37 79 gemwin;
#X obj 201 16 gemhead;
#X obj 201 59 gemframebuffer;
#X obj 201 111 translateXYZ 0 0 -4;
#X obj 201 155 color 1 0 0;
#X obj 371 77 gemhead 60;
#X obj 371 178 pix_texture;
#X obj 371 211 square 4;
#X msg 52 54 destroy;
#X obj 371 99 alpha;
#X obj 201 187 polygon_smooth;
#X obj 201 133 rotateXYZ 0 0 2;
#X msg 280 33 dimen 500 500 \, format RGBA;
#X obj 531 59 gemframebuffer;
#X obj 531 111 translateXYZ 0 0 -4;
#X obj 531 155 color 1 0 0;
#X obj 701 178 pix_texture;
#X obj 701 211 square 4;
#X obj 701 100 alpha;
#X obj 531 133 rotateXYZ 0 0 2;
#X msg 610 33 dimen 500 500 \, format RGBA;
#X obj 701 77 gemhead 60;
#X obj 531 16 gemhead 51;
#X obj 531 183 poly_smooth;
#X obj 871 59 gemframebuffer;
#X obj 871 111 translateXYZ 0 0 -4;
#X obj 871 155 color 1 0 0;
#X obj 1041 178 pix_texture;
#X obj 1041 211 square 4;
#X obj 1041 101 alpha;
#X obj 871 133 rotateXYZ 0 0 2;
#X msg 950 33 dimen 500 500 \, format RGBA;
#X obj 1041 77 gemhead 60;
#X obj 1041 141 translateXYZ 0 -2 0;
#X obj 701 141 translateXYZ 2 1 0;
#X obj 371 141 translateXYZ -2 1 0;
#X obj 871 16 gemhead 52;
#X text 242 265 With [polygon_smooth];
#X text 602 265 With [poly_smooth];
#X floatatom 496 71 5 0 0 0 - - -, f 5;
#X floatatom 589 88 5 0 0 0 - - -, f 5;
#X text 952 265 Without antialiasing;
#X obj 871 207 square 1;
#X obj 280 10 loadbang;
#X obj 610 10 loadbang;
#X obj 950 10 loadbang;
#X msg 37 27 create \, 1;
#X obj 531 207 square 1;
#X obj 201 217 square 1;
#X obj 531 233 poly_smooth_dis;
#X connect 1 0 2 0;
#X connect 2 0 3 0;
#X connect 2 1 6 1;
#X connect 3 0 11 0;
#X connect 4 0 10 0;
#X connect 5 0 9 0;
#X connect 6 0 7 0;
#X connect 8 0 0 0;
#X connect 9 0 35 0;
#X connect 10 0 48 0;
#X connect 11 0 4 0;
#X connect 12 0 2 0;
#X connect 13 0 14 0;
#X connect 13 1 16 1;
#X connect 14 0 19 0;
#X connect 15 0 23 0;
#X connect 16 0 17 0;
#X connect 18 0 34 0;
#X connect 19 0 15 0;
#X connect 20 0 13 0;
#X connect 21 0 18 0;
#X connect 22 0 13 0;
#X connect 23 0 47 0;
#X connect 24 0 25 0;
#X connect 24 1 27 1;
#X connect 25 0 30 0;
#X connect 26 0 42 0;
#X connect 27 0 28 0;
#X connect 29 0 33 0;
#X connect 30 0 26 0;
#X connect 31 0 24 0;
#X connect 32 0 29 0;
#X connect 33 0 27 0;
#X connect 34 0 16 0;
#X connect 35 0 6 0;
#X connect 36 0 24 0;
#X connect 39 0 19 1;
#X connect 40 0 19 2;
#X connect 43 0 12 0;
#X connect 44 0 20 0;
#X connect 45 0 31 0;
#X connect 46 0 0 0;
#X connect 47 0 49 0;
