#N canvas 493 196 638 300 10;
#X obj 194 116 samplerate~;
#X obj 194 159 osc~;
#X obj 194 179 *~ -0.5;
#X obj 194 203 +~ 0.5;
#X obj 268 37 loadbang;
#X obj 268 62 t b b;
#X obj 194 137 /;
#X msg 227 139 0;
#X msg 340 209 \; \$1 resize \$2;
#X obj 193 234 tabwrite~ \$1;
#X obj 369 132 \$2;
#X obj 292 109 symbol \$1;
#X obj 306 183 pack s f;
#X obj 422 39 bng 15 250 50 0 empty empty empty 17 7 0 10 -262144 -1
-1;
#X connect 0 0 6 0;
#X connect 1 0 2 0;
#X connect 2 0 3 0;
#X connect 3 0 9 0;
#X connect 4 0 5 0;
#X connect 5 0 0 0;
#X connect 5 0 7 0;
#X connect 5 0 9 0;
#X connect 5 0 11 0;
#X connect 5 1 10 0;
#X connect 6 0 1 0;
#X connect 7 0 1 1;
#X connect 10 0 6 1;
#X connect 10 0 12 1;
#X connect 11 0 12 0;
#X connect 12 0 8 0;
#X connect 13 0 5 0;
