#N canvas 373 134 896 408 10;
#X obj 57 67 table titi 16;
#X obj 283 108 table toto 16;
#X obj 55 127 iemmatrix/mtx_tab titi;
#X obj 283 130 iemmatrix/mtx_tab toto;
#X obj 519 106 matrix;
#X msg 519 85 matrix 1 6 4 5 6 7 8 9;
#X obj 595 149 matrix;
#X msg 595 128 matrix 1 6 1 1 1 1 1 1;
#X obj 187 269 mtx_print;
#X obj 187 208 mtx_*;
#X obj 221 75 bng 15 250 50 0 empty empty empty 17 7 0 10 -262144 -1
-1;
#X obj 326 207 mtx_print;
#X connect 2 0 9 0;
#X connect 3 0 9 1;
#X connect 3 0 11 0;
#X connect 5 0 4 0;
#X connect 7 0 6 0;
#X connect 9 0 8 0;
#X connect 10 0 3 0;
