#N canvas 315 589 1585 270 10;
#X obj 134 142 gemhead;
#X msg 755 75 \; Z const 0;
#X obj 134 121 tgl 15 0 empty empty empty 17 7 0 10 -262144 -1 -1 1
1;
#X obj 296 78 abstractions/gemwin;
#X msg 315 52 destroy;
#X obj 670 21 table X 256;
#X obj 671 48 table Y 256;
#X obj 670 75 table Z 256;
#X obj 152 366 b;
#X msg 15 380 draw line;
#X obj 639 246 loadbang;
#X msg 221 357 color couleur;
#X msg 815 306 \; X read ./Y.txt;
#X obj 670 115 table couleur 2048;
#X msg 815 365 \; couleur read ./couleur.txt;
#N canvas 224 261 478 471 tables_Utils 0;
#X obj 254 302 f;
#X obj 287 302 + 1;
#X obj 265 358 sel 1;
#X msg 326 334 0;
#X obj 187 378 tabwrite X;
#X obj 265 336 >= 256;
#X obj 254 281 metro 20;
#X obj 254 262 tgl 15 0 empty empty empty 17 7 0 10 -262144 -1 -1 0
1;
#X obj 187 338 / 32;
#X obj 187 358 - 4;
#X msg 80 46 \; couleur const 1;
#X floatatom 85 93 5 0 0 0 - - -, f 5;
#X msg 85 113 \; couleur \$1 0;
#X obj 256 133 f;
#X obj 289 133 + 1;
#X obj 267 189 sel 1;
#X msg 328 165 0;
#X obj 256 112 metro 20;
#X obj 256 93 tgl 15 0 empty empty empty 17 7 0 10 -262144 -1 -1 0
1;
#X obj 267 167 >= 22;
#X msg 205 159 0;
#X obj 219 119 b;
#X obj 189 209 tabwrite couleur;
#X obj 62 267 expr size("X");
#X floatatom 62 290 5 0 0 0 - - -, f 5;
#X obj 62 247 bng 15 250 50 0 empty empty empty 17 7 0 10 -262144 -1
-1;
#X connect 0 0 1 0;
#X connect 0 0 4 1;
#X connect 0 0 5 0;
#X connect 0 0 8 0;
#X connect 1 0 0 1;
#X connect 2 0 3 0;
#X connect 3 0 1 0;
#X connect 5 0 2 0;
#X connect 6 0 0 0;
#X connect 7 0 6 0;
#X connect 8 0 9 0;
#X connect 9 0 4 0;
#X connect 11 0 12 0;
#X connect 13 0 14 0;
#X connect 13 0 19 0;
#X connect 13 0 21 0;
#X connect 13 0 22 1;
#X connect 14 0 13 1;
#X connect 15 0 16 0;
#X connect 16 0 14 0;
#X connect 17 0 13 0;
#X connect 18 0 17 0;
#X connect 19 0 15 0;
#X connect 20 0 22 0;
#X connect 21 0 20 0;
#X connect 23 0 24 0;
#X connect 25 0 23 0;
#X restore 475 87 pd tables_Utils;
#X obj 639 272 t b;
#X obj 639 389 t b;
#X obj 770 289 t b;
#X obj 770 348 t b;
#X obj 303 704 table couleur8 24;
#X obj 670 137 table R 256;
#X obj 670 158 table G 256;
#X obj 670 179 table B 256;
#X obj 670 200 table A 256;
#X msg 755 137 \; R const 1 \; G const 1 \; B const 1 \; A const 1
\;;
#X msg 684 289 \; X 0 100 \; X 1 100 \; X 2 -100 \; X 3 -100 \; X 4
-100 \; X 5 -4;
#X msg 684 406 \; Y 0 0 \; Y 1 -200 \; Y 2 -200 \; Y 3 0 \; Y 4 0 \;
Y 5 0;
#X obj 303 645 table X8 8;
#X obj 303 665 table Y8 8;
#X obj 303 685 table Z8 8;
#X obj 310 1099 gemvertexbuffer 4;
#X obj 92 599 gemhead;
#X obj 92 548 tgl 15 0 empty empty empty 17 7 0 10 -262144 -1 -1 0
1;
#X msg 245 917 \; Y8 0 1 \; Y8 1 1 \; Y8 2 -1 \; Y8 3 -1 \; Y8 4 -1
\; Y8 5 1 \; Y8 6 1 \; Y8 7 -1;
#X obj 99 660 rotateXYZ;
#X floatatom 186 600 5 0 0 0 - - -, f 5;
#X msg 324 917 \; Z8 0 1 \; Z8 1 1 \; Z8 2 1 \; Z8 3 1 \; Z8 4 -1 \;
Z8 5 -1 \; Z8 6 -1 \; Z8 7 -1;
#X msg 170 917 \; X8 0 -1 \; X8 1 1 \; X8 2 1 \; X8 3 -1 \; X8 4 -1
\; X8 5 -1 \; X8 6 1 \; X8 7 1;
#X obj 109 812 gemvertexbuffer 8;
#X obj 545 700 pack f f;
#X floatatom 541 617 5 0 0 0 - - -, f 5;
#X floatatom 584 640 5 0 0 0 - - -, f 5;
#X obj 563 666 b;
#X msg 544 742 \; Z8 \$1 \$2;
#X msg 137 734 posX X8 \, posY Y8 \, posX X8;
#X obj 108 692 t a b;
#X text 420 912 bug : gemvertexbuffer;
#X text 419 942 posX is updated correctly (from the table data);
#X text 419 1013 posZ is not updated correctly : the last 2 index are
not updated from table;
#X text 420 972 posY is not updated correctly : the last index is not
updated from table;
#X obj 324 900 loadbang;
#X text 125 892 8 vertices for a CUBE :;
#X msg 4 985 \; XYZ 0 -1 \; XYZ 1 1 \; XYZ 2 1 \; XYZ 3 1 \; XYZ 4
1 \; XYZ 5 1 \; XYZ 6 1 \; XYZ 7 -1 \; XYZ 8 1 \; XYZ 9 -1 \; XYZ 10
-1 \; XYZ 11 1 \; XYZ 12 -1 \; XYZ 13 -1 \; XYZ 14 -1 \; XYZ 15 1 \;
XYZ 16 -1 \; XYZ 17 -1 \; XYZ 18 1 \; XYZ 19 1 \; XYZ 20 -1 \; XYZ
21 -1 \; XYZ 22 1 \; XYZ 23 -1;
#X obj 4 968 loadbang;
#X msg 175 772 position XYZ;
#X obj 316 608 table XYZ 24;
#X msg 31 769 draw triangle;
#N canvas 1003 143 767 731 tablerr 1;
#X obj 55 509 tabwrite~ Y;
#X obj 145 346 gemhead 40;
#X msg 265 491 start 6;
#X obj 145 331 tgl 15 0 empty empty empty 17 7 0 10 -262144 -1 -1 1
1;
#X obj 95 154 *~;
#X obj 122 154 *~;
#X obj 95 183 q8_sqrt~;
#X obj 96 280 *~, f 6;
#X obj 385 96 block~;
#X obj 96 15 inlet~;
#X floatatom 135 260 5 0 0 0 - - -, f 5;
#X obj 394 265 loadbang;
#X obj 385 51 loadbang;
#X obj 185 226 loadbang;
#X msg 185 243 0.2;
#X obj 164 108 *~;
#X obj 95 118 rfft~;
#X obj 183 55 tabreceive~ hanning;
#X obj 43 23 osc~;
#X floatatom 43 5 5 0 0 0 - - -, f 5;
#X obj 394 244 table hanning 512;
#X msg 394 286 \; hanning cosinesum 512 0 -1;
#X obj 145 363 t b b;
#X obj 265 380 t b;
#X msg 385 74 set 1024 1 1;
#X msg 145 425 \; Y normalize 10;
#X floatatom 475 419 5 0 0 0 - - -, f 5;
#X obj 422 440 hip~ 200;
#X obj 79 445 *~;
#X floatatom 88 409 5 0 0 0 - - -, f 5;
#X obj 19 417 *~ 0.1;
#X connect 1 0 22 0;
#X connect 2 0 0 0;
#X connect 3 0 1 0;
#X connect 4 0 6 0;
#X connect 5 0 6 0;
#X connect 6 0 7 0;
#X connect 7 0 28 0;
#X connect 9 0 15 0;
#X connect 9 0 16 0;
#X connect 9 0 30 0;
#X connect 10 0 7 1;
#X connect 11 0 21 0;
#X connect 12 0 24 0;
#X connect 13 0 14 0;
#X connect 14 0 10 0;
#X connect 16 0 4 0;
#X connect 16 0 4 1;
#X connect 16 1 5 0;
#X connect 16 1 5 1;
#X connect 17 0 15 1;
#X connect 19 0 18 0;
#X connect 22 0 25 0;
#X connect 22 1 23 0;
#X connect 23 0 2 0;
#X connect 24 0 8 0;
#X connect 26 0 27 1;
#X connect 28 0 0 0;
#X connect 29 0 28 1;
#X restore 173 93 pd tablerr;
#X obj 166 35 adc~;
#X obj 174 256 translateXYZ 0 -3 0;
#X msg 1022 127 \; X line 0 1;
#X msg 36 441 draw quad;
#X obj 424 476 bp~;
#X msg 800 427 \; A read ./couleur.txt;
#X msg 801 460 \; R read ./couleur.txt;
#X msg 955 426 \; G read ./couleur.txt;
#X msg 956 459 \; B read ./couleur.txt;
#X obj 134 172 alpha;
#X msg 7 414 draw point;
#X msg 298 27 FSAA 15 \, frame 60 \, dimen 1600 480 \, create \, 1
;
#X obj 38 43 f;
#X obj 70 43 + 1;
#X obj 38 63 % 2;
#X obj 38 83 route 0 1;
#X obj 38 3 gemhead;
#X obj 38 23 b;
#X obj 15 110 realtime;
#X floatatom 15 170 5 0 0 1 fps - -, f 5;
#X obj 15 130 expr 1000 / $f1;
#X obj 15 150 int;
#X obj 134 447 gemvertexbuffer 256;
#X obj 134 220 GEMglPointSize;
#X floatatom 229 199 5 0 0 0 - - -, f 5;
#X obj 154 342 spigot;
#X obj 191 324 tgl 15 0 empty empty empty 17 7 0 10 -262144 -1 -1 1
1;
#X msg 150 390 posX X \, posY Y \, posZ Z \, colorR R \, colorG G \,
colorB B \, colorA A, f 64;
#X obj 24 321 gemlist;
#X obj 24 299 until;
#X obj 24 253 t b a;
#X obj 133 303 t a;
#X obj 398 155 scaleXYZ 3 1 1;
#X msg 24 275 2;
#X obj 343 318 rotateXYZ 180 0 0;
#X connect 0 0 68 0;
#X connect 2 0 0 0;
#X connect 4 0 3 0;
#X connect 8 0 86 0;
#X connect 9 0 81 0;
#X connect 10 0 16 0;
#X connect 16 0 26 0;
#X connect 16 0 17 0;
#X connect 16 0 18 0;
#X connect 17 0 27 0;
#X connect 18 0 12 0;
#X connect 18 0 19 0;
#X connect 19 0 14 0;
#X connect 32 0 35 0;
#X connect 33 0 32 0;
#X connect 35 0 46 0;
#X connect 36 0 35 2;
#X connect 40 0 44 0;
#X connect 41 0 40 0;
#X connect 42 0 40 1;
#X connect 42 0 43 0;
#X connect 43 0 40 0;
#X connect 46 0 39 0;
#X connect 46 1 55 0;
#X connect 51 0 38 0;
#X connect 51 0 34 0;
#X connect 51 0 37 0;
#X connect 54 0 53 0;
#X connect 55 0 39 0;
#X connect 57 0 39 0;
#X connect 59 0 58 0;
#X connect 59 1 58 0;
#X connect 62 0 81 0;
#X connect 68 0 82 0;
#X connect 69 0 81 0;
#X connect 70 0 3 0;
#X connect 71 0 72 0;
#X connect 71 0 73 0;
#X connect 72 0 71 1;
#X connect 73 0 74 0;
#X connect 74 0 77 0;
#X connect 74 1 77 1;
#X connect 75 0 76 0;
#X connect 76 0 71 0;
#X connect 77 0 79 0;
#X connect 79 0 80 0;
#X connect 80 0 78 0;
#X connect 82 0 91 0;
#X connect 83 0 82 1;
#X connect 84 0 8 0;
#X connect 85 0 84 1;
#X connect 86 0 81 0;
#X connect 87 0 93 0;
#X connect 88 0 87 0;
#X connect 89 0 92 0;
#X connect 89 1 87 1;
#X connect 90 0 84 0;
#X connect 90 0 89 0;
#X connect 91 0 90 0;
#X connect 92 0 88 0;
#X connect 93 0 81 0;
