#N canvas 29 177 1345 701 10;
#X obj 597 306 b;
#X obj 597 218 bng 15 250 50 0 empty createwindow create 17 7 0 10
-262144 -1 -4034;
#X msg 681 219 destroy;
#X obj 774 150 bng 15 250 50 0 empty empty init 17 7 0 10 -262144 -1
-4034;
#X obj 681 146 bng 15 250 50 0 empty empty destroy 17 7 0 10 -262144
-1 -4034;
#X msg 774 224 border 1 \, perspec -1 1 -1 1 1 400;
#X obj 681 302 s Wa;
#X obj 774 302 s Wb;
#X obj 597 507 s Wa;
#X obj 639 559 r Wa;
#X text 101 293 - taille WINDOW;
#X text 101 305 - taille FRAMEBUFFER;
#X text 127 335 - effet FLOU;
#X text 128 350 - effet PIXEL8BIT;
#X text 331 570 - objet GEMVERTEXBUFFER;
#X text 329 587 - objet CUBE;
#X text 330 554 - objet OBJET3D;
#X text 329 603 - objet PARTICULES;
#X text 200 403 - calque OSD;
#X text 201 431 - calque FOND;
#X text 201 417 - calque OBJETS;
#X obj 83 395 bng 16 250 50 0 empty empty empty 17 7 0 10 -262144 -1
-1;
#X obj 183 411 bng 8 250 50 0 empty empty empty 17 7 0 10 -262144 -1
-1;
#X obj 303 560 bng 8 250 50 0 empty empty empty 17 7 0 10 -262144 -1
-1;
#X obj 83 300 bng 8 250 50 0 empty empty empty 17 7 0 10 -262144 -1
-1;
#X obj 183 544 bng 16 250 50 0 empty empty empty 17 7 0 10 -262144
-1 -1;
#X text 101 226 - midi output ELECTRIBE;
#X text 101 240 - midi input ELECTRIBE;
#X text 101 212 - audio input;
#X obj 83 205 bng 8 250 50 0 empty empty empty 17 7 0 10 -262144 -1
-1;
#X text 104 139 - config -rt -sleepgrain 1 -nosleep;
#X obj 83 145 bng 8 250 50 0 empty empty empty 17 7 0 10 -262144 -1
-1;
#X obj 116 341 bng 8 250 50 0 empty empty empty 17 7 0 10 -262144 -1
-1;
#X obj 303 500 bng 8 250 50 0 empty empty empty 17 7 0 10 -262144 -1
-1;
#X obj 183 484 bng 16 250 50 0 empty empty empty 17 7 0 10 -262144
-1 -1;
#X text 104 153 - config CANVA BACKGROUND + COLORS;
#X text 102 198 - OSC input;
#X text 322 492 - texture VLCSCREENCAPTURE;
#X text 328 621 - objet GENERATIVE3D;
#X obj 658 27 inlet;
#X obj 807 389 s Wb;
#X msg 639 606 title a \, frame 50 \, border 0 \, offset 1600 0 \,
dimen 1920 1080 \, create \, 1;
#X msg 810 354 title b \, frame 30 \, dimen 256 256 \, border 0 \,
offset 10 30 \, create \, 1;
#X msg 829 81 color 0 0 0 \, title a \, frame 60 \, border 0 \, offset
1600 0 \, dimen 1366 768 \, create \, 1;
#X obj 658 56 sel 1 0;
#X obj 597 104 t b b;
#X msg 423 275 color \$1 \$1 \$1;
#X obj 457 228 tgl 15 0 empty empty empty 17 7 0 10 -262144 -1 -1 0
1;
#X msg 597 455 FSAA 5 \, color 0 0 0 \, title a \, frame 60 \, border
1 \, offset 1600 0 \, dimen 960 540 \, create \, 1;
#X msg 392 408 color 0.5 0.5 0.5;
#X msg 819 502 FSAA 14 \, color 0 0 0 \, title megabestoff \, frame
60 \, border 1 \, offset 1600 0 \, dimen 576 360 \, create \, 1;
#X obj 639 578 abstractions/gemwin 20;
#X msg 658 404 FSAA 14 \, color 0 0 0 \, title megabestoff \, frame
60 \, border 0 \, offset 1600 0 \, dimen 1440 900 \, create \, 1;
#X connect 0 0 52 0;
#X connect 1 0 0 0;
#X connect 2 0 6 0;
#X connect 3 0 5 0;
#X connect 4 0 2 0;
#X connect 5 0 6 0;
#X connect 9 0 51 0;
#X connect 21 0 22 0;
#X connect 22 0 34 0;
#X connect 24 0 21 0;
#X connect 24 0 32 0;
#X connect 25 0 23 0;
#X connect 29 0 24 0;
#X connect 31 0 29 0;
#X connect 34 0 33 0;
#X connect 34 0 25 0;
#X connect 39 0 44 0;
#X connect 42 0 40 0;
#X connect 44 0 45 0;
#X connect 44 1 4 0;
#X connect 45 0 1 0;
#X connect 45 1 3 0;
#X connect 46 0 8 0;
#X connect 47 0 46 0;
#X connect 48 0 8 0;
#X connect 49 0 8 0;
#X connect 50 0 8 0;
#X connect 52 0 8 0;
