#N canvas 1 49 1590 811 10;
#X declare -path ./100.Abstractions;
#X declare -path /home/rep/LIVE/Abstractions;
#X declare -lib zexy;
#X declare -path ./100.Effets.glsl;
#X declare -path ../100.Abstractions/;
#X obj 73 73 declare -path ./100.Abstractions;
#X obj 273 -277 s SCALEFB;
#X obj 144 -277 s XFB;
#X obj 209 -277 s YFB;
#X obj 144 -297 nbx 6 14 -1e+37 1e+37 0 0 empty empty empty 0 -8 0
10 -262144 -1 -1 0 256;
#X obj 209 -297 nbx 6 14 -1e+37 1e+37 0 0 empty empty empty 0 -8 0
10 -262144 -1 -1 0 256;
#X obj 273 -297 nbx 6 14 -100 100 0 0 empty empty empty 0 -8 0 10 -262144
-1 -1 0 256;
#X obj 357 -328 bng 20 250 50 0 empty empty empty 17 7 0 10 -4034 -1
-1;
#X msg 370 -294 1;
#X msg 341 -294 0;
#X msg 273 -318 0.59;
#X obj 1158 153 cnv 15 150 25 empty empty empty 20 12 0 14 -257985
-66577 0;
#X obj 1169 158 hsl 128 15 0 1 0 0 empty empty empty -2 -8 0 10 -262144
-1 -1 2540 1;
#X obj 1166 269 s blur;
#X msg 1166 131 0.2;
#X obj 1166 108 loadbang;
#X obj 1063 155 hradio 15 1 0 2 empty empty empty 0 -8 0 10 -257985
-1 -1 0;
#X obj 1063 121 loadbang;
#X msg 1063 138 0;
#X obj 1063 170 s FLOU2;
#X obj 143 -382 loadbang;
#X obj 143 -341 s to_fb;
#X msg 143 -362 dimen 960 540 \, rectangle 0;
#N canvas 1014 438 450 300 fps 0;
#X obj 74 99 realtime;
#X obj 74 79 t b b;
#X obj 74 161 /;
#X msg 74 141 1000 \$1;
#X obj 74 226 outlet;
#X obj 74 183 + 0.5;
#X obj 74 205 i;
#X obj 76 28 inlet;
#X obj 74 59 gemhead;
#X connect 0 0 3 0;
#X connect 1 0 0 0;
#X connect 1 1 0 1;
#X connect 2 0 5 0;
#X connect 3 0 2 0;
#X connect 5 0 6 0;
#X connect 6 0 4 0;
#X connect 7 0 8 0;
#X connect 8 0 1 0;
#X restore 564 98 pd fps;
#X floatatom 564 115 5 0 0 1 fps - -, f 5;
#X msg 473 99 \; pd dsp 1;
#X obj 709 814 ./001.2d.Masques/cache;
#X obj 1241 782 key;
#X obj 1241 804 == 117;
#X msg 1241 894 0;
#X msg 1247 849 1;
#X obj 1241 826 sel 1, f 6;
#X obj 1241 871 delay 50;
#X obj 859 794 bng 15 250 50 0 empty empty empty 17 7 0 10 -262144
-1 -1;
#N canvas 398 154 1060 745 OLD 0;
#X obj 523 86 midiin;
#X obj 506 254 print;
#X obj 537 206 spigot;
#X obj 577 155 tgl 15 0 empty empty empty 17 7 0 10 -262144 -1 -1 0
1;
#X obj 385 208 spigot;
#X obj 416 193 tgl 15 0 empty empty empty 17 7 0 10 -262144 -1 -1 0
1;
#X obj 385 124 notein;
#X obj 385 225 print number;
#X obj 424 158 spigot;
#X obj 455 143 tgl 15 0 empty empty empty 17 7 0 10 -262144 -1 -1 0
1;
#X obj 424 175 print channel;
#X floatatom 478 141 5 0 0 0 - - -, f 5;
#X floatatom 300 141 5 0 0 0 - - -, f 5;
#X obj 303 222 s linestop;
#X obj 303 192 sel 1;
#X obj 343 175 == 2;
#X floatatom 368 89 5 0 0 0 - - -, f 5;
#X obj 447 349 notein;
#X obj 447 485 s linestop;
#X obj 447 435 sel 1;
#X obj 447 410 == 2;
#X obj 447 461 spigot;
#X obj 531 446 tgl 15 0 empty empty empty 17 7 0 10 -258113 -1 -1 0
1;
#X obj 493 397 nbx 6 14 -1e+37 1e+37 0 0 empty empty empty 0 -8 0 10
-260097 -1 -1 0 256;
#N canvas 91 271 521 568 valentine 0;
#X obj 73 479 GEMglPolygonMode;
#X obj 128 445 GLdefine GL_FRONT_AND_BACK;
#X obj 254 428 loadbang;
#X obj 182 414 bng 15 250 50 0 empty empty empty 17 7 0 10 -257985
-1 -1;
#X obj 182 462 GLdefine GL_FILL;
#X obj 73 128 colorRGB 1 1 1 1;
#X msg 259 365 10;
#X msg 87 294 justify left base;
#X obj 73 18 translateXYZ -4 3 0;
#X floatatom 116 -7 5 0 0 0 - - -, f 5;
#X obj 231 255 loadbang;
#X msg 100 311 font /usr/share/fonts/truetype/f500/f500.ttf;
#X obj 231 277 t a;
#X obj 304 262 bng 15 250 50 0 empty empty empty 17 7 0 10 -257985
-1 -1;
#X obj 259 348 loadbang;
#X floatatom 297 392 5 0 0 0 - - -, f 5;
#X floatatom 159 -8 5 0 0 0 - - -, f 5;
#X obj 448 170 bng 15 250 50 0 empty empty empty 17 7 0 10 -257985
-1 -1;
#X obj 73 -97 inlet;
#X obj 154 -97 inlet;
#X obj 209 -97 inlet;
#X floatatom 350 113 5 0 0 0 - - -, f 5;
#X floatatom 148 52 5 0 0 0 - - -, f 5;
#X obj 73 364 text3d drasah;
#X msg 115 328 text tetalab;
#X symbolatom 241 -30 10 0 0 0 - - -, f 10;
#X floatatom 241 -11 5 0 0 0 - - -, f 5;
#X obj 73 -74 gemhead a;
#X obj 73 74 rotateXYZ 0 0 0;
#X obj 93 229 GEMglPolygonMode;
#X obj 147 187 GLdefine GL_FRONT_AND_BACK;
#X obj 273 170 loadbang;
#X obj 202 165 bng 15 250 50 0 empty empty empty 17 7 0 10 -257985
-1 -1;
#X obj 202 204 GLdefine GL_FILL;
#X connect 1 0 0 1;
#X connect 2 0 1 0;
#X connect 2 0 4 0;
#X connect 3 0 1 0;
#X connect 3 0 4 0;
#X connect 4 0 0 2;
#X connect 5 0 23 0;
#X connect 6 0 23 1;
#X connect 7 0 23 0;
#X connect 8 0 28 0;
#X connect 9 0 8 1;
#X connect 10 0 12 0;
#X connect 11 0 23 0;
#X connect 12 0 11 0;
#X connect 12 0 7 0;
#X connect 12 0 24 0;
#X connect 13 0 12 0;
#X connect 14 0 6 0;
#X connect 15 0 23 1;
#X connect 16 0 8 2;
#X connect 17 0 13 0;
#X connect 17 0 3 0;
#X connect 18 0 27 0;
#X connect 19 0 9 0;
#X connect 20 0 16 0;
#X connect 22 0 28 2;
#X connect 24 0 23 0;
#X connect 25 0 26 0;
#X connect 26 0 8 3;
#X connect 28 0 5 0;
#X connect 30 0 29 1;
#X connect 31 0 30 0;
#X connect 31 0 33 0;
#X connect 32 0 30 0;
#X connect 32 0 33 0;
#X connect 33 0 29 2;
#X restore 300 530 pd valentine;
#X obj 300 509 tgl 15 0 empty empty empty 17 7 0 10 -262144 -1 -1 0
1;
#X floatatom 340 510 5 0 0 0 - - -, f 5;
#X floatatom 381 510 5 0 0 0 - - -, f 5;
#X obj 472 376 hradio 15 1 0 8 empty empty empty 0 -8 0 10 -262144
-1 -1 0;
#X text 370 37 warning: MIDI timing FIFO overflowed;
#X obj 313 685 shell;
#X obj 315 623 playlist all 400 300 {sans 15 normal} #457782 yellow
black red;
#X msg 315 595 location /home/rep/Background;
#X msg 315 662 hsetroot -cover \$1;
#X msg 299 376 3 2;
#X obj 305 399 *;
#X floatatom 307 426 5 0 0 0 - - -, f 5;
#X obj 324 274 netreceive 12345;
#X obj 323 299 print;
#X obj 300 460 loadbang;
#X msg 300 482 0;
#X msg 827 92 while : \; do dmesg \; sleep 0.2 \; done;
#X msg 1030 91 listen 3000;
#X obj 1030 137 netreceive -u;
#X msg 1038 112 listen 0;
#X floatatom 1000 188 5 0 0 0 - - -, f 5;
#X obj 1068 204 send;
#X obj 956 154 print;
#X obj 1059 167 unpack s f;
#X obj 1356 115 notein;
#X floatatom 1356 166 5 0 0 0 - - -, f 5;
#X floatatom 1375 150 5 0 0 0 - - -, f 5;
#X floatatom 1395 134 5 0 0 0 - - -, f 5;
#X connect 0 0 2 0;
#X connect 2 0 1 0;
#X connect 3 0 2 1;
#X connect 4 0 7 0;
#X connect 5 0 4 1;
#X connect 6 0 4 0;
#X connect 6 0 12 0;
#X connect 6 0 15 0;
#X connect 6 2 8 0;
#X connect 6 2 11 0;
#X connect 8 0 10 0;
#X connect 9 0 8 1;
#X connect 15 0 14 0;
#X connect 16 0 15 1;
#X connect 17 0 20 0;
#X connect 19 0 21 0;
#X connect 20 0 19 0;
#X connect 21 0 18 0;
#X connect 22 0 21 1;
#X connect 25 0 24 0;
#X connect 26 0 24 1;
#X connect 27 0 24 2;
#X connect 28 0 20 1;
#X connect 28 0 23 0;
#X connect 31 0 33 0;
#X connect 32 0 31 0;
#X connect 33 0 30 0;
#X connect 34 0 35 0;
#X connect 35 0 36 0;
#X connect 37 0 38 0;
#X connect 39 0 40 0;
#X connect 40 0 25 0;
#X connect 42 0 43 0;
#X connect 43 0 45 0;
#X connect 43 0 47 0;
#X connect 43 0 48 0;
#X connect 44 0 43 0;
#X connect 48 0 46 1;
#X connect 48 1 46 0;
#X connect 49 0 50 0;
#X connect 49 1 51 0;
#X connect 49 2 52 0;
#X restore 588 1112 pd OLD;
#X obj 1247 917 t a;
#N canvas 454 215 852 470 pad_midi 0;
#X obj 57 43 bng 15 250 50 0 empty empty empty 17 7 0 10 -262144 -1
-1;
#X obj 57 93 bng 15 250 50 0 empty empty empty 17 7 0 10 -262144 -1
-1;
#X obj 56 153 bng 15 250 50 0 empty empty empty 17 7 0 10 -262144 -1
-1;
#X obj 56 203 bng 15 250 50 0 empty empty empty 17 7 0 10 -262144 -1
-1;
#X obj 447 43 bng 15 250 50 0 empty empty empty 17 7 0 10 -262144 -1
-1;
#X obj 447 93 bng 15 250 50 0 empty empty empty 17 7 0 10 -262144 -1
-1;
#X obj 446 153 bng 15 250 50 0 empty empty empty 17 7 0 10 -262144
-1 -1;
#X obj 446 203 bng 15 250 50 0 empty empty empty 17 7 0 10 -262144
-1 -1;
#X floatatom 57 277 5 0 0 0 - - -, f 5;
#X floatatom 57 327 5 0 0 0 - - -, f 5;
#X floatatom 57 377 5 0 0 0 - - -, f 5;
#X floatatom 57 427 5 0 0 0 - - -, f 5;
#X obj 57 254 /home/rep/LIVE/2015_VJSet/100.Input/lpd8/lpd8_ctl 1;
#X obj 57 304 /home/rep/LIVE/2015_VJSet/100.Input/lpd8/lpd8_ctl 2;
#X obj 57 354 /home/rep/LIVE/2015_VJSet/100.Input/lpd8/lpd8_ctl 3;
#X obj 57 404 /home/rep/LIVE/2015_VJSet/100.Input/lpd8/lpd8_ctl 4;
#X obj 57 22 /home/rep/LIVE/2015_VJSet/100.Input/lpd8/lpd8_pad 36;
#X obj 57 72 /home/rep/LIVE/2015_VJSet/100.Input/lpd8/lpd8_pad 37;
#X obj 56 132 /home/rep/LIVE/2015_VJSet/100.Input/lpd8/lpd8_pad 38
;
#X obj 56 182 /home/rep/LIVE/2015_VJSet/100.Input/lpd8/lpd8_pad 39
;
#X obj 447 22 /home/rep/LIVE/2015_VJSet/100.Input/lpd8/lpd8_pad 40
;
#X obj 447 72 /home/rep/LIVE/2015_VJSet/100.Input/lpd8/lpd8_pad 41
;
#X obj 446 132 /home/rep/LIVE/2015_VJSet/100.Input/lpd8/lpd8_pad 42
;
#X obj 446 182 /home/rep/LIVE/2015_VJSet/100.Input/lpd8/lpd8_pad 43
;
#X connect 12 0 8 0;
#X connect 13 0 9 0;
#X connect 14 0 10 0;
#X connect 15 0 11 0;
#X connect 16 0 0 0;
#X connect 17 0 1 0;
#X connect 18 0 2 0;
#X connect 19 0 3 0;
#X connect 20 0 4 0;
#X connect 21 0 5 0;
#X connect 22 0 6 0;
#X connect 23 0 7 0;
#X restore 73 138 pd pad_midi;
#X obj 697 171 100.Fenetre/feedback2;
#X obj 73 52 declare -path /home/rep/LIVE/Abstractions;
#X obj 79 316 sub_audio;
#X obj 309 1062 tgl 15 0 empty empty empty 17 7 0 10 -262144 -1 -1
0 1;
#X obj 412 1062 bng 15 250 50 0 empty empty empty 17 7 0 10 -262144
-1 -1;
#X obj 508 1062 bng 15 250 50 0 empty empty empty 17 7 0 10 -262144
-1 -1;
#X obj 309 1093 tgl 15 0 empty empty empty 17 7 0 10 -262144 -1 -1
0 1;
#X obj 874 350 hradio 15 1 0 2 empty empty empty 0 -8 0 10 -257985
-1 -1 1;
#X floatatom 832 472 5 0 0 0 - - -, f 5;
#X obj 775 423 notein;
#X obj 796 440 f;
#X obj 758 424 bng 17 250 50 0 empty empty empty 17 7 0 10 -262144
-1 -1;
#X floatatom 1162 832 5 0 0 0 - - -, f 5;
#X obj 1150 798 notein;
#X obj 1171 815 f;
#X obj 1133 798 bng 17 250 50 0 empty empty empty 17 7 0 10 -262144
-1 -1;
#X obj 1208 589 notein;
#X obj 1229 606 f;
#X obj 1191 589 bng 17 250 50 0 empty empty empty 17 7 0 10 -262144
-1 -1;
#X obj 309 978 s cubeReset;
#X obj 309 957 bng 15 250 50 0 empty empty empty 17 7 0 10 -204786
-1 -1;
#N canvas 0 86 1600 814 graphizm 0;
#X obj 647 101 tgl 15 0 empty empty empty 17 7 0 10 -257985 -1 -1 0
1;
#X obj 662 101 tgl 15 0 empty empty empty 17 7 0 10 -1 -1 -1 0 1;
#X obj 677 101 tgl 15 0 empty empty empty 17 7 0 10 -1 -1 -1 0 1;
#X obj 692 101 tgl 15 0 empty empty empty 17 7 0 10 -1 -1 -1 0 1;
#X obj 647 87 tgl 15 0 empty empty empty 17 7 0 10 -257985 -1 -1 0
1;
#X obj 662 87 tgl 15 0 empty empty empty 17 7 0 10 -257985 -1 -1 0
1;
#X obj 677 87 tgl 15 0 empty empty empty 17 7 0 10 -257985 -1 -1 0
1;
#X obj 692 87 tgl 15 0 empty empty empty 17 7 0 10 -257985 -1 -1 0
1;
#X obj 647 72 tgl 15 0 empty empty empty 17 7 0 10 -257985 -1 -1 0
1;
#X obj 662 72 tgl 15 0 empty empty empty 17 7 0 10 -1 -1 -1 0 1;
#X obj 677 72 tgl 15 0 empty empty empty 17 7 0 10 -257985 -1 -1 0
1;
#X obj 692 72 tgl 15 0 empty empty empty 17 7 0 10 -1 -1 -1 0 1;
#X obj 647 58 tgl 15 0 empty empty empty 17 7 0 10 -257985 -1 -1 0
1;
#X obj 662 58 tgl 15 0 empty empty empty 17 7 0 10 -257985 -1 -1 0
1;
#X obj 677 58 tgl 15 0 empty empty empty 17 7 0 10 -257985 -1 -1 0
1;
#X obj 692 58 tgl 15 0 empty empty empty 17 7 0 10 -257985 -1 -1 0
1;
#X obj 707 101 tgl 15 0 empty empty empty 17 7 0 10 -257985 -1 -1 0
1;
#X obj 707 87 tgl 15 0 empty empty empty 17 7 0 10 -257985 -1 -1 0
1;
#X obj 707 72 tgl 15 0 empty empty empty 17 7 0 10 -257985 -1 -1 0
1;
#X obj 707 58 tgl 15 0 empty empty empty 17 7 0 10 -257985 -1 -1 0
1;
#X obj 647 116 tgl 15 0 empty empty empty 17 7 0 10 -257985 -1 -1 0
1;
#X obj 662 116 tgl 15 0 empty empty empty 17 7 0 10 -257985 -1 -1 0
1;
#X obj 677 116 tgl 15 0 empty empty empty 17 7 0 10 -257985 -1 -1 0
1;
#X obj 692 116 tgl 15 0 empty empty empty 17 7 0 10 -257985 -1 -1 0
1;
#X obj 707 116 tgl 15 0 empty empty empty 17 7 0 10 -257985 -1 -1 0
1;
#X obj 647 43 tgl 15 0 empty empty empty 17 7 0 10 -257985 -1 -1 0
1;
#X obj 707 43 tgl 15 0 empty empty empty 17 7 0 10 -257985 -1 -1 0
1;
#X obj 632 131 tgl 15 0 empty empty empty 17 7 0 10 -257985 -1 -1 0
1;
#X obj 647 131 tgl 15 0 empty empty empty 17 7 0 10 -257985 -1 -1 0
1;
#X obj 662 131 tgl 15 0 empty empty empty 17 7 0 10 -257985 -1 -1 0
1;
#X obj 677 131 tgl 15 0 empty empty empty 17 7 0 10 -257985 -1 -1 0
1;
#X obj 692 131 tgl 15 0 empty empty empty 17 7 0 10 -257985 -1 -1 0
1;
#X obj 707 131 tgl 15 0 empty empty empty 17 7 0 10 -257985 -1 -1 0
1;
#X obj 722 131 tgl 15 0 empty empty empty 17 7 0 10 -257985 -1 -1 0
1;
#X obj 632 146 tgl 15 0 empty empty empty 17 7 0 10 -257985 -1 -1 0
1;
#X obj 647 146 tgl 15 0 empty empty empty 17 7 0 10 -257985 -1 -1 0
1;
#X obj 662 146 tgl 15 0 empty empty empty 17 7 0 10 -257985 -1 -1 0
1;
#X obj 677 146 tgl 15 0 empty empty empty 17 7 0 10 -257985 -1 -1 0
1;
#X obj 692 146 tgl 15 0 empty empty empty 17 7 0 10 -257985 -1 -1 0
1;
#X obj 707 146 tgl 15 0 empty empty empty 17 7 0 10 -257985 -1 -1 0
1;
#X obj 722 146 tgl 15 0 empty empty empty 17 7 0 10 -257985 -1 -1 0
1;
#X obj 632 161 tgl 15 0 empty empty empty 17 7 0 10 -257985 -1 -1 0
1;
#X obj 647 161 tgl 15 0 empty empty empty 17 7 0 10 -257985 -1 -1 0
1;
#X obj 662 161 tgl 15 0 empty empty empty 17 7 0 10 -257985 -1 -1 0
1;
#X obj 692 161 tgl 15 0 empty empty empty 17 7 0 10 -257985 -1 -1 0
1;
#X obj 707 161 tgl 15 0 empty empty empty 17 7 0 10 -257985 -1 -1 0
1;
#X obj 722 161 tgl 15 0 empty empty empty 17 7 0 10 -257985 -1 -1 0
1;
#X obj 647 176 tgl 15 0 empty empty empty 17 7 0 10 -257985 -1 -1 0
1;
#X obj 662 176 tgl 15 0 empty empty empty 17 7 0 10 -257985 -1 -1 0
1;
#X obj 692 176 tgl 15 0 empty empty empty 17 7 0 10 -257985 -1 -1 0
1;
#X obj 707 176 tgl 15 0 empty empty empty 17 7 0 10 -257985 -1 -1 0
1;
#X obj 647 191 tgl 15 0 empty empty empty 17 7 0 10 -257985 -1 -1 0
1;
#X obj 662 191 tgl 15 0 empty empty empty 17 7 0 10 -257985 -1 -1 0
1;
#X obj 677 191 tgl 15 0 empty empty empty 17 7 0 10 -257985 -1 -1 0
1;
#X obj 692 191 tgl 15 0 empty empty empty 17 7 0 10 -257985 -1 -1 0
1;
#X obj 707 191 tgl 15 0 empty empty empty 17 7 0 10 -257985 -1 -1 0
1;
#X obj 647 206 tgl 15 0 empty empty empty 17 7 0 10 -257985 -1 -1 0
1;
#X obj 707 206 tgl 15 0 empty empty empty 17 7 0 10 -257985 -1 -1 0
1;
#X obj 647 221 tgl 15 0 empty empty empty 17 7 0 10 -257985 -1 -1 0
1;
#X obj 707 221 tgl 15 0 empty empty empty 17 7 0 10 -257985 -1 -1 0
1;
#X obj 662 206 tgl 15 0 empty empty empty 17 7 0 10 -257985 -1 -1 0
1;
#X obj 692 206 tgl 15 0 empty empty empty 17 7 0 10 -257985 -1 -1 0
1;
#X obj 662 221 tgl 15 0 empty empty empty 17 7 0 10 -257985 -1 -1 0
1;
#X obj 692 221 tgl 15 0 empty empty empty 17 7 0 10 -257985 -1 -1 0
1;
#X obj 677 161 tgl 15 0 empty empty empty 17 7 0 10 -257985 -1 -1 0
1;
#X obj 677 176 tgl 15 0 empty empty empty 17 7 0 10 -257985 -1 -1 0
1;
#X obj 384 189 tgl 10 0 empty empty empty 17 7 0 10 -4034 -1 -1 0 1
;
#X obj 404 189 tgl 10 0 empty empty empty 17 7 0 10 -4034 -1 -1 0 1
;
#X obj 394 189 tgl 10 0 empty empty empty 17 7 0 10 -1 -1 -1 0 1;
#X obj 384 199 tgl 10 0 empty empty empty 17 7 0 10 -1 -1 -1 0 1;
#X obj 404 199 tgl 10 0 empty empty empty 17 7 0 10 -1 -1 -1 0 1;
#X obj 394 199 tgl 10 0 empty empty empty 17 7 0 10 -1 -1 -1 0 1;
#X obj 384 179 tgl 10 0 empty empty empty 17 7 0 10 -1 -1 -1 0 1;
#X obj 404 179 tgl 10 0 empty empty empty 17 7 0 10 -1 -1 -1 0 1;
#X obj 394 179 tgl 10 0 empty empty empty 17 7 0 10 -1 -1 -1 0 1;
#X obj 394 214 tgl 10 0 empty empty empty 17 7 0 10 -1 -1 -1 0 1;
#X obj 384 214 tgl 10 0 empty empty empty 17 7 0 10 -1 -1 -1 0 1;
#X obj 394 224 tgl 10 0 empty empty empty 17 7 0 10 -1 -1 -1 0 1;
#X obj 384 224 tgl 10 0 empty empty empty 17 7 0 10 -1 -1 -1 0 1;
#X obj 394 234 tgl 10 0 empty empty empty 17 7 0 10 -1 -1 -1 0 1;
#X obj 384 234 tgl 10 0 empty empty empty 17 7 0 10 -1 -1 -1 0 1;
#X obj 394 244 tgl 10 0 empty empty empty 17 7 0 10 -1 -1 -1 0 1;
#X obj 384 244 tgl 10 0 empty empty empty 17 7 0 10 -1 -1 -1 0 1;
#X obj 404 214 tgl 10 0 empty empty empty 17 7 0 10 -1 -1 -1 0 1;
#X obj 404 224 tgl 10 0 empty empty empty 17 7 0 10 -1 -1 -1 0 1;
#X obj 404 234 tgl 10 0 empty empty empty 17 7 0 10 -1 -1 -1 0 1;
#X obj 404 244 tgl 10 0 empty empty empty 17 7 0 10 -1 -1 -1 0 1;
#X obj 359 214 tgl 10 0 empty empty empty 17 7 0 10 -1 -1 -1 0 1;
#X obj 349 214 tgl 10 0 empty empty empty 17 7 0 10 -1 -1 -1 0 1;
#X obj 369 214 tgl 10 0 empty empty empty 17 7 0 10 -1 -1 -1 0 1;
#X obj 359 234 tgl 10 0 empty empty empty 17 7 0 10 -1 -1 -1 0 1;
#X obj 369 234 tgl 10 0 empty empty empty 17 7 0 10 -1 -1 -1 0 1;
#X obj 384 259 tgl 10 0 empty empty empty 17 7 0 10 -1 -1 -1 0 1;
#X obj 384 269 tgl 10 0 empty empty empty 17 7 0 10 -1 -1 -1 0 1;
#X obj 384 279 tgl 10 0 empty empty empty 17 7 0 10 -1 -1 -1 0 1;
#X obj 384 289 tgl 10 0 empty empty empty 17 7 0 10 -1 -1 -1 0 1;
#X obj 404 259 tgl 10 0 empty empty empty 17 7 0 10 -1 -1 -1 0 1;
#X obj 404 269 tgl 10 0 empty empty empty 17 7 0 10 -1 -1 -1 0 1;
#X obj 404 279 tgl 10 0 empty empty empty 17 7 0 10 -1 -1 -1 0 1;
#X obj 22 20 cnv 15 200 350 empty empty empty 20 12 0 14 -233017 -66577
0;
#X obj 59 245 cnv 15 100 25 empty empty empty 20 12 0 14 -1 -66577
0;
#X obj 141 302 cnv 15 50 50 empty empty empty 20 12 0 14 -1 -66577
0;
#X obj 87 302 cnv 15 50 50 empty empty empty 20 12 0 14 -1 -66577 0
;
#X obj 33 302 cnv 15 50 50 empty empty empty 20 12 0 14 -1 -66577 0
;
#X obj 32 118 cnv 15 50 50 empty empty empty 20 12 0 14 -1 -66577 0
;
#X obj 134 118 cnv 15 50 50 empty empty empty 20 12 0 14 -1 -66577
0;
#X obj 32 168 cnv 15 50 50 empty empty empty 20 12 0 14 -1 -66577 0
;
#X obj 134 168 cnv 15 50 50 empty empty empty 20 12 0 14 -1 -66577
0;
#X obj 147 189 cnv 15 25 25 empty empty empty 20 12 0 14 -262144 -66577
0;
#X obj 45 189 cnv 15 25 25 empty empty empty 20 12 0 14 -262144 -66577
0;
#X obj 57 326 cnv 15 25 25 empty empty empty 20 12 0 14 -262144 -66577
0;
#X obj 111 326 cnv 15 25 25 empty empty empty 20 12 0 14 -262144 -66577
0;
#X obj 774 110 cnv 15 100 60 empty empty empty 20 12 0 14 -204455 -66577
0;
#X obj 881 110 cnv 15 100 60 empty empty empty 20 12 0 14 -249051 -66577
0;
#X obj 774 177 cnv 15 100 60 empty empty empty 20 12 0 14 -216873 -66577
0;
#X obj 881 177 cnv 15 100 60 empty empty empty 20 12 0 14 -253279 -66577
0;
#X obj 774 243 cnv 15 100 60 empty empty empty 20 12 0 14 -233259 -66577
0;
#X obj 881 243 cnv 15 100 60 empty empty empty 20 12 0 14 -257573 -66577
0;
#X obj 774 309 cnv 15 100 60 empty empty empty 20 12 0 14 -241647 -66577
0;
#X obj 881 309 cnv 15 100 60 empty empty empty 20 12 0 14 -261866 -66577
0;
#X obj 773 24 cnv 15 100 60 empty empty 3D_CUBE 0 -10 0 14 -233259
-66577 0;
#X obj 884 24 cnv 15 100 60 empty empty INPUT_AUDIO 0 -10 0 14 -257573
-66577 0;
#X obj 19 483 cnv 15 258 400 empty empty empty 20 12 0 14 -128992 -66577
0;
#X obj 20 484 cnv 15 256 398 empty empty empty 20 12 0 14 -233017 -66577
0;
#X obj 277 483 cnv 15 258 400 empty empty empty 20 12 0 14 -128992
-66577 0;
#X obj 278 484 cnv 15 256 398 empty empty empty 20 12 0 14 -233017
-66577 0;
#X obj 535 483 cnv 15 258 400 empty empty empty 20 12 0 14 -128992
-66577 0;
#X obj 536 484 cnv 15 256 398 empty empty empty 20 12 0 14 -233017
-66577 0;
#X obj 793 483 cnv 15 258 600 empty empty empty 20 12 0 14 -128992
-66577 0;
#X obj 794 484 cnv 15 256 598 empty empty empty 20 12 0 14 -233017
-66577 0;
#X restore 73 116 pd graphizm;
#X obj 296 799 s tutututu;
#X obj 395 767 tgl 15 0 empty empty empty 17 7 0 10 -159808 -1 -1 0
1;
#X obj 395 782 metro 500;
#X floatatom 455 768 5 0 0 0 - - -, f 5;
#X obj 335 758 tgl 15 0 empty empty empty 17 7 0 10 -257985 -1 -1 1
1;
#X obj 296 773 spigot;
#X obj 335 724 loadbang;
#X msg 335 741 1;
#X obj 296 724 b;
#X msg 455 751 2000;
#X obj 296 707 100.Input/audio_bonk/analyse_son;
#X msg 493 751 200;
#X obj 299 680 hsl 128 15 0 127 0 0 empty empty empty -2 -8 0 10 -262144
-1 -1 0 1;
#X floatatom 80 848 5 0 0 0 - - -, f 5;
#X obj 80 825 r createwindow;
#X obj 93 252 tgl 15 0 empty empty empty 17 7 0 10 -4034 -1 -1 0 1
;
#X obj 78 252 tgl 15 0 empty empty empty 17 7 0 10 -4034 -1 -1 0 1
;
#X obj 78 226 LIVE.window;
#X obj 78 267 100.Fenetre/FrameBuffer.render;
#X obj 78 207 tgl 15 0 empty createwindow createwindow 17 7 0 10 -262144
-1 -13381 0 1;
#X obj 80 706 s oscillo_amp_1;
#X obj 80 738 s oscillo_amp_2;
#X obj 80 770 s oscillo_amp_3;
#X obj 83 691 hsl 128 15 0 1 0 0 empty empty empty -2 -8 0 10 -262144
-1 -1 0 1;
#X obj 83 723 hsl 128 15 0 1 0 0 empty empty empty -2 -8 0 10 -262144
-1 -1 0 1;
#X obj 83 755 hsl 128 15 0 50 0 0 empty empty empty -2 -8 0 10 -262144
-1 -1 0 1;
#X obj 729 61 send resolution;
#X msg 797 -10 1440 900;
#X obj 449 356 s tutututu;
#X obj 708 472 002.3d.Cube/cube;
#X obj 708 574 001.2d.Rayure/rayure;
#X obj 1057 379 001.2d.Spirale/fildefer;
#X obj 1057 465 005.Paysage.Foret/montagnes;
#X obj 1057 540 ./005.Paysage.Foret/paysage;
#X obj 1057 651 ./0001.2d.Bonhomme/bonhomme;
#X obj 309 1108 001.2d.OnScreenDisplay/TXTT;
#X obj 709 369 ./002.3d.Oscillo/oscillo;
#X msg 728 -33 1920 1080;
#X obj 309 1029 tgl 15 0 empty empty empty 17 7 0 10 -262144 -1 -1
0 1;
#X obj 309 1046 ../002.3d.Screencast/screencastt;
#X floatatom 285 250 5 0 0 0 - - -, f 5;
#X obj 303 209 notein;
#X obj 285 230 f;
#X obj 261 213 bng 17 250 50 0 empty empty empty 17 7 0 10 -262144
-1 -1;
#X obj 1104 623 hradio 15 1 0 10 empty empty empty 0 -8 0 10 -262144
-1 -1 9;
#X obj 697 125 100.Fenetre/feedback2.audiocontrol;
#X obj 959 176 vsl 15 128 0 127 0 0 empty empty empty 0 -9 0 10 -262144
-1 -1 0 1;
#X obj 697 110 tgl 15 0 empty empty empty 17 7 0 10 -262144 -1 -1 0
1;
#X obj 959 151 t f;
#X floatatom 916 111 5 0 0 0 - - -, f 5;
#X obj 916 68 loadbang;
#X msg 916 85 85;
#X obj 309 1077 001.2d.OnScreenDisplay/desktopp;
#X obj 716 738 006.Paysage.Urbain.Glissade/glissade.2;
#X floatatom 795 724 5 0 0 0 - - -, f 5;
#X obj 780 690 notein;
#X obj 801 707 f;
#X obj 765 692 bng 15 250 50 0 empty empty empty 17 7 0 10 -262144
-1 -1;
#X obj 730 457 hradio 15 1 0 10 empty empty empty 0 -8 0 10 -262144
-1 -1 0;
#X floatatom 862 574 5 0 0 0 - - -, f 5;
#X obj 805 525 notein;
#X obj 826 542 f;
#X obj 760 559 hradio 15 1 0 10 empty empty empty 0 -8 0 10 -262144
-1 -1 7;
#X floatatom 1231 379 5 0 0 0 - - -, f 5;
#X obj 1174 330 notein;
#X obj 1195 347 f;
#X obj 1129 364 hradio 15 1 0 10 empty empty empty 0 -8 0 10 -262144
-1 -1 8;
#X floatatom 1257 465 5 0 0 0 - - -, f 5;
#X obj 1200 416 notein;
#X obj 1221 433 f;
#X obj 1155 450 hradio 15 1 0 10 empty empty empty 0 -8 0 10 -262144
-1 -1 8;
#X obj 713 670 s GEMHEADglissade;
#X obj 1062 742 ./v3.1_Dodecahedre/dodecahedre;
#X obj 1062 721 r dodecahedre;
#X obj 1062 846 001.2d.Masques/clap;
#X obj 216 183 hradio 15 1 0 2 empty empty empty 0 -8 0 10 -262144
-1 -1 0;
#X obj 843 -594 gemlist;
#X obj 843 -613 until;
#X obj 843 -651 t b a;
#X obj 843 -547 rotateXYZ 0 0 20;
#X floatatom 888 -494 5 0 0 0 - - -, f 5;
#X obj 843 -522 separator;
#X msg 753 -432 draw line;
#X obj 843 -415 rectangle 0.03 0.0015;
#X obj 843 -697 rotateXYZ 0 90 0;
#X obj 934 -738 line;
#X obj 934 -812 tgl 15 0 empty empty empty 17 7 0 10 -262144 -1 -1
0 1;
#X obj 843 -854 gemlist;
#X obj 843 -874 until;
#X obj 843 -915 t b a;
#X floatatom 915 -438 5 0 0 0 - - -, f 5;
#X floatatom 987 -434 5 0 0 0 - - -, f 5;
#X obj 843 -473 translateXYZ 3.5 0 0;
#X obj 988 -659 adc~;
#X obj 1050 -630 tempo;
#X floatatom 879 -743 5 0 0 0 - - -, f 5;
#X msg 934 -757 \$1 12000;
#X obj 843 -1179 gemlist;
#X obj 843 -1198 until;
#X obj 843 -1236 t b a;
#X obj 843 -967 rotateXYZ 0 0 0;
#X floatatom 940 -990 5 0 0 0 - - -, f 5;
#X obj 934 -776 random 180;
#X obj 911 -1023 line;
#X obj 911 -1137 tgl 15 0 empty empty empty 17 7 0 10 -262144 -1 -1
0 1;
#X obj 911 -1120 metro 3000;
#X obj 911 -1101 random 180;
#X obj 911 -1065 pack f f;
#X msg 911 -1042 \$1 \$2;
#X obj 1055 -1047 bng 15 250 50 0 empty empty empty 17 7 0 10 -262144
-1 -1;
#X floatatom 1080 -1113 5 0 0 0 - - -, f 5;
#X obj 1039 -1182 + 300;
#X obj 843 -1332 r tourbillon;
#X obj 843 -1266 translateXYZ 0 0 -4;
#X floatatom 991 -1273 5 0 0 0 - - -, f 5;
#X msg 843 -1217 10;
#X obj 1166 249 / 1000;
#X obj 843 -353 translateXYZ 0 -1 0;
#X floatatom 929 -381 5 0 0 0 - - -, f 5;
#X floatatom 569 -183 0 0 0 0 - - -;
#X obj 569 -78 noteout;
#X obj 569 -104 makenote 64 250;
#X obj 569 -157 metro 500;
#X msg 569 -210 1;
#X msg 601 -210 0;
#X msg 569 -130 60;
#X obj 957 -14 text3d;
#X obj 957 -65 loadbang;
#X msg 996 -31 30, f 4;
#X obj 920 -148 gemhead;
#X obj 782 -150 gemwin;
#X msg 783 -170 color 1 1 1;
#X obj 764 -71 spigot;
#X obj 843 -1294 spigot;
#X obj 920 -31 t a;
#X obj 1176 222 line;
#X obj 1311 166 metro 800;
#X floatatom 1038 6 5 0 0 0 - - -, f 5;
#X obj 920 -122 translateXYZ 0 2.5 0;
#X msg 957 -48 text <3 \, font /usr/share/fonts/truetype/f500/f500.ttf
;
#X floatatom 1023 -202 5 0 0 0 - - -, f 5;
#X floatatom 964 -213 5 0 0 0 - - -, f 5;
#X obj 920 -93 colorRGB 0 0 0 1;
#X msg 814 12 1680 1050;
#X obj 934 -795 metro 6000;
#X obj 1039 -1205 random 5000;
#X msg 843 -632 12;
#X msg 842 -895 5;
#X obj 843 -326 colorRGB 1 1 1 1;
#X obj 843 -238 circle 0.1;
#X obj 843 -291 rotateXYZ 0 45 0;
#X msg 734 -255 draw default;
#X obj 251 -213 _Utiles/poly_smooth;
#X msg 216 163 0;
#X obj 216 143 loadbang;
#X msg 815 35 1280 1024;
#X obj 449 267 taptempo;
#X obj 449 294 bpmgen;
#X obj 449 316 QuartTemps;
#X obj 417 338 bng 15 250 50 0 empty empty empty 17 7 0 10 -262144
-1 -1;
#X obj 1176 183 f;
#X obj 709 352 toggle2;
#X obj 1357 45 mp3play~;
#X obj 581 -657 dac~;
#X obj 593 -696 *~ 0.1;
#X obj 595 -739 osc~ 440;
#X floatatom 632 -717 5 0 0 0 - - -, f 5;
#X obj 203 -756 osc~ 440;
#X obj 203 -697 dac~;
#X text 282 -754 <-- 440 Hz. sine wave at full blast;
#X obj 203 -727 *~ 0.05;
#X text 127 -670 Audio computation can be turned on and off by sending
messages to the global "pd" object as follows:;
#X msg 193 -626 \; pd dsp 1;
#X msg 297 -626 \; pd dsp 0;
#X text 282 -726 <-- reduce amplitude to 0.05;
#X text 255 -697 <----- send to the audio output device;
#X obj 1057 448 toggle2;
#X obj 1311 145 toggle2;
#X obj 920 -174 toggle2;
#X obj 713 649 toggle2;
#X obj 1062 829 toggle2;
#X obj 1061 621 toggle2;
#X obj 1057 523 toggle2;
#X obj 1057 362 toggle2;
#X obj 708 557 toggle2;
#X obj 708 455 toggle2;
#X obj 943 -1295 toggle2;
#X obj 1269 714 toggle2;
#X obj 564 20 loadbang;
#X msg 564 37 0;
#X obj 564 74 toggle2;
#X obj 1062 697 toggle2;
#X obj 666 -656 notein;
#X floatatom 668 -598 5 0 0 0 - - -, f 5;
#X floatatom 682 -618 5 0 0 0 - - -, f 5;
#X floatatom 717 -628 5 0 0 0 - - -, f 5;
#X obj 1397 168 t b;
#X obj 1397 144 electribe_note;
#X obj 1442 88 notein;
#X obj 1463 105 f;
#X obj 1397 122 hradio 15 1 0 10 empty empty empty 0 -8 0 10 -262144
-1 -1 0;
#X msg 1176 202 0 \, \$1 200;
#X obj 709 792 toggle2;
#X obj 377 472 ./001.2d.HH/screen_reep.1;
#X connect 4 0 2 0;
#X connect 5 0 3 0;
#X connect 6 0 1 0;
#X connect 7 0 8 0;
#X connect 7 0 9 0;
#X connect 8 0 1 0;
#X connect 9 0 3 0;
#X connect 9 0 2 0;
#X connect 10 0 6 0;
#X connect 12 0 219 1;
#X connect 12 0 175 0;
#X connect 14 0 12 0;
#X connect 15 0 14 0;
#X connect 16 0 19 0;
#X connect 17 0 18 0;
#X connect 18 0 16 0;
#X connect 20 0 22 0;
#X connect 22 0 21 0;
#X connect 23 0 24 0;
#X connect 27 0 28 0;
#X connect 28 0 31 0;
#X connect 29 0 35 0;
#X connect 30 0 35 0;
#X connect 31 0 30 0;
#X connect 31 0 32 0;
#X connect 32 0 29 0;
#X connect 33 0 26 1;
#X connect 40 0 111 0;
#X connect 41 0 111 1;
#X connect 42 0 111 2;
#X connect 43 0 94 0;
#X connect 44 0 95 1;
#X connect 46 0 47 1;
#X connect 47 0 117 0;
#X connect 48 0 47 0;
#X connect 49 0 133 1;
#X connect 50 0 51 1;
#X connect 51 0 49 0;
#X connect 52 0 51 0;
#X connect 53 0 54 1;
#X connect 54 0 103 0;
#X connect 55 0 54 0;
#X connect 57 0 56 0;
#X connect 60 0 61 0;
#X connect 61 0 59 0;
#X connect 62 0 61 1;
#X connect 63 0 64 1;
#X connect 64 0 59 0;
#X connect 65 0 66 0;
#X connect 66 0 63 0;
#X connect 67 0 64 0;
#X connect 68 0 62 0;
#X connect 69 0 67 0;
#X connect 70 0 62 0;
#X connect 71 0 69 0;
#X connect 73 0 72 0;
#X connect 74 0 77 1;
#X connect 75 0 77 0;
#X connect 78 0 76 0;
#X connect 82 0 79 0;
#X connect 83 0 80 0;
#X connect 84 0 81 0;
#X connect 86 0 85 0;
#X connect 96 0 85 0;
#X connect 97 0 98 0;
#X connect 99 0 77 3;
#X connect 100 0 101 1;
#X connect 101 0 99 0;
#X connect 102 0 101 0;
#X connect 103 0 93 1;
#X connect 104 0 37 0;
#X connect 104 1 107 0;
#X connect 106 0 104 0;
#X connect 107 0 105 0;
#X connect 108 0 104 1;
#X connect 109 0 110 0;
#X connect 110 0 108 0;
#X connect 113 0 112 0;
#X connect 114 0 115 1;
#X connect 115 0 113 0;
#X connect 116 0 115 0;
#X connect 117 0 45 0;
#X connect 117 0 88 1;
#X connect 119 0 120 1;
#X connect 120 0 121 0;
#X connect 121 0 118 0;
#X connect 121 0 89 1;
#X connect 123 0 124 1;
#X connect 124 0 125 0;
#X connect 125 0 122 0;
#X connect 125 0 90 1;
#X connect 127 0 128 1;
#X connect 128 0 129 0;
#X connect 129 0 126 0;
#X connect 129 0 91 1;
#X connect 132 0 131 0;
#X connect 134 0 77 2;
#X connect 135 0 138 0;
#X connect 136 0 135 0;
#X connect 137 0 205 0;
#X connect 137 1 135 1;
#X connect 138 0 140 0;
#X connect 139 0 151 1;
#X connect 140 0 151 0;
#X connect 141 0 142 0;
#X connect 142 0 176 0;
#X connect 143 0 137 0;
#X connect 144 0 143 3;
#X connect 144 0 143 2;
#X connect 145 0 203 0;
#X connect 146 0 143 0;
#X connect 147 0 146 0;
#X connect 148 0 206 0;
#X connect 148 1 146 1;
#X connect 149 0 142 1;
#X connect 150 0 142 2;
#X connect 151 0 142 0;
#X connect 154 0 143 1;
#X connect 155 0 144 0;
#X connect 156 0 159 0;
#X connect 157 0 156 0;
#X connect 158 0 174 0;
#X connect 158 1 156 1;
#X connect 159 0 148 0;
#X connect 160 0 159 2;
#X connect 161 0 155 0;
#X connect 162 0 159 2;
#X connect 163 0 164 0;
#X connect 164 0 165 0;
#X connect 164 0 168 0;
#X connect 164 0 204 0;
#X connect 165 0 166 0;
#X connect 166 0 167 0;
#X connect 167 0 162 0;
#X connect 170 0 164 1;
#X connect 170 0 169 0;
#X connect 171 0 192 0;
#X connect 172 0 158 0;
#X connect 173 0 172 3;
#X connect 174 0 157 0;
#X connect 175 0 13 0;
#X connect 176 0 207 0;
#X connect 177 0 176 2;
#X connect 178 0 181 0;
#X connect 180 0 179 0;
#X connect 180 1 179 1;
#X connect 181 0 184 0;
#X connect 182 0 178 0;
#X connect 183 0 178 0;
#X connect 184 0 180 0;
#X connect 186 0 198 0;
#X connect 186 0 187 0;
#X connect 187 0 185 1;
#X connect 188 0 197 0;
#X connect 190 0 189 0;
#X connect 192 0 172 0;
#X connect 193 0 185 0;
#X connect 194 0 175 0;
#X connect 195 0 219 0;
#X connect 196 0 185 1;
#X connect 197 0 201 0;
#X connect 198 0 185 0;
#X connect 199 0 197 2;
#X connect 200 0 197 1;
#X connect 201 0 193 0;
#X connect 202 0 85 0;
#X connect 203 0 161 0;
#X connect 204 0 170 0;
#X connect 205 0 136 0;
#X connect 206 0 147 0;
#X connect 207 0 209 0;
#X connect 209 0 208 0;
#X connect 210 0 208 0;
#X connect 212 0 134 0;
#X connect 213 0 212 0;
#X connect 214 0 85 0;
#X connect 215 0 216 0;
#X connect 216 0 217 0;
#X connect 217 0 218 0;
#X connect 217 0 87 0;
#X connect 219 0 260 0;
#X connect 220 0 95 0;
#X connect 224 0 223 0;
#X connect 225 0 223 1;
#X connect 226 0 229 0;
#X connect 235 0 91 0;
#X connect 236 0 195 0;
#X connect 237 0 188 0;
#X connect 238 0 130 0;
#X connect 239 0 133 0;
#X connect 240 0 93 0;
#X connect 241 0 92 0;
#X connect 242 0 90 0;
#X connect 243 0 89 0;
#X connect 244 0 88 0;
#X connect 245 0 192 1;
#X connect 245 0 163 0;
#X connect 245 0 145 0;
#X connect 246 0 131 1;
#X connect 247 0 248 0;
#X connect 248 0 249 0;
#X connect 249 0 23 0;
#X connect 250 0 246 0;
#X connect 251 0 252 0;
#X connect 251 1 253 0;
#X connect 251 2 254 0;
#X connect 255 0 219 0;
#X connect 256 0 255 0;
#X connect 257 0 258 1;
#X connect 258 0 259 0;
#X connect 259 0 256 0;
#X connect 260 0 194 0;
#X connect 261 0 26 0;
