#N canvas -56 155 1740 667 10;
#X declare -path ./100.Abstractions;
#X declare -path /home/rep/LIVE/Abstractions;
#X declare -lib zexy;
#X declare -path ./100.Effets.glsl;
#X declare -path ../100.Abstractions/;
#X obj 73 73 declare -path ./100.Abstractions;
#X obj 1012 602 tgl 15 0 empty empty empty 17 7 0 10 -262144 -1 -1
0 1;
#X obj 537 292 s SCALEFB;
#X obj 408 292 s XFB;
#X obj 473 292 s YFB;
#X obj 408 272 nbx 6 14 -1e+37 1e+37 0 0 empty empty empty 0 -8 0 10
-262144 -1 -1 0 256;
#X obj 473 272 nbx 6 14 -1e+37 1e+37 0 0 empty empty empty 0 -8 0 10
-262144 -1 -1 0 256;
#X obj 537 272 nbx 6 14 -100 100 0 0 empty empty empty 0 -8 0 10 -262144
-1 -1 0 256;
#X obj 621 241 bng 20 250 50 0 empty empty empty 17 7 0 10 -4034 -1
-1;
#X msg 634 275 1;
#X msg 605 275 0;
#X msg 537 251 0.59;
#X obj 222 568 cnv 15 150 25 empty empty empty 20 12 0 14 -257985 -66577
0;
#X obj 231 574 hsl 128 15 0 1 0 0 empty empty empty -2 -8 0 10 -262144
-1 -1 2540 1;
#X obj 228 615 s blur;
#X msg 228 552 0.2;
#X obj 228 533 loadbang;
#X obj 228 595 / 100;
#X obj 250 431 hradio 15 1 0 2 empty empty empty 0 -8 0 10 -257985
-1 -1 0;
#X obj 250 397 loadbang;
#X msg 250 414 0;
#X obj 250 446 s FLOU2;
#X obj 407 187 loadbang;
#X obj 407 228 s to_fb;
#X msg 407 207 dimen 960 540 \, rectangle 0;
#N canvas 1014 438 450 300 fps 0;
#X obj 74 99 realtime;
#X obj 74 79 t b b;
#X obj 74 161 /;
#X msg 74 141 1000 \$1;
#X obj 74 226 outlet;
#X obj 74 183 + 0.5;
#X obj 74 205 i;
#X obj 76 28 inlet;
#X obj 74 59 gemhead;
#X connect 0 0 3 0;
#X connect 1 0 0 0;
#X connect 1 1 0 1;
#X connect 2 0 5 0;
#X connect 3 0 2 0;
#X connect 5 0 6 0;
#X connect 6 0 4 0;
#X connect 7 0 8 0;
#X connect 8 0 1 0;
#X restore 590 97 pd fps;
#X floatatom 590 114 5 0 0 1 fps - -, f 5;
#X obj 1012 564 loadbang;
#X msg 1012 583 0;
#X obj 508 77 loadbang;
#X msg 508 97 \; pd dsp 1;
#X obj 1012 619 ./001.2d.Masques/cache;
#X obj 1329 261 key;
#X obj 1329 283 == 117;
#X msg 1329 373 0;
#X msg 1335 328 1;
#X obj 1329 305 sel 1, f 6;
#X obj 1329 350 delay 50;
#X obj 1162 599 bng 15 250 50 0 empty empty empty 17 7 0 10 -262144
-1 -1;
#X obj 590 82 tgl 15 0 empty empty empty 17 7 0 10 -262144 -1 -1 0
1;
#N canvas 398 154 1060 745 OLD 0;
#X obj 523 86 midiin;
#X obj 506 254 print;
#X obj 537 206 spigot;
#X obj 577 155 tgl 15 0 empty empty empty 17 7 0 10 -262144 -1 -1 0
1;
#X obj 385 208 spigot;
#X obj 416 193 tgl 15 0 empty empty empty 17 7 0 10 -262144 -1 -1 0
1;
#X obj 385 124 notein;
#X obj 385 225 print number;
#X obj 424 158 spigot;
#X obj 455 143 tgl 15 0 empty empty empty 17 7 0 10 -262144 -1 -1 0
1;
#X obj 424 175 print channel;
#X floatatom 478 141 5 0 0 0 - - -, f 5;
#X floatatom 300 141 5 0 0 0 - - -, f 5;
#X obj 303 222 s linestop;
#X obj 303 192 sel 1;
#X obj 343 175 == 2;
#X floatatom 368 89 5 0 0 0 - - -, f 5;
#X obj 447 349 notein;
#X obj 447 485 s linestop;
#X obj 447 435 sel 1;
#X obj 447 410 == 2;
#X obj 447 461 spigot;
#X obj 531 446 tgl 15 0 empty empty empty 17 7 0 10 -258113 -1 -1 0
1;
#X obj 493 397 nbx 6 14 -1e+37 1e+37 0 0 empty empty empty 0 -8 0 10
-260097 -1 -1 0 256;
#N canvas 91 271 521 568 valentine 0;
#X obj 73 479 GEMglPolygonMode;
#X obj 128 445 GLdefine GL_FRONT_AND_BACK;
#X obj 254 428 loadbang;
#X obj 182 414 bng 15 250 50 0 empty empty empty 17 7 0 10 -257985
-1 -1;
#X obj 182 462 GLdefine GL_FILL;
#X obj 73 128 colorRGB 1 1 1 1;
#X msg 259 365 10;
#X msg 87 294 justify left base;
#X obj 73 18 translateXYZ -4 3 0;
#X floatatom 116 -7 5 0 0 0 - - -, f 5;
#X obj 231 255 loadbang;
#X msg 100 311 font /usr/share/fonts/truetype/f500/f500.ttf;
#X obj 231 277 t a;
#X obj 304 262 bng 15 250 50 0 empty empty empty 17 7 0 10 -257985
-1 -1;
#X obj 259 348 loadbang;
#X floatatom 297 392 5 0 0 0 - - -, f 5;
#X floatatom 159 -8 5 0 0 0 - - -, f 5;
#X obj 448 170 bng 15 250 50 0 empty empty empty 17 7 0 10 -257985
-1 -1;
#X obj 73 -97 inlet;
#X obj 154 -97 inlet;
#X obj 209 -97 inlet;
#X floatatom 350 113 5 0 0 0 - - -, f 5;
#X floatatom 148 52 5 0 0 0 - - -, f 5;
#X obj 73 364 text3d drasah;
#X msg 115 328 text tetalab;
#X symbolatom 241 -30 10 0 0 0 - - -, f 10;
#X floatatom 241 -11 5 0 0 0 - - -, f 5;
#X obj 73 -74 gemhead a;
#X obj 73 74 rotateXYZ 0 0 0;
#X obj 93 229 GEMglPolygonMode;
#X obj 147 187 GLdefine GL_FRONT_AND_BACK;
#X obj 273 170 loadbang;
#X obj 202 165 bng 15 250 50 0 empty empty empty 17 7 0 10 -257985
-1 -1;
#X obj 202 204 GLdefine GL_FILL;
#X connect 1 0 0 1;
#X connect 2 0 1 0;
#X connect 2 0 4 0;
#X connect 3 0 1 0;
#X connect 3 0 4 0;
#X connect 4 0 0 2;
#X connect 5 0 23 0;
#X connect 6 0 23 1;
#X connect 7 0 23 0;
#X connect 8 0 28 0;
#X connect 9 0 8 1;
#X connect 10 0 12 0;
#X connect 11 0 23 0;
#X connect 12 0 11 0;
#X connect 12 0 7 0;
#X connect 12 0 24 0;
#X connect 13 0 12 0;
#X connect 14 0 6 0;
#X connect 15 0 23 1;
#X connect 16 0 8 2;
#X connect 17 0 13 0;
#X connect 17 0 3 0;
#X connect 18 0 27 0;
#X connect 19 0 9 0;
#X connect 20 0 16 0;
#X connect 22 0 28 2;
#X connect 24 0 23 0;
#X connect 25 0 26 0;
#X connect 26 0 8 3;
#X connect 28 0 5 0;
#X connect 30 0 29 1;
#X connect 31 0 30 0;
#X connect 31 0 33 0;
#X connect 32 0 30 0;
#X connect 32 0 33 0;
#X connect 33 0 29 2;
#X restore 300 530 pd valentine;
#X obj 300 509 tgl 15 0 empty empty empty 17 7 0 10 -262144 -1 -1 0
1;
#X floatatom 340 510 5 0 0 0 - - -, f 5;
#X floatatom 381 510 5 0 0 0 - - -, f 5;
#X obj 472 376 hradio 15 1 0 8 empty empty empty 0 -8 0 10 -262144
-1 -1 0;
#X text 370 37 warning: MIDI timing FIFO overflowed;
#X obj 313 685 shell;
#X obj 315 623 playlist all 400 300 {sans 15 normal} #457782 yellow
black red;
#X msg 315 595 location /home/rep/Background;
#X msg 315 662 hsetroot -cover \$1;
#X msg 299 376 3 2;
#X obj 305 399 *;
#X floatatom 307 426 5 0 0 0 - - -, f 5;
#X obj 324 274 netreceive 12345;
#X obj 323 299 print;
#X obj 300 460 loadbang;
#X msg 300 482 0;
#X msg 827 92 while : \; do dmesg \; sleep 0.2 \; done;
#X msg 1030 91 listen 3000;
#X obj 1030 137 netreceive -u;
#X msg 1038 112 listen 0;
#X floatatom 1000 188 5 0 0 0 - - -, f 5;
#X obj 1068 204 send;
#X obj 956 154 print;
#X obj 1059 167 unpack s f;
#X obj 1356 115 notein;
#X floatatom 1356 166 5 0 0 0 - - -, f 5;
#X floatatom 1375 150 5 0 0 0 - - -, f 5;
#X floatatom 1395 134 5 0 0 0 - - -, f 5;
#X connect 0 0 2 0;
#X connect 2 0 1 0;
#X connect 3 0 2 1;
#X connect 4 0 7 0;
#X connect 5 0 4 1;
#X connect 6 0 4 0;
#X connect 6 0 12 0;
#X connect 6 0 15 0;
#X connect 6 2 8 0;
#X connect 6 2 11 0;
#X connect 8 0 10 0;
#X connect 9 0 8 1;
#X connect 15 0 14 0;
#X connect 16 0 15 1;
#X connect 17 0 20 0;
#X connect 19 0 21 0;
#X connect 20 0 19 0;
#X connect 21 0 18 0;
#X connect 22 0 21 1;
#X connect 25 0 24 0;
#X connect 26 0 24 1;
#X connect 27 0 24 2;
#X connect 28 0 20 1;
#X connect 28 0 23 0;
#X connect 31 0 33 0;
#X connect 32 0 31 0;
#X connect 33 0 30 0;
#X connect 34 0 35 0;
#X connect 35 0 36 0;
#X connect 37 0 38 0;
#X connect 39 0 40 0;
#X connect 40 0 25 0;
#X connect 42 0 43 0;
#X connect 43 0 45 0;
#X connect 43 0 47 0;
#X connect 43 0 48 0;
#X connect 44 0 43 0;
#X connect 48 0 46 1;
#X connect 48 1 46 0;
#X connect 49 0 50 0;
#X connect 49 1 51 0;
#X connect 49 2 52 0;
#X restore 638 937 pd OLD;
#X obj 1335 396 t a;
#N canvas 454 215 852 470 pad_midi 0;
#X obj 57 43 bng 15 250 50 0 empty empty empty 17 7 0 10 -262144 -1
-1;
#X obj 57 93 bng 15 250 50 0 empty empty empty 17 7 0 10 -262144 -1
-1;
#X obj 56 153 bng 15 250 50 0 empty empty empty 17 7 0 10 -262144 -1
-1;
#X obj 56 203 bng 15 250 50 0 empty empty empty 17 7 0 10 -262144 -1
-1;
#X obj 447 43 bng 15 250 50 0 empty empty empty 17 7 0 10 -262144 -1
-1;
#X obj 447 93 bng 15 250 50 0 empty empty empty 17 7 0 10 -262144 -1
-1;
#X obj 446 153 bng 15 250 50 0 empty empty empty 17 7 0 10 -262144
-1 -1;
#X obj 446 203 bng 15 250 50 0 empty empty empty 17 7 0 10 -262144
-1 -1;
#X floatatom 57 277 5 0 0 0 - - -, f 5;
#X floatatom 57 327 5 0 0 0 - - -, f 5;
#X floatatom 57 377 5 0 0 0 - - -, f 5;
#X floatatom 57 427 5 0 0 0 - - -, f 5;
#X obj 57 254 /home/rep/LIVE/2015_VJSet/100.Input/lpd8/lpd8_ctl 1;
#X obj 57 304 /home/rep/LIVE/2015_VJSet/100.Input/lpd8/lpd8_ctl 2;
#X obj 57 354 /home/rep/LIVE/2015_VJSet/100.Input/lpd8/lpd8_ctl 3;
#X obj 57 404 /home/rep/LIVE/2015_VJSet/100.Input/lpd8/lpd8_ctl 4;
#X obj 57 22 /home/rep/LIVE/2015_VJSet/100.Input/lpd8/lpd8_pad 36;
#X obj 57 72 /home/rep/LIVE/2015_VJSet/100.Input/lpd8/lpd8_pad 37;
#X obj 56 132 /home/rep/LIVE/2015_VJSet/100.Input/lpd8/lpd8_pad 38
;
#X obj 56 182 /home/rep/LIVE/2015_VJSet/100.Input/lpd8/lpd8_pad 39
;
#X obj 447 22 /home/rep/LIVE/2015_VJSet/100.Input/lpd8/lpd8_pad 40
;
#X obj 447 72 /home/rep/LIVE/2015_VJSet/100.Input/lpd8/lpd8_pad 41
;
#X obj 446 132 /home/rep/LIVE/2015_VJSet/100.Input/lpd8/lpd8_pad 42
;
#X obj 446 182 /home/rep/LIVE/2015_VJSet/100.Input/lpd8/lpd8_pad 43
;
#X connect 12 0 8 0;
#X connect 13 0 9 0;
#X connect 14 0 10 0;
#X connect 15 0 11 0;
#X connect 16 0 0 0;
#X connect 17 0 1 0;
#X connect 18 0 2 0;
#X connect 19 0 3 0;
#X connect 20 0 4 0;
#X connect 21 0 5 0;
#X connect 22 0 6 0;
#X connect 23 0 7 0;
#X restore 73 138 pd pad_midi;
#X obj 1007 382 100.Fenetre/feedback2;
#X obj 73 52 declare -path /home/rep/LIVE/Abstractions;
#X obj 79 316 sub_audio;
#X obj 1326 645 tgl 15 0 empty empty empty 17 7 0 10 -262144 -1 -1
0 1;
#X obj 1429 645 bng 15 250 50 0 empty empty empty 17 7 0 10 -262144
-1 -1;
#X obj 1525 645 bng 15 250 50 0 empty empty empty 17 7 0 10 -262144
-1 -1;
#X obj 1326 676 tgl 15 0 empty empty empty 17 7 0 10 -262144 -1 -1
0 1;
#X obj 891 53 hradio 15 1 0 2 empty empty empty 0 -8 0 10 -257985 -1
-1 0;
#X floatatom 856 157 5 0 0 0 - - -, f 5;
#X obj 799 108 notein;
#X obj 820 125 f;
#X obj 782 109 bng 17 250 50 0 empty empty empty 17 7 0 10 -262144
-1 -1;
#X floatatom 837 640 5 0 0 0 - - -, f 5;
#X obj 825 606 notein;
#X obj 846 623 f;
#X obj 808 606 bng 17 250 50 0 empty empty empty 17 7 0 10 -262144
-1 -1;
#X obj 883 506 notein;
#X obj 904 523 f;
#X obj 866 506 bng 17 250 50 0 empty empty empty 17 7 0 10 -262144
-1 -1;
#X obj 1326 561 s cubeReset;
#X obj 1326 540 bng 15 250 50 0 empty empty empty 17 7 0 10 -204786
-1 -1;
#N canvas 0 86 1600 814 graphizm 0;
#X obj 647 101 tgl 15 0 empty empty empty 17 7 0 10 -257985 -1 -1 0
1;
#X obj 662 101 tgl 15 0 empty empty empty 17 7 0 10 -1 -1 -1 0 1;
#X obj 677 101 tgl 15 0 empty empty empty 17 7 0 10 -1 -1 -1 0 1;
#X obj 692 101 tgl 15 0 empty empty empty 17 7 0 10 -1 -1 -1 0 1;
#X obj 647 87 tgl 15 0 empty empty empty 17 7 0 10 -257985 -1 -1 0
1;
#X obj 662 87 tgl 15 0 empty empty empty 17 7 0 10 -257985 -1 -1 0
1;
#X obj 677 87 tgl 15 0 empty empty empty 17 7 0 10 -257985 -1 -1 0
1;
#X obj 692 87 tgl 15 0 empty empty empty 17 7 0 10 -257985 -1 -1 0
1;
#X obj 647 72 tgl 15 0 empty empty empty 17 7 0 10 -257985 -1 -1 0
1;
#X obj 662 72 tgl 15 0 empty empty empty 17 7 0 10 -1 -1 -1 0 1;
#X obj 677 72 tgl 15 0 empty empty empty 17 7 0 10 -257985 -1 -1 0
1;
#X obj 692 72 tgl 15 0 empty empty empty 17 7 0 10 -1 -1 -1 0 1;
#X obj 647 58 tgl 15 0 empty empty empty 17 7 0 10 -257985 -1 -1 0
1;
#X obj 662 58 tgl 15 0 empty empty empty 17 7 0 10 -257985 -1 -1 0
1;
#X obj 677 58 tgl 15 0 empty empty empty 17 7 0 10 -257985 -1 -1 0
1;
#X obj 692 58 tgl 15 0 empty empty empty 17 7 0 10 -257985 -1 -1 0
1;
#X obj 707 101 tgl 15 0 empty empty empty 17 7 0 10 -257985 -1 -1 0
1;
#X obj 707 87 tgl 15 0 empty empty empty 17 7 0 10 -257985 -1 -1 0
1;
#X obj 707 72 tgl 15 0 empty empty empty 17 7 0 10 -257985 -1 -1 0
1;
#X obj 707 58 tgl 15 0 empty empty empty 17 7 0 10 -257985 -1 -1 0
1;
#X obj 647 116 tgl 15 0 empty empty empty 17 7 0 10 -257985 -1 -1 0
1;
#X obj 662 116 tgl 15 0 empty empty empty 17 7 0 10 -257985 -1 -1 0
1;
#X obj 677 116 tgl 15 0 empty empty empty 17 7 0 10 -257985 -1 -1 0
1;
#X obj 692 116 tgl 15 0 empty empty empty 17 7 0 10 -257985 -1 -1 0
1;
#X obj 707 116 tgl 15 0 empty empty empty 17 7 0 10 -257985 -1 -1 0
1;
#X obj 647 43 tgl 15 0 empty empty empty 17 7 0 10 -257985 -1 -1 0
1;
#X obj 707 43 tgl 15 0 empty empty empty 17 7 0 10 -257985 -1 -1 0
1;
#X obj 632 131 tgl 15 0 empty empty empty 17 7 0 10 -257985 -1 -1 0
1;
#X obj 647 131 tgl 15 0 empty empty empty 17 7 0 10 -257985 -1 -1 0
1;
#X obj 662 131 tgl 15 0 empty empty empty 17 7 0 10 -257985 -1 -1 0
1;
#X obj 677 131 tgl 15 0 empty empty empty 17 7 0 10 -257985 -1 -1 0
1;
#X obj 692 131 tgl 15 0 empty empty empty 17 7 0 10 -257985 -1 -1 0
1;
#X obj 707 131 tgl 15 0 empty empty empty 17 7 0 10 -257985 -1 -1 0
1;
#X obj 722 131 tgl 15 0 empty empty empty 17 7 0 10 -257985 -1 -1 0
1;
#X obj 632 146 tgl 15 0 empty empty empty 17 7 0 10 -257985 -1 -1 0
1;
#X obj 647 146 tgl 15 0 empty empty empty 17 7 0 10 -257985 -1 -1 0
1;
#X obj 662 146 tgl 15 0 empty empty empty 17 7 0 10 -257985 -1 -1 0
1;
#X obj 677 146 tgl 15 0 empty empty empty 17 7 0 10 -257985 -1 -1 0
1;
#X obj 692 146 tgl 15 0 empty empty empty 17 7 0 10 -257985 -1 -1 0
1;
#X obj 707 146 tgl 15 0 empty empty empty 17 7 0 10 -257985 -1 -1 0
1;
#X obj 722 146 tgl 15 0 empty empty empty 17 7 0 10 -257985 -1 -1 0
1;
#X obj 632 161 tgl 15 0 empty empty empty 17 7 0 10 -257985 -1 -1 0
1;
#X obj 647 161 tgl 15 0 empty empty empty 17 7 0 10 -257985 -1 -1 0
1;
#X obj 662 161 tgl 15 0 empty empty empty 17 7 0 10 -257985 -1 -1 0
1;
#X obj 692 161 tgl 15 0 empty empty empty 17 7 0 10 -257985 -1 -1 0
1;
#X obj 707 161 tgl 15 0 empty empty empty 17 7 0 10 -257985 -1 -1 0
1;
#X obj 722 161 tgl 15 0 empty empty empty 17 7 0 10 -257985 -1 -1 0
1;
#X obj 647 176 tgl 15 0 empty empty empty 17 7 0 10 -257985 -1 -1 0
1;
#X obj 662 176 tgl 15 0 empty empty empty 17 7 0 10 -257985 -1 -1 0
1;
#X obj 692 176 tgl 15 0 empty empty empty 17 7 0 10 -257985 -1 -1 0
1;
#X obj 707 176 tgl 15 0 empty empty empty 17 7 0 10 -257985 -1 -1 0
1;
#X obj 647 191 tgl 15 0 empty empty empty 17 7 0 10 -257985 -1 -1 0
1;
#X obj 662 191 tgl 15 0 empty empty empty 17 7 0 10 -257985 -1 -1 0
1;
#X obj 677 191 tgl 15 0 empty empty empty 17 7 0 10 -257985 -1 -1 0
1;
#X obj 692 191 tgl 15 0 empty empty empty 17 7 0 10 -257985 -1 -1 0
1;
#X obj 707 191 tgl 15 0 empty empty empty 17 7 0 10 -257985 -1 -1 0
1;
#X obj 647 206 tgl 15 0 empty empty empty 17 7 0 10 -257985 -1 -1 0
1;
#X obj 707 206 tgl 15 0 empty empty empty 17 7 0 10 -257985 -1 -1 0
1;
#X obj 647 221 tgl 15 0 empty empty empty 17 7 0 10 -257985 -1 -1 0
1;
#X obj 707 221 tgl 15 0 empty empty empty 17 7 0 10 -257985 -1 -1 0
1;
#X obj 662 206 tgl 15 0 empty empty empty 17 7 0 10 -257985 -1 -1 0
1;
#X obj 692 206 tgl 15 0 empty empty empty 17 7 0 10 -257985 -1 -1 0
1;
#X obj 662 221 tgl 15 0 empty empty empty 17 7 0 10 -257985 -1 -1 0
1;
#X obj 692 221 tgl 15 0 empty empty empty 17 7 0 10 -257985 -1 -1 0
1;
#X obj 677 161 tgl 15 0 empty empty empty 17 7 0 10 -257985 -1 -1 0
1;
#X obj 677 176 tgl 15 0 empty empty empty 17 7 0 10 -257985 -1 -1 0
1;
#X obj 384 189 tgl 10 0 empty empty empty 17 7 0 10 -4034 -1 -1 0 1
;
#X obj 404 189 tgl 10 0 empty empty empty 17 7 0 10 -4034 -1 -1 0 1
;
#X obj 394 189 tgl 10 0 empty empty empty 17 7 0 10 -1 -1 -1 0 1;
#X obj 384 199 tgl 10 0 empty empty empty 17 7 0 10 -1 -1 -1 0 1;
#X obj 404 199 tgl 10 0 empty empty empty 17 7 0 10 -1 -1 -1 0 1;
#X obj 394 199 tgl 10 0 empty empty empty 17 7 0 10 -1 -1 -1 0 1;
#X obj 384 179 tgl 10 0 empty empty empty 17 7 0 10 -1 -1 -1 0 1;
#X obj 404 179 tgl 10 0 empty empty empty 17 7 0 10 -1 -1 -1 0 1;
#X obj 394 179 tgl 10 0 empty empty empty 17 7 0 10 -1 -1 -1 0 1;
#X obj 394 214 tgl 10 0 empty empty empty 17 7 0 10 -1 -1 -1 0 1;
#X obj 384 214 tgl 10 0 empty empty empty 17 7 0 10 -1 -1 -1 0 1;
#X obj 394 224 tgl 10 0 empty empty empty 17 7 0 10 -1 -1 -1 0 1;
#X obj 384 224 tgl 10 0 empty empty empty 17 7 0 10 -1 -1 -1 0 1;
#X obj 394 234 tgl 10 0 empty empty empty 17 7 0 10 -1 -1 -1 0 1;
#X obj 384 234 tgl 10 0 empty empty empty 17 7 0 10 -1 -1 -1 0 1;
#X obj 394 244 tgl 10 0 empty empty empty 17 7 0 10 -1 -1 -1 0 1;
#X obj 384 244 tgl 10 0 empty empty empty 17 7 0 10 -1 -1 -1 0 1;
#X obj 404 214 tgl 10 0 empty empty empty 17 7 0 10 -1 -1 -1 0 1;
#X obj 404 224 tgl 10 0 empty empty empty 17 7 0 10 -1 -1 -1 0 1;
#X obj 404 234 tgl 10 0 empty empty empty 17 7 0 10 -1 -1 -1 0 1;
#X obj 404 244 tgl 10 0 empty empty empty 17 7 0 10 -1 -1 -1 0 1;
#X obj 359 214 tgl 10 0 empty empty empty 17 7 0 10 -1 -1 -1 0 1;
#X obj 349 214 tgl 10 0 empty empty empty 17 7 0 10 -1 -1 -1 0 1;
#X obj 369 214 tgl 10 0 empty empty empty 17 7 0 10 -1 -1 -1 0 1;
#X obj 359 234 tgl 10 0 empty empty empty 17 7 0 10 -1 -1 -1 0 1;
#X obj 369 234 tgl 10 0 empty empty empty 17 7 0 10 -1 -1 -1 0 1;
#X obj 384 259 tgl 10 0 empty empty empty 17 7 0 10 -1 -1 -1 0 1;
#X obj 384 269 tgl 10 0 empty empty empty 17 7 0 10 -1 -1 -1 0 1;
#X obj 384 279 tgl 10 0 empty empty empty 17 7 0 10 -1 -1 -1 0 1;
#X obj 384 289 tgl 10 0 empty empty empty 17 7 0 10 -1 -1 -1 0 1;
#X obj 404 259 tgl 10 0 empty empty empty 17 7 0 10 -1 -1 -1 0 1;
#X obj 404 269 tgl 10 0 empty empty empty 17 7 0 10 -1 -1 -1 0 1;
#X obj 404 279 tgl 10 0 empty empty empty 17 7 0 10 -1 -1 -1 0 1;
#X obj 22 20 cnv 15 200 350 empty empty empty 20 12 0 14 -233017 -66577
0;
#X obj 59 245 cnv 15 100 25 empty empty empty 20 12 0 14 -1 -66577
0;
#X obj 141 302 cnv 15 50 50 empty empty empty 20 12 0 14 -1 -66577
0;
#X obj 87 302 cnv 15 50 50 empty empty empty 20 12 0 14 -1 -66577 0
;
#X obj 33 302 cnv 15 50 50 empty empty empty 20 12 0 14 -1 -66577 0
;
#X obj 32 118 cnv 15 50 50 empty empty empty 20 12 0 14 -1 -66577 0
;
#X obj 134 118 cnv 15 50 50 empty empty empty 20 12 0 14 -1 -66577
0;
#X obj 32 168 cnv 15 50 50 empty empty empty 20 12 0 14 -1 -66577 0
;
#X obj 134 168 cnv 15 50 50 empty empty empty 20 12 0 14 -1 -66577
0;
#X obj 147 189 cnv 15 25 25 empty empty empty 20 12 0 14 -262144 -66577
0;
#X obj 45 189 cnv 15 25 25 empty empty empty 20 12 0 14 -262144 -66577
0;
#X obj 57 326 cnv 15 25 25 empty empty empty 20 12 0 14 -262144 -66577
0;
#X obj 111 326 cnv 15 25 25 empty empty empty 20 12 0 14 -262144 -66577
0;
#X obj 774 110 cnv 15 100 60 empty empty empty 20 12 0 14 -204455 -66577
0;
#X obj 881 110 cnv 15 100 60 empty empty empty 20 12 0 14 -249051 -66577
0;
#X obj 774 177 cnv 15 100 60 empty empty empty 20 12 0 14 -216873 -66577
0;
#X obj 881 177 cnv 15 100 60 empty empty empty 20 12 0 14 -253279 -66577
0;
#X obj 774 243 cnv 15 100 60 empty empty empty 20 12 0 14 -233259 -66577
0;
#X obj 881 243 cnv 15 100 60 empty empty empty 20 12 0 14 -257573 -66577
0;
#X obj 774 309 cnv 15 100 60 empty empty empty 20 12 0 14 -241647 -66577
0;
#X obj 881 309 cnv 15 100 60 empty empty empty 20 12 0 14 -261866 -66577
0;
#X obj 773 24 cnv 15 100 60 empty empty 3D_CUBE 0 -10 0 14 -233259
-66577 0;
#X obj 884 24 cnv 15 100 60 empty empty INPUT_AUDIO 0 -10 0 14 -257573
-66577 0;
#X obj 19 483 cnv 15 258 400 empty empty empty 20 12 0 14 -128992 -66577
0;
#X obj 20 484 cnv 15 256 398 empty empty empty 20 12 0 14 -233017 -66577
0;
#X obj 277 483 cnv 15 258 400 empty empty empty 20 12 0 14 -128992
-66577 0;
#X obj 278 484 cnv 15 256 398 empty empty empty 20 12 0 14 -233017
-66577 0;
#X obj 535 483 cnv 15 258 400 empty empty empty 20 12 0 14 -128992
-66577 0;
#X obj 536 484 cnv 15 256 398 empty empty empty 20 12 0 14 -233017
-66577 0;
#X obj 793 483 cnv 15 258 600 empty empty empty 20 12 0 14 -128992
-66577 0;
#X obj 794 484 cnv 15 256 598 empty empty empty 20 12 0 14 -233017
-66577 0;
#X restore 73 116 pd graphizm;
#X obj 413 502 s tutututu;
#X obj 512 470 tgl 15 0 empty empty empty 17 7 0 10 -159808 -1 -1 0
1;
#X obj 512 485 metro 500;
#X floatatom 572 471 5 0 0 0 - - -, f 5;
#X obj 452 461 tgl 15 0 empty empty empty 17 7 0 10 -257985 -1 -1 1
1;
#X obj 413 476 spigot;
#X obj 452 427 loadbang;
#X msg 452 444 1;
#X obj 413 427 b;
#X msg 572 454 2000;
#X obj 413 410 100.Input/audio_bonk/analyse_son;
#X msg 610 454 200;
#X obj 416 395 hsl 128 15 0 127 0 0 empty empty empty -2 -8 0 10 -262144
-1 -1 0 1;
#X floatatom 78 422 5 0 0 0 - - -, f 5;
#X obj 78 399 r createwindow;
#X obj 93 252 tgl 15 0 empty empty empty 17 7 0 10 -4034 -1 -1 0 1
;
#X obj 78 252 tgl 15 0 empty empty empty 17 7 0 10 -4034 -1 -1 0 1
;
#X obj 78 226 LIVE.window;
#X obj 78 267 100.Fenetre/FrameBuffer.render;
#X obj 78 207 tgl 15 0 empty createwindow createwindow 17 7 0 10 -262144
-1 -13381 1 1;
#X obj 69 548 s oscillo_amp_1;
#X obj 69 580 s oscillo_amp_2;
#X obj 69 612 s oscillo_amp_3;
#X obj 72 533 hsl 128 15 0 1 0 0 empty empty empty -2 -8 0 10 -262144
-1 -1 0 1;
#X obj 72 565 hsl 128 15 0 1 0 0 empty empty empty -2 -8 0 10 -262144
-1 -1 0 1;
#X obj 72 597 hsl 128 15 0 50 0 0 empty empty empty -2 -8 0 10 -262144
-1 -1 0 1;
#X obj 1348 489 send resolution;
#X msg 1348 468 1440 900;
#X obj 418 609 s tutututu;
#X obj 418 564 metro 500;
#X obj 418 586 f 1;
#X obj 418 545 tgl 15 0 empty empty empty 17 7 0 10 -262144 -1 -1 0
1;
#X obj 732 157 002.3d.Cube/cube;
#X obj 732 239 001.2d.Rayure/rayure;
#X obj 732 319 001.2d.Spirale/fildefer;
#X obj 732 401 005.Paysage.Foret/montagnes;
#X obj 732 457 ./005.Paysage.Foret/paysage;
#X obj 736 555 ./0001.2d.Bonhomme/bonhomme;
#X obj 1326 691 001.2d.OnScreenDisplay/TXTT;
#X obj 726 72 ./002.3d.Oscillo/oscillo;
#X msg 1331 445 1920 1080;
#X obj 1326 612 tgl 15 0 empty empty empty 17 7 0 10 -262144 -1 -1
0 1;
#X msg 1443 434 960 540;
#X obj 1326 629 ../002.3d.Screencast/screencastt;
#X floatatom 222 229 5 0 0 0 - - -, f 5;
#X obj 210 195 notein;
#X obj 231 212 f;
#X obj 193 195 bng 17 250 50 0 empty empty empty 17 7 0 10 -262144
-1 -1;
#X obj 1427 303 notein;
#X floatatom 1429 361 5 0 0 0 - - -, f 5;
#X floatatom 1443 341 5 0 0 0 - - -, f 5;
#X floatatom 1478 331 5 0 0 0 - - -, f 5;
#X msg 1486 469 144 90;
#X obj 779 540 hradio 15 1 0 10 empty empty empty 0 -8 0 10 -262144
-1 -1 9;
#X obj 1007 336 100.Fenetre/feedback2.audiocontrol;
#X obj 1263 379 vsl 15 128 0 127 0 0 empty empty empty 0 -9 0 10 -262144
-1 -1 0 1;
#X obj 1007 321 tgl 15 0 empty empty empty 17 7 0 10 -262144 -1 -1
0 1;
#X obj 1263 353 t f;
#X floatatom 1226 322 5 0 0 0 - - -, f 5;
#X obj 1226 279 loadbang;
#X msg 1226 296 85;
#X obj 1326 660 001.2d.OnScreenDisplay/desktopp;
#X obj 717 782 006.Paysage.Urbain.Glissade/glissade.2;
#X floatatom 796 768 5 0 0 0 - - -, f 5;
#X obj 781 734 notein;
#X obj 802 751 f;
#X obj 766 736 bng 15 250 50 0 empty empty empty 17 7 0 10 -262144
-1 -1;
#X obj 754 142 hradio 15 1 0 10 empty empty empty 0 -8 0 10 -262144
-1 -1 0;
#X floatatom 886 239 5 0 0 0 - - -, f 5;
#X obj 829 190 notein;
#X obj 850 207 f;
#X obj 784 224 hradio 15 1 0 10 empty empty empty 0 -8 0 10 -262144
-1 -1 0;
#X floatatom 906 319 5 0 0 0 - - -, f 5;
#X obj 849 270 notein;
#X obj 870 287 f;
#X obj 804 304 hradio 15 1 0 10 empty empty empty 0 -8 0 10 -262144
-1 -1 1;
#X floatatom 932 401 5 0 0 0 - - -, f 5;
#X obj 875 352 notein;
#X obj 896 369 f;
#X obj 830 386 hradio 15 1 0 10 empty empty empty 0 -8 0 10 -262144
-1 -1 0;
#X obj 856 751 s GEMHEADglissade;
#X obj 857 727 toggle2;
#X obj 396 790 ./v3.1_Dodecahedre/dodecahedre;
#X obj 603 764 tgl 15 0 empty empty empty 17 7 0 10 -262144 -1 -1 0
1;
#X obj 396 763 r dodecahedre;
#X obj 737 654 001.2d.Masques/clap;
#X obj 737 637 toggle2;
#X obj 736 538 toggle2;
#X obj 732 440 toggle2;
#X obj 732 384 toggle2;
#X obj 732 302 toggle2;
#X obj 732 222 toggle2;
#X obj 732 140 toggle2;
#X obj 726 55 toggle2;
#X obj 275 227 hradio 15 1 0 5 empty empty empty 0 -8 0 10 -262144
-1 -1 1;
#X obj 1337 -334 gemhead;
#X obj 1337 40 gemlist;
#X obj 1337 21 until;
#X obj 1337 -17 t b a;
#X obj 1337 87 rotateXYZ 0 0 20;
#X floatatom 1382 140 5 0 0 0 - - -, f 5;
#X obj 1337 112 separator;
#X msg 1247 202 draw line;
#X obj 1337 219 rectangle 0.03 0.0015;
#X obj 1337 -63 rotateXYZ 0 90 0;
#X floatatom 1409 -192 5 0 0 0 - - -, f 5;
#X obj 1446 -84 line;
#X obj 1446 -158 tgl 15 0 empty empty empty 17 7 0 10 -262144 -1 -1
1 1;
#X obj 1446 -141 metro 6000;
#X obj 1337 -237 gemlist;
#X obj 1337 -257 until;
#X obj 1337 -298 t b a;
#X floatatom 1409 196 5 0 0 0 - - -, f 5;
#X floatatom 1481 200 5 0 0 0 - - -, f 5;
#X msg 1446 -103 \$1 6000;
#X obj 1337 161 translateXYZ 3.5 0 0;
#X obj 1446 -122 random 90;
#X msg 1337 2 9;
#X msg 1337 -277 6;
#X connect 1 0 31 0;
#X connect 5 0 3 0;
#X connect 6 0 4 0;
#X connect 7 0 2 0;
#X connect 8 0 9 0;
#X connect 8 0 10 0;
#X connect 9 0 2 0;
#X connect 10 0 4 0;
#X connect 10 0 3 0;
#X connect 11 0 7 0;
#X connect 13 0 17 0;
#X connect 15 0 13 0;
#X connect 16 0 15 0;
#X connect 17 0 14 0;
#X connect 18 0 21 0;
#X connect 19 0 20 0;
#X connect 20 0 18 0;
#X connect 22 0 24 0;
#X connect 24 0 23 0;
#X connect 25 0 26 0;
#X connect 27 0 28 0;
#X connect 28 0 1 0;
#X connect 29 0 30 0;
#X connect 32 0 33 0;
#X connect 33 0 36 0;
#X connect 34 0 41 0;
#X connect 35 0 41 0;
#X connect 36 0 35 0;
#X connect 36 0 37 0;
#X connect 37 0 34 0;
#X connect 38 0 31 1;
#X connect 39 0 25 0;
#X connect 46 0 126 0;
#X connect 47 0 126 1;
#X connect 48 0 126 2;
#X connect 49 0 103 0;
#X connect 50 0 104 1;
#X connect 52 0 53 1;
#X connect 53 0 132 0;
#X connect 54 0 53 0;
#X connect 55 0 150 1;
#X connect 56 0 57 1;
#X connect 57 0 55 0;
#X connect 58 0 57 0;
#X connect 59 0 60 1;
#X connect 60 0 118 0;
#X connect 61 0 60 0;
#X connect 63 0 62 0;
#X connect 66 0 67 0;
#X connect 67 0 65 0;
#X connect 68 0 67 1;
#X connect 69 0 70 1;
#X connect 70 0 65 0;
#X connect 71 0 72 0;
#X connect 72 0 69 0;
#X connect 73 0 70 0;
#X connect 74 0 68 0;
#X connect 75 0 73 0;
#X connect 76 0 68 0;
#X connect 77 0 75 0;
#X connect 79 0 78 0;
#X connect 80 0 83 1;
#X connect 81 0 83 0;
#X connect 84 0 82 0;
#X connect 88 0 85 0;
#X connect 89 0 86 0;
#X connect 90 0 87 0;
#X connect 92 0 91 0;
#X connect 94 0 95 0;
#X connect 95 0 93 0;
#X connect 96 0 94 0;
#X connect 105 0 91 0;
#X connect 106 0 108 0;
#X connect 107 0 91 0;
#X connect 109 0 83 2;
#X connect 110 0 111 1;
#X connect 111 0 109 0;
#X connect 112 0 111 0;
#X connect 113 0 114 0;
#X connect 113 1 115 0;
#X connect 113 2 116 0;
#X connect 117 0 91 0;
#X connect 118 0 102 1;
#X connect 119 0 43 0;
#X connect 119 1 122 0;
#X connect 121 0 119 0;
#X connect 122 0 120 0;
#X connect 123 0 119 1;
#X connect 124 0 125 0;
#X connect 125 0 123 0;
#X connect 128 0 127 0;
#X connect 129 0 130 1;
#X connect 130 0 128 0;
#X connect 131 0 130 0;
#X connect 132 0 51 0;
#X connect 132 0 97 1;
#X connect 134 0 135 1;
#X connect 135 0 136 0;
#X connect 136 0 133 0;
#X connect 136 0 98 1;
#X connect 138 0 139 1;
#X connect 139 0 140 0;
#X connect 140 0 137 0;
#X connect 140 0 99 1;
#X connect 142 0 143 1;
#X connect 143 0 144 0;
#X connect 144 0 141 0;
#X connect 144 0 100 1;
#X connect 146 0 145 0;
#X connect 148 0 147 1;
#X connect 149 0 147 0;
#X connect 151 0 150 0;
#X connect 152 0 102 0;
#X connect 153 0 101 0;
#X connect 154 0 100 0;
#X connect 155 0 99 0;
#X connect 156 0 98 0;
#X connect 157 0 97 0;
#X connect 158 0 104 0;
#X connect 159 0 83 3;
#X connect 160 0 176 0;
#X connect 161 0 164 0;
#X connect 162 0 161 0;
#X connect 163 0 182 0;
#X connect 163 1 161 1;
#X connect 164 0 166 0;
#X connect 165 0 180 1;
#X connect 166 0 180 0;
#X connect 167 0 168 0;
#X connect 169 0 163 0;
#X connect 170 0 169 2;
#X connect 171 0 169 3;
#X connect 172 0 173 0;
#X connect 173 0 181 0;
#X connect 174 0 169 0;
#X connect 175 0 174 0;
#X connect 176 0 183 0;
#X connect 176 1 174 1;
#X connect 177 0 168 1;
#X connect 178 0 168 2;
#X connect 179 0 171 0;
#X connect 180 0 168 0;
#X connect 181 0 179 0;
#X connect 182 0 162 0;
#X connect 183 0 175 0;
