#N canvas 572 150 983 628 10;
#X obj 478 218 b;
#X obj 478 248 f;
#X obj 516 248 + 1;
#X obj 478 301 sel 0 1;
#X obj 478 190 inlet;
#X obj 463 356 outlet;
#X obj 509 355 outlet;
#X obj 478 274 % 3;
#X obj 581 191 inlet;
#X obj 569 250 limit 1 20 0;
#X floatatom 583 402 5 0 0 0 - - -;
#X connect 0 0 1 0;
#X connect 1 0 2 0;
#X connect 1 0 7 0;
#X connect 2 0 1 1;
#X connect 3 0 5 0;
#X connect 3 1 6 0;
#X connect 4 0 0 0;
#X connect 7 0 3 0;
#X connect 8 0 9 0;
#X connect 9 0 7 1;
#X connect 9 0 10 0;
