#N canvas 633 210 868 547 10;
#X obj 239 324 metro;
#X obj 271 -5 inlet;
#X obj 239 417 outlet;
#X obj 507 40 inlet;
#X obj 80 107 loadbang;
#X obj 239 300 toggle3;
#X obj 271 185 /;
#X obj 271 202 * 60;
#X msg 271 168 1000 \$1;
#X text 328 185 convert.bpm2ms;
#X msg 80 124 0;
#X obj 271 259 / 2;
#X text 299 258 demi temps;
#X obj 239 57 t a;
#X obj 239 94 t f b;
#X obj 271 139 f;
#X connect 0 0 2 0;
#X connect 1 0 15 0;
#X connect 3 0 13 0;
#X connect 4 0 10 0;
#X connect 5 0 0 0;
#X connect 6 0 7 0;
#X connect 7 0 11 0;
#X connect 8 0 6 0;
#X connect 10 0 5 0;
#X connect 11 0 0 1;
#X connect 13 0 14 0;
#X connect 14 0 5 0;
#X connect 14 1 15 0;
#X connect 15 0 8 0;
#X coords 0 -1 1 1 156 17 1 100 300;
