#N canvas 1 86 1598 813 10;
#X obj 321 156 sel 1;
#X obj 333 60 stripnote;
#X obj 357 187 f;
#X obj 358 301 print note \$1;
#X obj 358 266 spigot;
#X obj 397 222 loadbang;
#X msg 397 244 0;
#X obj 508 249 tgl 17 0 empty empty DEBUG -40 9 0 12 -191407 -1 -1
0 1;
#X obj 826 570 cnv 15 400 150 empty empty empty 20 12 0 14 -257985
-66577 0;
#X obj 927 657 midiout;
#X floatatom 927 610 5 0 0 0 note_0_Pitch - -, f 5;
#X text 941 579 MIDI CTL OUT;
#X obj 640 26 inlet;
#X obj 321 124 == \$1;
#X obj 357 574 &&;
#X floatatom 400 450 5 0 0 0 - - -, f 5;
#X obj 341 532 >=;
#X obj 380 533 <=;
#X floatatom 323 458 5 0 0 0 - - -, f 5;
#X obj 357 601 sel 1;
#X obj 387 630 f;
#X obj 364 420 stripnote;
#X obj 385 376 notein;
#X obj 927 541 random 127;
#X obj 927 498 tgl 15 0 empty empty empty 17 7 0 10 -262144 -1 -1 0
1;
#X obj 868 409 noteout;
#X obj 937 358 bng 15 250 50 0 empty empty empty 17 7 0 10 -262144
-1 -1;
#X msg 887 373 127;
#X msg 849 373 0;
#X obj 787 213 b;
#X obj 787 148 tgl 15 0 empty empty empty 17 7 0 10 -257985 -1 -1 0
1;
#X obj 787 191 metro 20;
#X obj 927 519 metro 10;
#X floatatom 787 331 5 0 0 0 - - -, f 5;
#X obj 787 303 + 50;
#X floatatom 887 175 5 0 0 0 - - -, f 5;
#X obj 887 106 bng 15 250 50 0 empty empty empty 17 7 0 10 -262144
-1 -1;
#X msg 887 123 5 \, 200 2000;
#X obj 887 22 key;
#X floatatom 887 44 5 0 0 0 - - -, f 5;
#X obj 887 64 == 110;
#X obj 887 86 sel 1;
#X msg 927 633 176 \, 99 \, 2 \, 176 \, 98 \, 8 \, 176 \, 6 \, \$1
;
#X obj 832 305 + 10;
#X obj 787 243 random 100;
#X obj 1054 426 pack f f;
#X msg 1099 343 0;
#X msg 1140 343 1;
#X msg 1182 343 2;
#X msg 1223 343 4;
#X msg 1265 343 5;
#X msg 1307 343 6;
#X msg 1348 343 7;
#X msg 1390 343 8;
#X obj 1099 286 route lowboost pan pitch modtype modspeed moddepth
level decay;
#X obj 1099 360 t f;
#X msg 1099 109 lowboost;
#X msg 1099 126 pan;
#X msg 1099 143 pitch;
#X msg 1099 160 modtype;
#X msg 1099 177 modspeed;
#X msg 1099 194 moddepth;
#X msg 1099 211 level;
#X msg 1099 228 decay;
#X obj 1099 269 t a;
#X floatatom 1099 379 5 0 0 0 - - -, f 5;
#X obj 1054 490 midiout;
#X msg 1054 450 176 \, 99 \, 2 \, 176 \, 98 \, \$2 \, 176 \, 6 \, \$1
;
#X floatatom 1054 80 5 0 0 0 - - -, f 5;
#X obj 1068 395 b;
#X obj 333 26 notein;
#X obj 887 144 line_;
#X obj 649 643 r tutututu;
#X obj 887 318 t b;
#X obj 887 230 t b;
#X obj 461 464 t f;
#X obj 387 663 bng 15 250 50 0 empty empty empty 17 7 0 10 -262144
-1 -1;
#X obj 615 55 bng 15 250 50 0 empty empty empty 17 7 0 10 -262144 -1
-1;
#X obj 376 484 - 0;
#X obj 416 484 + 0;
#X obj 624 463 ==;
#X obj 558 419 stripnote;
#X obj 579 375 notein;
#X obj 623 509 sel 1;
#X obj 601 533 bng 15 250 50 0 empty empty empty 17 7 0 10 -262144
-1 -1;
#X obj 619 689 outlet;
#X connect 0 0 2 0;
#X connect 1 0 13 0;
#X connect 1 1 2 1;
#X connect 2 0 4 0;
#X connect 4 0 3 0;
#X connect 5 0 6 0;
#X connect 6 0 4 1;
#X connect 7 0 4 1;
#X connect 10 0 42 0;
#X connect 12 0 77 0;
#X connect 12 0 80 1;
#X connect 13 0 0 0;
#X connect 14 0 19 0;
#X connect 15 0 78 0;
#X connect 15 0 79 0;
#X connect 16 0 14 0;
#X connect 17 0 14 1;
#X connect 18 0 16 0;
#X connect 18 0 17 0;
#X connect 19 0 20 0;
#X connect 20 0 76 0;
#X connect 21 0 18 0;
#X connect 21 1 75 0;
#X connect 22 0 21 0;
#X connect 22 1 21 1;
#X connect 23 0 10 0;
#X connect 24 0 32 0;
#X connect 26 0 28 0;
#X connect 26 0 27 0;
#X connect 27 0 25 1;
#X connect 28 0 25 0;
#X connect 29 0 44 0;
#X connect 29 0 74 0;
#X connect 30 0 31 0;
#X connect 31 0 29 0;
#X connect 32 0 23 0;
#X connect 34 0 33 0;
#X connect 35 0 31 1;
#X connect 36 0 37 0;
#X connect 37 0 71 0;
#X connect 38 0 39 0;
#X connect 39 0 40 0;
#X connect 40 0 41 0;
#X connect 41 0 36 0;
#X connect 42 0 9 0;
#X connect 43 0 31 1;
#X connect 44 0 34 0;
#X connect 44 0 43 0;
#X connect 45 0 67 0;
#X connect 46 0 55 0;
#X connect 47 0 55 0;
#X connect 48 0 55 0;
#X connect 49 0 55 0;
#X connect 50 0 55 0;
#X connect 51 0 55 0;
#X connect 52 0 55 0;
#X connect 53 0 55 0;
#X connect 54 0 46 0;
#X connect 54 1 47 0;
#X connect 54 2 48 0;
#X connect 54 3 49 0;
#X connect 54 4 50 0;
#X connect 54 5 51 0;
#X connect 54 6 52 0;
#X connect 54 7 53 0;
#X connect 55 0 65 0;
#X connect 56 0 64 0;
#X connect 57 0 64 0;
#X connect 58 0 64 0;
#X connect 59 0 64 0;
#X connect 60 0 64 0;
#X connect 61 0 64 0;
#X connect 62 0 64 0;
#X connect 63 0 64 0;
#X connect 64 0 54 0;
#X connect 65 0 45 1;
#X connect 65 0 69 0;
#X connect 67 0 66 0;
#X connect 68 0 45 0;
#X connect 69 0 45 0;
#X connect 70 0 1 0;
#X connect 70 1 1 1;
#X connect 71 0 35 0;
#X connect 72 0 85 0;
#X connect 73 0 27 0;
#X connect 73 0 28 0;
#X connect 74 0 73 0;
#X connect 75 0 20 1;
#X connect 78 0 16 1;
#X connect 79 0 17 1;
#X connect 80 0 83 0;
#X connect 81 0 80 0;
#X connect 82 0 81 0;
#X connect 82 1 81 1;
#X connect 83 0 84 0;
#X connect 83 0 85 0;
#X coords 0 813 1 812 192 17 0;
