#N canvas 750 62 624 736 10;
#X obj 203 -230 notein;
#X floatatom 168 -119 5 0 0 0 - - -;
#X floatatom 276 -213 5 0 0 0 - - -;
#X obj 195 -5 *;
#X obj 195 20 > 0;
#X obj 155 122 realtime;
#X obj 155 103 alternate;
#X obj 155 82 b;
#X obj 195 51 t b b;
#X obj 168 -67 sel 0;
#X obj 168 -94 == \$1;
#X obj 155 141 > 500;
#X floatatom 219 -67 5 0 0 0 - - -;
#X obj 168 -178 stripnote;
#X obj 168 -145 - 35;
#X obj 222 178 outlett;
#X obj 488 -162 notein;
#X floatatom 453 -51 5 0 0 0 - - -;
#X obj 480 63 *;
#X obj 453 1 sel 0;
#X obj 453 -26 == \$1;
#X floatatom 504 1 5 0 0 0 - - -;
#X obj 453 -110 stripnote;
#X obj 453 -77 - 35;
#X obj 480 117 outlet;
#X floatatom 424 79 5 0 0 0 - - -;
#X connect 0 0 13 0;
#X connect 0 1 13 1;
#X connect 0 2 2 0;
#X connect 1 0 10 0;
#X connect 3 0 4 0;
#X connect 5 0 11 0;
#X connect 6 0 5 0;
#X connect 6 1 5 1;
#X connect 7 0 6 0;
#X connect 8 0 7 0;
#X connect 8 1 15 0;
#X connect 9 1 3 0;
#X connect 10 0 9 0;
#X connect 11 0 15 0;
#X connect 12 0 3 1;
#X connect 13 0 14 0;
#X connect 13 1 12 0;
#X connect 14 0 1 0;
#X connect 16 0 22 0;
#X connect 16 1 22 1;
#X connect 17 0 20 0;
#X connect 18 0 24 0;
#X connect 18 0 25 0;
#X connect 19 1 18 0;
#X connect 20 0 19 0;
#X connect 21 0 18 1;
#X connect 22 0 23 0;
#X connect 22 1 21 0;
#X connect 23 0 17 0;
