#N canvas 481 512 626 397 10;
#X obj 100 119 cnv 15 156 62 empty empty empty 20 12 0 14 -245500 -66577
0;
#X obj 100 142 bpmgen;
#X obj 100 233 outlet;
#X obj 192 233 outlet;
#X obj 100 159 QuartTemps;
#X obj 145 233 outlet;
#X obj 249 233 outlet;
#X obj 192 159 QuartTemps;
#X obj 100 120 taptempo;
#X obj 241 105 tgl 15 0 empty empty empty 17 7 0 10 -262144 -1 -1 0
1;
#X connect 1 0 4 0;
#X connect 1 0 7 0;
#X connect 4 0 2 0;
#X connect 4 1 5 0;
#X connect 7 0 3 0;
#X connect 7 1 6 0;
#X connect 8 0 1 0;
#X connect 9 0 8 0;
#X coords 0 -1 1 1 156 82 1 100 100;
