#N canvas 173 196 1122 703 10;
#X obj 351 260 gemlist;
#X obj 351 232 until;
#X obj 351 188 t b a;
#X msg 418 193 set \$1;
#X obj 418 176 int;
#X obj 418 119 loadbang;
#X obj 418 157 nbx 5 14 -1e+37 1e+37 0 0 empty empty empty 0 -8 0 10
-257985 -1 -1 3 256;
#X obj 631 372 b;
#X obj 485 123 random 5;
#X obj 670 357 bng 15 250 50 0 empty empty empty 17 7 0 10 -257985
-1 -1;
#X obj 351 -12 spigot;
#X obj 512 -373 inlet;
#X obj 485 140 + 1;
#X msg 381 140 1;
#X obj 351 703 rotateXYZ 0 0 0;
#X obj 351 -262 alpha;
#X obj 512 -90 t a;
#X obj -63 1342 loadbang;
#X obj 510 735 s rotationCUBE;
#X obj 351 -51 rotateXYZ;
#X floatatom 391 -70 5 0 0 0 - - -, f 5;
#X obj 497 686 - 5;
#X obj 385 554 random 20;
#X obj 385 634 - 10;
#X obj 487 575 random 360;
#X obj 487 594 - 180;
#X obj 576 633 random 180;
#X obj 351 424 scaleXYZ;
#X obj 381 392 f;
#X obj 599 -373 inlet;
#X obj 209 954 loadbang;
#X obj 670 389 bng 15 250 50 0 empty empty empty 17 7 0 10 -262144
-1 -1;
#X floatatom 107 954 5 0 0 0 - - -, f 5;
#X msg 107 973 width \$1;
#X obj 900 1350 gemlist;
#X obj 900 1322 until;
#X obj 900 1278 t b a;
#X msg 900 1300 3;
#X msg 798 1425 draw fill;
#X obj 900 1442 rectangle 2 1;
#X obj 900 1249 translateXYZ 0 0 4;
#X obj 900 1420 colorRGB 1 1 1 1;
#X obj 900 1375 translateXYZ 0 -2 0;
#X obj 900 1398 rotateXYZ 30 0 0;
#X floatatom 672 1213 5 0 0 0 - - -, f 5;
#X msg 637 1274 1;
#X obj 672 1303 pipe 100;
#X msg 672 1326 0;
#X obj 672 1257 t b;
#X obj 378 908 r rreedd;
#X obj 432 948 r bblluuee;
#X obj 405 928 r ggrreenn;
#X obj 733 744 bng 50 250 50 0 empty empty empty 17 7 0 10 -4034 -1
-1;
#X msg 733 794 1;
#X msg 764 794 0;
#X obj 651 744 bng 50 250 50 0 empty empty empty 17 7 0 10 -258113
-1 -1;
#X msg 651 794 1;
#X msg 686 794 0;
#X obj 818 744 bng 50 250 50 0 empty empty empty 17 7 0 10 -4160 -1
-1;
#X msg 853 794 1;
#X msg 818 794 0;
#X obj 973 744 bng 50 250 50 0 empty empty empty 17 7 0 10 -1 -1 -1
;
#X msg 903 794 0;
#X obj 651 811 s rreedd;
#X obj 733 811 s ggrreenn;
#X obj 818 811 s bblluuee;
#X obj 351 968 colorRGB 0 0 0 1;
#X obj 1042 777 loadbang;
#X obj 637 1363 tgl 15 0 empty empty empty 17 7 0 10 -262144 -1 -1
0 1;
#X obj 599 275 t b b;
#X obj 381 370 line_;
#X obj 439 670 line_;
#X obj 373 -191 pix_texture;
#X obj 447 -363 r SCREEN;
#X floatatom 460 777 5 0 0 0 - - -, f 5;
#X obj 351 -363 r cube;
#X obj 899 744 bng 50 250 50 0 empty empty empty 17 7 0 10 -262144
-1 -1;
#X msg 439 651 \$1 3000;
#X obj 351 797 colorRGB 1 1 1 1;
#X floatatom 463 -168 5 0 0 0 - - -, f 5;
#X obj 599 33 t a;
#X obj 463 -219 r cubeReset;
#X obj 494 354 r cubeReset;
#X msg 493 375 1;
#X obj 685 556 r cubeReset;
#X msg 685 577 0;
#X obj 685 686 t f;
#X floatatom 506 640 5 0 0 0 - - -, f 5;
#X floatatom 371 -94 5 0 0 0 - - -, f 5;
#X msg 463 -198 -6;
#X obj 351 -133 translateXYZ 0 0 -6;
#X obj 351 1251 separator;
#X floatatom 392 1311 5 0 0 0 - - -, f 5;
#X obj 193 1523 loadbang;
#X msg 418 136 3;
#X obj 351 72 scaleXYZ;
#X floatatom 378 48 5 0 0 0 - - -, f 5;
#X obj 826 -17 pix_film;
#X msg 822 -63 open \$1;
#X obj 821 -84 openpanel;
#X obj 820 -104 bng 15 250 50 0 empty empty empty 17 7 0 10 -262144
-1 -1;
#X obj 926 -262 cnv 15 175 300 empty empty empty 20 12 0 14 -24198
-66577 0;
#X obj 938 -260 bng 25 250 50 0 empty empty empty 0 -6 0 8 -262144
-1 -1;
#X obj 989 -69 bng 15 250 50 0 empty empty end_reached 20 7 0 10 -262144
-1 -1;
#X floatatom 979 -87 5 0 10000 1 frameNum - -, f 5;
#X obj 938 -233 openpanel;
#X msg 938 -214 open \$1;
#X msg 944 -176 auto \$1;
#X obj 944 -194 tgl 15 0 empty empty empty 0 -6 0 8 -262144 -1 -1 0
1;
#X msg 955 -157 colorspace Grey;
#X msg 961 -138 driver foo;
#X msg 964 -113 bang;
#X obj 926 -69 t a;
#X msg 222 -208 rectangle \$1;
#X obj 222 -232 tgl 15 0 empty empty empty 17 7 0 10 -262144 -1 -1
0 1;
#X obj 372 1092 separator;
#X obj 828 401 tabread POSYY;
#X floatatom 828 318 5 0 0 0 - - -, f 5;
#X floatatom 828 434 5 0 0 0 - - -, f 5;
#X obj 851 363 metro 20;
#X obj 850 345 tgl 15 0 empty empty empty 17 7 0 10 -262144 -1 -1 0
1;
#X obj 767 154 notein;
#X floatatom 767 209 5 0 0 0 - - -, f 5;
#X floatatom 786 192 5 0 0 0 - - -, f 5;
#X floatatom 806 176 5 0 0 0 - - -, f 5;
#X obj 672 -257 bng 15 250 50 0 empty empty empty 17 7 0 10 -262144
-1 -1;
#X obj 672 -280 ../100.Input/lpd8/lpd8_pad 40;
#X obj 351 1331 translateXYZ 3 0 0;
#X obj 378 1123 r rreedd;
#X obj 432 1163 r bblluuee;
#X obj 405 1143 r ggrreenn;
#X obj 351 1183 colorRGB 0 0 0 1;
#X obj 599 -314 electribe_note 0;
#X msg 209 973 draw line \, width 1;
#X obj 346 870 cube 0.7;
#X obj 360 1029 cube 0.7;
#X obj 351 1561 rectangle 2 0.7;
#X floatatom 542 779 5 0 0 0 - - -, f 5;
#X obj 676 -50 bng 15 250 50 0 empty empty empty 17 7 0 10 -262144
-1 -1;
#X obj 612 -349 bng 15 250 50 0 empty empty empty 17 7 0 10 -262144
-1 -1;
#X obj 672 1232 electribe_note;
#X msg 423 344 0;
#X obj 542 1544 t f;
#X obj 542 973 t f;
#X obj 542 803 t f;
#X obj 631 -279 bng 15 250 50 0 empty empty empty 17 7 0 10 -262144
-1 -1;
#X obj 92 289 ../_Utiles/poly_smooth;
#X obj 95 828 ../_Utiles/poly_smooth;
#X obj 109 904 ../_Utiles/poly_smooth_dis;
#X msg 193 1544 draw line \, width 3;
#X obj 423 323 pipe 300;
#X obj 378 1381 r rreedd;
#X obj 432 1421 r bblluuee;
#X obj 405 1401 r ggrreenn;
#X obj 351 1441 colorRGB 0 0 0 1;
#X msg 68 1544 width \$1;
#X floatatom 68 1527 5 0 30 0 - - -, f 5;
#X msg 350 210 5;
#X msg 381 292 1.2 \, 1 300;
#X connect 0 0 27 0;
#X connect 1 0 0 0;
#X connect 2 0 157 0;
#X connect 2 1 0 1;
#X connect 3 0 157 0;
#X connect 4 0 3 0;
#X connect 5 0 94 0;
#X connect 6 0 4 0;
#X connect 7 0 22 0;
#X connect 7 0 24 0;
#X connect 7 0 26 0;
#X connect 7 0 31 0;
#X connect 8 0 12 0;
#X connect 9 0 7 0;
#X connect 10 0 95 0;
#X connect 11 0 16 0;
#X connect 12 0 6 0;
#X connect 13 0 6 0;
#X connect 14 0 78 0;
#X connect 15 0 90 0;
#X connect 16 0 10 1;
#X connect 19 0 10 0;
#X connect 20 0 19 2;
#X connect 21 0 14 3;
#X connect 22 0 23 0;
#X connect 23 0 14 1;
#X connect 24 0 25 0;
#X connect 25 0 77 0;
#X connect 26 0 21 0;
#X connect 27 0 14 0;
#X connect 28 0 27 1;
#X connect 28 0 27 2;
#X connect 28 0 27 3;
#X connect 29 0 132 0;
#X connect 29 0 139 0;
#X connect 30 0 133 0;
#X connect 32 0 33 0;
#X connect 33 0 135 0;
#X connect 34 0 42 0;
#X connect 35 0 34 0;
#X connect 36 0 37 0;
#X connect 36 1 34 1;
#X connect 37 0 35 0;
#X connect 38 0 39 0;
#X connect 40 0 36 0;
#X connect 41 0 39 0;
#X connect 42 0 43 0;
#X connect 43 0 41 0;
#X connect 44 0 140 0;
#X connect 45 0 68 0;
#X connect 46 0 47 0;
#X connect 47 0 68 0;
#X connect 48 0 46 0;
#X connect 48 0 45 0;
#X connect 49 0 66 1;
#X connect 50 0 66 3;
#X connect 51 0 66 2;
#X connect 52 0 53 0;
#X connect 52 0 54 0;
#X connect 53 0 64 0;
#X connect 54 0 63 0;
#X connect 54 0 65 0;
#X connect 55 0 56 0;
#X connect 55 0 57 0;
#X connect 56 0 63 0;
#X connect 57 0 64 0;
#X connect 57 0 65 0;
#X connect 58 0 59 0;
#X connect 58 0 60 0;
#X connect 59 0 65 0;
#X connect 60 0 64 0;
#X connect 60 0 63 0;
#X connect 61 0 62 0;
#X connect 62 0 65 0;
#X connect 62 0 64 0;
#X connect 62 0 63 0;
#X connect 66 0 135 0;
#X connect 67 0 62 0;
#X connect 69 0 158 0;
#X connect 69 0 150 0;
#X connect 69 1 7 0;
#X connect 70 0 28 0;
#X connect 71 0 14 2;
#X connect 71 0 18 0;
#X connect 73 0 72 1;
#X connect 74 0 78 4;
#X connect 75 0 15 0;
#X connect 76 0 56 0;
#X connect 76 0 53 0;
#X connect 76 0 59 0;
#X connect 77 0 71 0;
#X connect 78 0 134 0;
#X connect 79 0 90 3;
#X connect 80 0 69 0;
#X connect 81 0 89 0;
#X connect 82 0 83 0;
#X connect 83 0 28 0;
#X connect 84 0 85 0;
#X connect 85 0 86 0;
#X connect 86 0 14 1;
#X connect 86 0 14 2;
#X connect 86 0 14 3;
#X connect 87 0 14 2;
#X connect 88 0 19 1;
#X connect 89 0 79 0;
#X connect 90 0 19 0;
#X connect 91 0 127 0;
#X connect 92 0 127 1;
#X connect 93 0 149 0;
#X connect 94 0 6 0;
#X connect 95 0 2 0;
#X connect 96 0 95 3;
#X connect 96 0 95 2;
#X connect 96 0 95 1;
#X connect 98 0 97 0;
#X connect 99 0 98 0;
#X connect 100 0 99 0;
#X connect 102 0 105 0;
#X connect 105 0 106 0;
#X connect 106 0 112 0;
#X connect 107 0 112 0;
#X connect 108 0 107 0;
#X connect 109 0 112 0;
#X connect 110 0 112 0;
#X connect 111 0 112 0;
#X connect 112 0 97 0;
#X connect 113 0 72 0;
#X connect 114 0 113 0;
#X connect 115 0 131 0;
#X connect 116 0 118 0;
#X connect 117 0 116 0;
#X connect 119 0 116 0;
#X connect 120 0 119 0;
#X connect 121 0 122 0;
#X connect 121 1 123 0;
#X connect 121 2 124 0;
#X connect 125 0 80 0;
#X connect 126 0 125 0;
#X connect 127 0 154 0;
#X connect 128 0 131 1;
#X connect 129 0 131 3;
#X connect 130 0 131 2;
#X connect 132 0 80 0;
#X connect 132 0 145 0;
#X connect 133 0 135 0;
#X connect 134 0 66 0;
#X connect 135 0 115 0;
#X connect 137 0 144 0;
#X connect 140 0 48 0;
#X connect 141 0 70 0;
#X connect 142 0 136 2;
#X connect 143 0 135 1;
#X connect 143 0 142 0;
#X connect 144 0 134 1;
#X connect 144 0 143 0;
#X connect 149 0 136 0;
#X connect 150 0 141 0;
#X connect 151 0 154 1;
#X connect 152 0 154 3;
#X connect 153 0 154 2;
#X connect 154 0 136 0;
#X connect 155 0 136 0;
#X connect 156 0 155 0;
#X connect 157 0 1 0;
#X connect 158 0 70 0;
