#N canvas 375 271 536 532 10;
#X obj 70 16 r~ audio1;
#X obj 70 41 env~;
#X floatatom 95 75 5 0 0 0 - - -, f 5;
#X obj 70 121 sel 1;
#X obj 70 159 delay 100;
#X msg 70 179 1;
#X msg 38 170 0;
#X obj 70 97 > 90;
#X obj 70 219 t f;
#X floatatom 70 244 5 0 0 0 - - -, f 5;
#X obj 138 271 spigot;
#X obj 138 368 outlet;
#X obj 177 -64 inlet;
#X obj 230 368 outlet;
#X obj 230 58 t f;
#X obj 311 -63 inlet;
#X connect 0 0 1 0;
#X connect 1 0 7 0;
#X connect 1 0 14 0;
#X connect 2 0 7 1;
#X connect 3 0 4 0;
#X connect 3 0 6 0;
#X connect 4 0 5 0;
#X connect 5 0 8 0;
#X connect 6 0 8 0;
#X connect 7 0 3 0;
#X connect 8 0 9 0;
#X connect 9 0 10 0;
#X connect 10 0 11 0;
#X connect 12 0 10 1;
#X connect 14 0 13 0;
#X connect 15 0 2 0;
#X coords 0 -1 1 1 256 15 1 100 100;
