#N canvas 1 49 1600 829 10;
#X obj 188 260 s FeedBackParam1;
#X obj 188 280 s FeedBackParam2;
#X obj 188 300 s FeedBackParam3;
#X obj 188 320 s FeedBackParam4;
#X obj 188 340 s FeedBackParam5;
#X obj 152 105 hsl 128 12 -300 -200 0 0 empty empty z -2 5 0 10 -262144
-162280 -1 6094 1;
#X obj 173 149 hsl 128 12 -0.05 0.05 0 0 empty empty empty -2 -8 0
10 -262144 -1 -1 11000 1;
#X obj 184 170 hsl 128 12 -0.5 0.5 0 0 empty empty empty -2 -8 0 10
-262144 -1 -1 3000 1;
#X obj 193 188 hsl 128 12 -2 2 0 0 empty empty empty -2 -8 0 10 -262144
-1 -1 6200 1;
#X obj 220 210 hsl 128 12 0 1 0 0 empty empty empty -2 -8 0 10 -262144
-1 -1 12700 1;
#X msg -126 225 -28;
#X obj -126 202 loadbang;
#X obj 111 103 bng 12 250 50 0 empty empty empty 17 7 0 10 -257985
-1 -1;
#X obj 41 1229 glsl_program;
#X obj 67 1105 pack 0 0;
#X obj 88 1080 t b f;
#X obj 88 1022 change;
#X obj 66 914 change;
#X msg 67 1145 link \$1 \$2;
#X msg 160 1212 print;
#X floatatom 88 1052 2 0 0 0 ID - -, f 2;
#X floatatom 66 937 2 0 0 0 ID - -, f 2;
#X obj 77 1180 print linking;
#X obj -6 997 glsl_fragment;
#X obj -6 889 glsl_vertex;
#X obj -61 836 bng 15 250 50 0 empty empty empty 0 -6 0 8 -260097 -1
-1;
#X msg -481 425 K1 \$1;
#X msg -454 534 K3 \$1;
#X msg -267 775 D1 \$1;
#X obj -478 406 hsl 100 15 -0.05 0.05 0 0 empty empty empty -2 -8 0
10 -258113 -1 -1 8575 0;
#X obj -451 519 hsl 100 15 -0.5 0.5 0 0 empty empty empty -2 -8 0 10
-258113 -1 -1 2339 0;
#X obj -264 754 hsl 100 15 -2 2 0 0 empty empty empty -2 -8 0 10 -258113
-1 -1 4833 0;
#X msg 4 867 open feedback.vert;
#X msg 5 967 open feedback.frag;
#X obj -434 485 r op3.freq;
#X obj -247 720 r op4.freq;
#X obj -434 502 expr $f1 / 50;
#X obj -247 737 expr $f1 * (-1);
#X msg -399 730 alpha \$1;
#X obj -396 709 hsl 100 15 0 1 0 0 empty empty GLSLAlpha -2 -8 0 10
-258113 -1 -1 9900 1;
#X obj -6 725 alpha;
#X obj -399 616 r volumeNOISE;
#X obj -399 633 / 2;
#X msg 27 762 0;
#X obj 401 1388 t b b;
#X obj 401 1369 loadbang;
#X msg 436 1412 1024 768;
#X obj 337 1476 pix_snap2tex;
#X msg 205 1459 quality 1;
#X obj 408 1678 rectangle 5.33333 4;
#X obj 613 1468 unpack f f;
#X obj 613 1491 /;
#X obj 473 1578 *;
#X obj 538 1454 b;
#X obj 51 729 loadbang;
#X obj 1029 116 r FeedBackParam1;
#X obj -481 385 r FeedBackParam2;
#X obj -454 465 r FeedBackParam3;
#X obj -267 698 r FeedBackParam4;
#X obj 117 -460 s resolution;
#X obj 379 1275 pack f f;
#X floatatom 378 1251 5 0 0 0 - - -, f 5;
#X floatatom 422 1250 5 0 0 0 - - -, f 5;
#X obj 538 1413 r resolution;
#X msg 401 1411 0 0;
#X obj -6 820 translateXYZ 0 0 0;
#X obj 741 439 r gamepad_button_4;
#X obj -98 765 loadbang;
#X msg 72 762 0;
#X obj 741 464 gamepad_maintient 1000;
#X obj 126 784 f;
#X obj 119 -509 loadbang;
#X msg -6 618 set 1e+10;
#X floatatom 991 171 5 0 0 0 - - -, f 5;
#X obj 767 844 alpha;
#X msg 808 908 0;
#X obj 807 1063 t b b;
#X obj 807 1044 loadbang;
#X msg 848 1087 1024 768;
#X obj 767 1204 pix_snap2tex;
#X msg 685 1130 quality 1;
#X obj 634 627 gemhead 99;
#X obj 767 1307 rectangle 5.33333 4;
#X obj 933 1176 unpack f f;
#X obj 933 1217 /;
#X obj 832 1276 *;
#X obj 891 1183 b;
#X msg 864 1227 32;
#X obj 832 855 loadbang;
#X obj 891 1144 r resolution;
#X msg 807 1086 0 0;
#X obj 767 939 translateXYZ 0 0 0;
#X msg 849 912 0;
#X obj 991 195 f;
#X obj 767 669 GEMglLoadIdentity;
#X obj 710 551 tgl 15 0 empty empty empty 17 7 0 10 -262144 -1 -1 0
1;
#X obj 623 542 sel 1;
#X msg 534 519 0;
#X obj 709 381 sel 1;
#X msg 709 398 0;
#X obj 767 751 colorRGB 1 1 1 1;
#X floatatom 927 618 5 0 0 0 - - -, f 5;
#X obj 148 730 hsl 128 12 -10 10 0 0 empty empty x -2 5 0 10 -262144
-162280 -1 6350 1;
#X obj 167 127 hsl 128 12 -10 10 0 0 empty empty y -2 5 0 10 -262144
-162280 -1 6350 1;
#X obj -361 25 t b b;
#X msg 206 16 1;
#X obj 107 176 bng 12 250 50 0 empty empty empty 17 7 0 10 -241307
-1 -1;
#X msg 106 192 0;
#X obj 150 966 f;
#X obj 147 1014 f;
#X obj 147 1039 t b f;
#X obj 887 259 f;
#X msg 4 643 set 40;
#X obj -45 116 ctlin 8;
#X obj -163 -50 ctlin 7;
#X obj -160 -100 ctlin 6;
#X obj -130 -172 ctlin 5;
#X obj -130 -155 expr ($f1 / 1270 ) - 0.05;
#X obj -45 133 / 127;
#X obj -160 -83 expr ($f1 / 127 ) - 0.5;
#X obj -163 -33 expr ($f1 / 127 * 4 ) - 2;
#X obj 621 327 r feedbackonoff;
#X obj 337 1543 rotateXYZ 0 0 0;
#X floatatom 439 1523 5 0 0 0 - - -, f 5;
#X obj -283 154 ctlout 5 3;
#X obj -251 176 ctlout 5 4;
#X obj -314 132 ctlout 6 1;
#X floatatom -140 -506 5 0 0 0 - - -, f 5;
#X obj -140 -538 ctlin 4 1;
#X floatatom -139 -445 5 0 0 0 - - -, f 5;
#X obj -139 -477 ctlin 5 1;
#X floatatom -140 -383 5 0 0 0 - - -, f 5;
#X obj -140 -415 ctlin 6 1;
#X floatatom -141 -321 5 0 0 0 - - -, f 5;
#X obj -141 -353 ctlin 7 1;
#X obj -225 -337 ctlout 77 1;
#X obj -223 -398 ctlout 76 1;
#X obj -223 -460 ctlout 77 1;
#X obj -221 -521 ctlout 76 1;
#X obj 582 290 pad_midi 39;
#X obj 710 508 tgl 15 0 empty empty empty 17 7 0 10 -262144 -1 -1 0
1;
#X obj 563 379 tgl 15 0 empty empty empty 17 7 0 10 -262144 -1 -1 0
1;
#X msg 553 1333 1920 1080;
#X obj 542 1387 s resolution;
#X msg 538 1480 256;
#X floatatom 105 328 5 0 0 0 - - -, f 5;
#X floatatom 36 -292 5 0 0 0 - - -, f 5;
#X floatatom 136 -244 5 0 0 0 - - -, f 5;
#X floatatom 224 -186 5 0 0 0 - - -, f 5;
#X floatatom 224 -136 5 0 0 0 - - -, f 5;
#X obj 36 -273 / 1.27;
#X floatatom 36 -227 5 0 0 0 - - -, f 5;
#X obj 36 -250 - 300;
#X obj 136 -220 / 1270;
#X obj 136 -199 - 0.05;
#X msg 529 1310 1360 768;
#X msg 569 1357 640 480;
#X obj -454 -350 t f;
#X obj -490 702 f;
#X obj 392 -408 inlet;
#X obj 36 -315 ../100.Input/lpd8/lpd8_ctl 1;
#X obj 136 -267 ../100.Input/lpd8/lpd8_ctl 2;
#X obj 224 -209 ../100.Input/lpd8/lpd8_ctl 3;
#X obj 224 -159 ../100.Input/lpd8/lpd8_ctl 4;
#X obj -6 670 gemhead;
#X obj 339 751 gemhead -99;
#X obj 767 627 gemhead 50;
#X obj -378 661 r FeedBackParam5;
#X msg 571 -394 0;
#X msg 118 -486 1024 768;
#X obj -497 577 t a;
#X obj -444 827 t a;
#X obj -364 1 t a;
#X obj 337 1291 t b;
#X obj 634 1160 t b;
#X obj 338 107 tgl 15 0 empty empty empty 17 7 0 10 -262144 -1 -1 0
1;
#X obj 1037 624 f;
#X obj 569 575 bng 15 250 50 0 empty empty empty 17 7 0 10 -262144
-1 -1;
#X floatatom 1070 558 5 0 0 0 - - -, f 5;
#X obj 265 1612 rotateXYZ;
#X floatatom 399 1501 5 0 0 0 - - -, f 5;
#X connect 5 0 0 0;
#X connect 5 0 70 0;
#X connect 5 0 93 0;
#X connect 5 0 145 0;
#X connect 6 0 1 0;
#X connect 7 0 2 0;
#X connect 8 0 3 0;
#X connect 9 0 4 0;
#X connect 9 0 111 0;
#X connect 10 0 5 0;
#X connect 11 0 10 0;
#X connect 12 0 10 0;
#X connect 12 0 168 0;
#X connect 12 0 172 0;
#X connect 13 0 47 0;
#X connect 14 0 18 0;
#X connect 15 0 14 0;
#X connect 15 1 14 1;
#X connect 16 0 20 0;
#X connect 17 0 21 0;
#X connect 18 0 13 0;
#X connect 18 0 22 0;
#X connect 19 0 13 0;
#X connect 20 0 15 0;
#X connect 21 0 14 0;
#X connect 23 0 13 0;
#X connect 23 1 16 0;
#X connect 23 1 109 1;
#X connect 24 0 23 0;
#X connect 24 1 17 0;
#X connect 24 1 108 1;
#X connect 25 0 32 0;
#X connect 25 0 33 0;
#X connect 26 0 170 0;
#X connect 27 0 170 0;
#X connect 28 0 171 0;
#X connect 29 0 26 0;
#X connect 30 0 27 0;
#X connect 31 0 28 0;
#X connect 32 0 24 0;
#X connect 33 0 23 0;
#X connect 34 0 36 0;
#X connect 35 0 37 0;
#X connect 36 0 30 0;
#X connect 37 0 31 0;
#X connect 38 0 171 0;
#X connect 39 0 38 0;
#X connect 40 0 65 0;
#X connect 41 0 42 0;
#X connect 42 0 39 0;
#X connect 43 0 65 1;
#X connect 44 0 64 0;
#X connect 44 1 46 0;
#X connect 45 0 44 0;
#X connect 46 0 47 2;
#X connect 47 0 122 0;
#X connect 48 0 47 0;
#X connect 50 0 51 0;
#X connect 50 1 51 1;
#X connect 51 0 52 1;
#X connect 52 0 49 1;
#X connect 53 0 144 0;
#X connect 54 0 43 0;
#X connect 54 0 68 0;
#X connect 56 0 29 0;
#X connect 57 0 30 0;
#X connect 58 0 31 0;
#X connect 60 0 47 1;
#X connect 61 0 60 0;
#X connect 62 0 60 1;
#X connect 63 0 47 2;
#X connect 63 0 50 0;
#X connect 63 0 53 0;
#X connect 64 0 47 1;
#X connect 65 0 24 0;
#X connect 66 0 69 0;
#X connect 67 0 25 0;
#X connect 68 0 65 2;
#X connect 69 0 140 0;
#X connect 70 0 65 3;
#X connect 71 0 169 0;
#X connect 72 0 164 0;
#X connect 73 0 93 0;
#X connect 74 0 91 0;
#X connect 75 0 91 1;
#X connect 76 0 90 0;
#X connect 76 1 78 0;
#X connect 77 0 76 0;
#X connect 78 0 79 2;
#X connect 79 0 82 0;
#X connect 80 0 79 0;
#X connect 81 0 174 0;
#X connect 83 0 84 0;
#X connect 83 1 84 1;
#X connect 84 0 85 1;
#X connect 85 0 82 1;
#X connect 86 0 87 0;
#X connect 87 0 85 0;
#X connect 87 0 82 2;
#X connect 88 0 75 0;
#X connect 88 0 92 0;
#X connect 89 0 79 2;
#X connect 89 0 83 0;
#X connect 89 0 86 0;
#X connect 90 0 79 1;
#X connect 91 0 79 0;
#X connect 92 0 91 2;
#X connect 93 0 176 0;
#X connect 94 0 100 0;
#X connect 95 0 81 0;
#X connect 95 0 166 0;
#X connect 96 0 97 0;
#X connect 96 0 177 0;
#X connect 97 0 141 0;
#X connect 98 0 99 0;
#X connect 99 0 140 0;
#X connect 100 0 74 0;
#X connect 101 0 100 4;
#X connect 102 0 65 1;
#X connect 103 0 65 2;
#X connect 104 0 105 0;
#X connect 104 1 25 0;
#X connect 105 0 9 0;
#X connect 106 0 107 0;
#X connect 107 0 102 0;
#X connect 107 0 103 0;
#X connect 108 0 14 0;
#X connect 109 0 110 0;
#X connect 110 0 14 0;
#X connect 110 1 14 1;
#X connect 111 0 101 0;
#X connect 112 0 164 0;
#X connect 113 0 118 0;
#X connect 114 0 120 0;
#X connect 115 0 119 0;
#X connect 116 0 117 0;
#X connect 117 0 6 0;
#X connect 118 0 9 0;
#X connect 119 0 7 0;
#X connect 120 0 8 0;
#X connect 121 0 141 0;
#X connect 122 0 49 0;
#X connect 123 0 122 3;
#X connect 128 0 127 0;
#X connect 128 0 138 0;
#X connect 130 0 129 0;
#X connect 130 0 137 0;
#X connect 132 0 131 0;
#X connect 132 0 136 0;
#X connect 134 0 133 0;
#X connect 134 0 135 0;
#X connect 139 0 141 0;
#X connect 140 0 95 0;
#X connect 140 0 96 0;
#X connect 141 0 98 0;
#X connect 141 0 164 0;
#X connect 141 0 165 0;
#X connect 142 0 143 0;
#X connect 144 0 52 0;
#X connect 144 0 49 2;
#X connect 146 0 150 0;
#X connect 147 0 153 0;
#X connect 150 0 152 0;
#X connect 151 0 5 0;
#X connect 152 0 151 0;
#X connect 153 0 154 0;
#X connect 154 0 6 0;
#X connect 155 0 143 0;
#X connect 156 0 143 0;
#X connect 157 0 158 0;
#X connect 158 0 39 0;
#X connect 159 0 157 0;
#X connect 160 0 146 0;
#X connect 161 0 147 0;
#X connect 162 0 148 0;
#X connect 163 0 149 0;
#X connect 164 0 40 0;
#X connect 165 0 173 0;
#X connect 166 0 94 0;
#X connect 167 0 39 0;
#X connect 168 0 103 0;
#X connect 168 0 65 1;
#X connect 169 0 59 0;
#X connect 170 0 13 0;
#X connect 171 0 13 0;
#X connect 172 0 104 0;
#X connect 173 0 47 0;
#X connect 174 0 79 0;
#X connect 175 0 141 0;
#X connect 176 0 91 3;
#X connect 178 0 176 0;
#X connect 180 0 122 2;
#X coords 0 -1 1 1 256 128 1 100 100;
