#N canvas 0 86 1600 814 10;
#X declare -path ./100.Effets.glsl;
#X obj 899 280 gemframebuffer;
#X obj 578 548 send cube;
#X obj 915 1388 pix_texture;
#N canvas 1 111 1107 633 params 0;
#X msg 615 106 dimen 320 240;
#X msg 602 87 dimen 1024 1024;
#X msg 751 74 color 0 0 0 0;
#X msg 549 232 rectangle \$1;
#X obj 549 214 tgl 15 0 empty empty empty 0 -6 0 8 -262144 -1 -1 0
1;
#X msg 509 101 type FLOAT;
#X msg 531 187 texunit \$1;
#X msg 495 62 type BYTE;
#X msg 503 82 type INT;
#X msg 658 179 format YUV;
#X msg 649 158 format RGB;
#X msg 668 200 format RGBA;
#X msg 680 220 format RGB32;
#X floatatom 531 167 5 0 0 0 - - -, f 5;
#X obj 762 93 loadbang;
#X obj 649 245 t a;
#X obj 585 124 t a;
#X obj 751 135 t a;
#X obj 495 130 t a;
#X obj 495 154 t a;
#X msg 585 30 perspec -1 1 -1 1 1 20;
#X msg 593 56 perspec -1 1 -1 1 3 75;
#X text 752 29 default;
#X obj 477 298 t a;
#X obj 475 325 outlet;
#X msg 762 114 color 0 0 0 0;
#X connect 0 0 16 0;
#X connect 1 0 16 0;
#X connect 2 0 17 0;
#X connect 3 0 23 0;
#X connect 4 0 3 0;
#X connect 5 0 18 0;
#X connect 6 0 23 0;
#X connect 7 0 18 0;
#X connect 8 0 18 0;
#X connect 9 0 15 0;
#X connect 10 0 15 0;
#X connect 11 0 15 0;
#X connect 12 0 15 0;
#X connect 13 0 6 0;
#X connect 14 0 25 0;
#X connect 15 0 23 0;
#X connect 16 0 19 0;
#X connect 17 0 19 0;
#X connect 18 0 19 0;
#X connect 19 0 23 0;
#X connect 20 0 16 0;
#X connect 21 0 16 0;
#X connect 23 0 24 0;
#X connect 25 0 17 0;
#X restore 1113 170 pd params;
#X obj 1062 263 t a;
#X obj 414 543 separator;
#N canvas 321 150 1045 700 demux 0;
#X obj 159 53 inlet;
#X obj 268 51 inlet;
#X obj 268 251 spigot;
#X obj 159 255 spigot;
#X obj 366 48 inlet;
#X obj 366 250 spigot;
#X obj 759 46 inlet;
#X obj 759 78 t a;
#X obj 307 223 r zaza1;
#X obj 405 220 r zaza2;
#X obj 198 226 r zaza0;
#X obj 366 323 t a;
#X obj 366 366 outlet;
#X obj 471 48 inlet;
#X obj 471 250 spigot;
#X obj 510 220 r zaza3;
#X obj 577 46 inlet;
#X obj 577 248 spigot;
#X obj 616 218 r zaza4;
#X obj 759 115 sel 0 1 2 3 4;
#X msg 758 580 \; zaza0 1 \; zaza1 0 \; zaza2 0 \; zaza3 0 \; zaza4
0 \;;
#X msg 776 485 \; zaza0 0 \; zaza1 1 \; zaza2 0 \; zaza3 0 \; zaza4
0 \;;
#X msg 811 313 \; zaza0 0 \; zaza1 0 \; zaza2 0 \; zaza3 1 \; zaza4
0 \;;
#X msg 829 226 \; zaza0 0 \; zaza1 0 \; zaza2 0 \; zaza3 0 \; zaza4
1 \;;
#X msg 794 400 \; zaza0 0 \; zaza1 0 \; zaza2 1 \; zaza3 0 \; zaza4
0 \;;
#X connect 0 0 3 0;
#X connect 1 0 2 0;
#X connect 2 0 11 0;
#X connect 3 0 11 0;
#X connect 4 0 5 0;
#X connect 5 0 11 0;
#X connect 6 0 7 0;
#X connect 7 0 19 0;
#X connect 8 0 2 1;
#X connect 9 0 5 1;
#X connect 10 0 3 1;
#X connect 11 0 12 0;
#X connect 13 0 14 0;
#X connect 14 0 11 0;
#X connect 15 0 14 1;
#X connect 16 0 17 0;
#X connect 17 0 11 0;
#X connect 18 0 17 1;
#X connect 19 0 20 0;
#X connect 19 1 21 0;
#X connect 19 2 24 0;
#X connect 19 3 22 0;
#X connect 19 4 23 0;
#X restore 1151 1371 pd demux;
#X floatatom 1151 1393 5 0 0 0 - - -, f 5;
#X obj 915 1902 pix_coordinate;
#X obj 1075 1349 tgl 15 0 empty empty empty 17 7 0 10 -257985 -1 -1
1 1;
#X msg 880 2273 640 512 \, 320 256 \, 160 128 \, 80 64 \, 40 32 \,
20 16 \, 10 8 \, 5 4;
#X msg 982 1364 quality \$1;
#X msg 979 1328 rectangle 0;
#X obj 1037 1725 expr 1 - $f1;
#X obj 1070 1641 loadbang;
#X obj 1010 1699 t f f;
#X msg 1010 1874 \$1 \$3 \$2 \$3 \$2 \$4 \$1 \$4;
#X obj 1091 1818 expr 1 - $f1;
#X obj 1170 1744 loadbang;
#X obj 1064 1769 / 10;
#X obj 1064 1792 t f f;
#X obj 1010 1841 pack f f f f;
#X obj 961 1764 b;
#X obj 1010 1657 nbx 5 14 -1e+37 1e+37 0 0 empty empty empty 0 -8 0
10 -257985 -1 -1 0 256;
#X obj 1064 1750 nbx 5 14 -1e+37 1e+37 0 0 empty empty empty 0 -8 0
10 -257985 -1 -1 0 256;
#X msg 1160 1775 0;
#X obj 1010 1676 / 100;
#X obj 1160 1645 bng 15 250 50 0 empty empty proportions_ecran 17 7
0 10 -257985 -1 -1;
#X obj 1160 1621 loadbang;
#X obj 931 601 send masque;
#X obj 931 584 separator;
#X obj 947 546 separator;
#X obj 947 563 send fildefer;
#X msg 1272 246 color 1 1 1;
#X obj 964 525 s dodecahedre;
#X obj 964 508 separator;
#X obj 1181 187 loadbang;
#X obj 980 470 separator;
#X obj 980 487 s clap;
#X msg 1128 221 format RGBA \, color 0 0 0 0;
#X obj 1062 -40 inlet;
#X obj 1062 99 sel 0 1;
#X msg 1075 1330 0;
#X obj 418 1403 pix_texture;
#X floatatom 565 794 5 0 0 0 - - -, f 5;
#X obj 400 1855 pix_coordinate;
#X floatatom 486 927 5 0 0 0 - - -, f 5;
#X obj 418 825 alpha;
#X floatatom 452 912 5 0 0 0 - - -, f 5;
#X obj 418 960 rotateXYZ 0 0 0;
#X obj 337 1225 tgl 15 0 empty empty empty 17 7 0 10 -257985 -1 -1
1 1;
#X obj 337 1187 loadbang;
#X msg 243 1240 quality \$1;
#X msg 240 1204 rectangle 0;
#X obj 580 1669 expr 1 - $f1;
#X obj 613 1589 loadbang;
#X obj 553 1645 t f f;
#X msg 553 1796 \$1 \$3 \$2 \$3 \$2 \$4 \$1 \$4;
#X obj 634 1749 expr 1 - $f1;
#X obj 713 1683 loadbang;
#X obj 607 1706 / 10;
#X obj 607 1727 t f f;
#X obj 553 1770 pack f f f f;
#X obj 504 1703 b;
#X obj 553 1605 nbx 5 14 -1e+37 1e+37 0 0 empty empty empty 0 -8 0
10 -257985 -1 -1 0 256;
#X obj 607 1689 nbx 5 14 -1e+37 1e+37 0 0 empty empty empty 0 -8 0
10 -257985 -1 -1 0 256;
#X msg 703 1710 0;
#X obj 553 1624 / 100;
#X obj 703 1604 bng 15 250 50 0 empty empty proportions_ecran 17 7
0 10 -257985 -1 -1;
#X obj 703 1582 loadbang;
#X obj 437 684 tgl 15 0 empty empty empty 17 7 0 10 -262144 -1 -1 0
1;
#X obj 414 287 gemframebuffer;
#X obj 1062 82 tgl 15 0 empty empty empty 17 7 0 10 -257985 -1 -1 1
1;
#X obj 533 92 sel 0 1;
#X obj 533 73 tgl 15 0 empty empty empty 17 7 0 10 -257985 -1 -1 1
1;
#X floatatom 973 1662 5 0 0 0 - - -, f 5;
#X obj 533 -38 inlet;
#X floatatom 520 942 5 0 0 0 - - -, f 5;
#X obj 1357 2015 gemlist;
#X obj 1357 1987 until;
#X obj 1357 1943 t b a;
#X floatatom 1464 2016 5 0 0 0 - - -, f 5;
#X obj 1357 2120 rotateXYZ 0 12 0;
#X msg 1357 1965 5;
#X floatatom 1429 2102 5 0 0 0 - - -, f 5;
#X obj 1357 2065 translateXYZ 0 0 -1;
#X msg 613 1628 -0.0081;
#X msg 1070 1682 -0.0042;
#X obj 509 313 s FB1;
#X obj 994 303 s FB2;
#X msg 1152 246 dimen 1024 768;
#X obj 418 890 scaleXYZ;
#X obj 701 842 r XFB;
#X obj 760 842 r YFB;
#X msg 879 2301 1920 1080 \, 960 540 \, 480 270 \, 240 135;
#X msg 738 1628 0;
#X msg 1148 1689 0;
#N canvas 317 166 1045 700 demux 0;
#X obj 159 53 inlet;
#X obj 268 51 inlet;
#X obj 268 251 spigot;
#X obj 159 255 spigot;
#X obj 366 48 inlet;
#X obj 366 250 spigot;
#X obj 759 46 inlet;
#X obj 759 78 t a;
#X obj 307 223 r zaza1;
#X obj 405 220 r zaza2;
#X obj 198 226 r zaza0;
#X obj 366 323 t a;
#X obj 366 366 outlet;
#X obj 471 48 inlet;
#X obj 471 250 spigot;
#X obj 510 220 r zaza3;
#X obj 577 46 inlet;
#X obj 577 248 spigot;
#X obj 616 218 r zaza4;
#X obj 759 115 sel 0 1 2 3 4;
#X msg 758 580 \; zaza0 1 \; zaza1 0 \; zaza2 0 \; zaza3 0 \; zaza4
0 \;;
#X msg 776 485 \; zaza0 0 \; zaza1 1 \; zaza2 0 \; zaza3 0 \; zaza4
0 \;;
#X msg 811 313 \; zaza0 0 \; zaza1 0 \; zaza2 0 \; zaza3 1 \; zaza4
0 \;;
#X msg 829 226 \; zaza0 0 \; zaza1 0 \; zaza2 0 \; zaza3 0 \; zaza4
1 \;;
#X msg 794 400 \; zaza0 0 \; zaza1 0 \; zaza2 1 \; zaza3 0 \; zaza4
0 \;;
#X connect 0 0 3 0;
#X connect 1 0 2 0;
#X connect 2 0 11 0;
#X connect 3 0 11 0;
#X connect 4 0 5 0;
#X connect 5 0 11 0;
#X connect 6 0 7 0;
#X connect 7 0 19 0;
#X connect 8 0 2 1;
#X connect 9 0 5 1;
#X connect 10 0 3 1;
#X connect 11 0 12 0;
#X connect 13 0 14 0;
#X connect 14 0 11 0;
#X connect 15 0 14 1;
#X connect 16 0 17 0;
#X connect 17 0 11 0;
#X connect 18 0 17 1;
#X connect 19 0 20 0;
#X connect 19 1 21 0;
#X connect 19 2 24 0;
#X connect 19 3 22 0;
#X connect 19 4 23 0;
#X restore 673 1417 pd demux;
#X floatatom 673 1439 5 0 0 0 - - -, f 5;
#X obj 663 1338 ~/Patchs/captureFB/Blur/blurrs;
#X obj 493 1293 r FB1;
#X obj 726 1392 r FLOU1;
#X obj 1204 1346 r FLOU2;
#X obj 899 -57 tgl 15 0 empty empty empty 17 7 0 10 -262144 -1 -1 0
1;
#X obj 414 -56 tgl 15 0 empty empty empty 17 7 0 10 -262144 -1 -1 0
1;
#X obj 429 496 separator;
#X obj 577 511 send rayurejaune;
#X obj 915 622 separator;
#X obj 915 639 s montagnes;
#X floatatom 396 2174 5 0 0 0 - - -, f 5;
#X obj 915 804 alpha;
#X obj 953 702 tgl 15 0 empty empty empty 17 7 0 10 -262144 -1 -1 0
1;
#X obj 437 760 gemhead 100 b;
#X msg 654 270 color 1 1 1;
#X floatatom 1030 1922 5 0 0 0 - - -, f 5;
#X obj 418 859 translateXYZ 0 0 -7;
#X obj 996 432 separator;
#X obj 996 449 s worldgovernance;
#X floatatom 1039 799 5 0 0 0 - - -, f 5;
#X floatatom 983 928 5 0 0 0 - - -, f 5;
#X floatatom 949 911 5 0 0 0 - - -, f 5;
#X obj 915 945 rotateXYZ 0 0 0;
#X obj 1075 1311 loadbang;
#X obj 1137 1093 r FB2;
#X obj 915 890 scaleXYZ;
#X obj 769 873 r SCALEFB;
#X obj 460 411 separator;
#X obj 580 427 s model3d;
#X obj 915 1955 rectangle 20 20;
#X msg 1062 149 dimen 320 256;
#X obj 444 452 separator;
#X obj 581 466 s desktop;
#X obj 915 859 translateXYZ 0 0 -7.1;
#N canvas 856 139 503 739 14_pass_blur 0;
#X obj 87 102 inlet;
#X obj 87 527 outlet;
#X obj 87 173 single_blur 76 0 64;
#X obj 87 263 single_blur 80 0 16;
#X obj 87 284 single_blur 81 16 0;
#X obj 87 305 single_blur 82 0 8;
#X obj 87 326 single_blur 83 8 0;
#X obj 87 347 single_blur 84 0 4;
#X obj 87 368 single_blur 85 4 0;
#X obj 87 389 single_blur 86 0 2;
#X obj 87 410 single_blur 87 2 0;
#X obj 87 430 single_blur 88 0 1;
#X obj 87 451 single_blur 89 1 0;
#X obj 87 236 single_blur 79 32 0;
#X obj 87 215 single_blur 78 0 32;
#X obj 87 194 single_blur 77 64 0;
#X connect 0 0 2 0;
#X connect 2 0 15 0;
#X connect 3 0 4 0;
#X connect 4 0 5 0;
#X connect 5 0 6 0;
#X connect 6 0 7 0;
#X connect 7 0 8 0;
#X connect 8 0 9 0;
#X connect 9 0 10 0;
#X connect 10 0 11 0;
#X connect 11 0 12 0;
#X connect 12 0 1 0;
#X connect 13 0 3 0;
#X connect 14 0 13 0;
#X connect 15 0 14 0;
#X restore 1153 1185 pd 14_pass_blur;
#X obj 953 770 gemhead 99 b;
#X obj 1303 1245 hradio 15 1 0 2 empty empty empty 0 -8 0 10 -257985
-1 -1 0;
#X obj 1303 1211 loadbang;
#X msg 1303 1228 0;
#X obj 1303 1260 s FLOU2;
#X floatatom 1206 1268 5 0 0 0 - - -, f 5;
#X floatatom 1109 1227 5 0 0 0 - - -, f 5;
#X obj 1199 1316 ~/Patchs/captureFB/Blur/blurrs;
#X obj 1012 394 separator;
#X obj 1012 411 send screencast;
#X msg 1118 204 perspec -1 1 -1 1 1 1000 \, rectangle 0;
#X obj 899 662 separator;
#X obj 899 679 s paysage;
#X obj 475 368 separator;
#X obj 580 385 s oscillo;
#X obj 1071 39 loadbang;
#X msg 1071 56 0;
#X obj 543 29 loadbang;
#X msg 543 46 0;
#X obj 533 210 t a;
#X obj 760 150 loadbang;
#X obj 334 407 separator;
#X obj 334 424 send TXT;
#X obj 899 331 t a a a a a a a a a a a a a a a;
#X obj 414 340 t a a a a a a a a a a a a a a;
#X msg 337 1206 1;
#X obj 859 88 t a;
#X obj 859 584 t a;
#X obj 1390 97 t a;
#X obj 1390 671 t a;
#X msg 535 133 dimen 160 128;
#X obj 1107 1438 declare -path ./100.Effets.glsl;
#X obj 1002 1438 CrossStitching;
#X msg 669 42 dimen 80 64;
#X msg 432 109 type byte;
#X msg 432 129 type int;
#X msg 432 149 type float;
#X obj 432 197 t a;
#X obj 432 219 t a;
#X obj -7 -34 gemhead 20;
#X msg 146 80 dimen 320 240;
#X msg 309 88 color 0 0 1 0;
#X msg 133 61 dimen 1024 1024;
#X msg 298 48 color 0 0 0 0;
#X msg 65 225 rectangle \$1;
#X obj 65 207 tgl 15 0 empty empty empty 0 -6 0 8 -262144 -1 -1 0 1
;
#X msg 25 71 type FLOAT;
#X msg 47 180 texunit \$1;
#X msg 11 32 type BYTE;
#X msg 19 52 type INT;
#X msg 174 172 format YUV;
#X msg 165 151 format RGB;
#X msg 184 193 format RGBA;
#X msg 196 213 format RGB32;
#X floatatom 47 160 5 0 0 0 - - -, f 5;
#X obj 309 67 loadbang;
#X obj 165 238 t a;
#X obj 116 109 t a;
#X obj 298 109 t a;
#X obj 11 104 t a;
#X obj 11 126 t a;
#X obj -7 -51 tgl 15 0 empty empty empty 17 7 0 10 -262144 -1 -1 0
1;
#X msg 116 4 perspec -1 1 -1 1 1 20;
#X msg 124 30 perspec -1 1 -1 1 3 75;
#X text 283 3 default;
#X obj -7 270 t a;
#X msg 1085 128 dimen 1440 900;
#X msg 556 113 dimen 1440 900;
#X msg 616 167 format RGBA \, color 0 0 0 0 \, perspec -1 1 -1 1 1
1000 \, rectangle 0, f 28;
#X msg 568 1845 -0.0081 1.0081 0 1.0081 0 0 -0.0081 0;
#X msg 568 1828 set \$1 \$3 \$2 \$3 \$2 \$4 \$1 \$4;
#X obj 418 1761 t a;
#X obj 377 1778 t a;
#X obj 377 1934 t a;
#X obj 418 728 gemhead 100;
#X obj 414 -38 gemhead 50;
#X obj 899 -37 gemhead 50;
#X obj 915 737 gemhead 99;
#X obj 336 2190 square 20;
#X obj 1455 -39 inlet;
#X obj 1455 315 t a;
#X obj 1455 676 t a;
#X obj 1455 1102 t a;
#X obj 1314 2189 t a;
#X obj 488 2249 electribe_note 0;
#X obj 488 2206 t a;
#X obj 1314 1863 t a;
#X obj 448 2328 cube 20;
#X obj 488 2269 random 180;
#X obj 448 2306 rotateXYZ;
#X obj 448 2206 t a;
#X obj 418 1951 t a;
#X obj 553 1885 t a;
#X obj 798 1201 t a;
#X obj 1117 392 send dodecahedre;
#X obj 1117 375 separator;
#X obj 1177 1242 t a;
#X obj 225 1275 t a;
#X obj 501 2023 hradio 15 1 0 5 empty empty empty 0 -8 0 10 -262144
-1 -1 1;
#X obj 399 2044 muxx.2, f 15;
#X obj 1531 -40 inlet;
#X obj 1536 42 t a;
#X obj 1523 509 t a;
#X obj 1520 1052 t a;
#X obj 1482 1639 t a;
#X connect 0 0 157 0;
#X connect 0 1 89 0;
#X connect 2 0 8 0;
#X connect 3 0 4 0;
#X connect 4 0 0 0;
#X connect 5 0 1 0;
#X connect 6 0 7 0;
#X connect 8 0 128 0;
#X connect 9 0 11 0;
#X connect 11 0 2 0;
#X connect 12 0 2 0;
#X connect 13 0 21 1;
#X connect 14 0 87 0;
#X connect 15 0 21 0;
#X connect 15 1 13 0;
#X connect 16 0 8 1;
#X connect 17 0 21 3;
#X connect 18 0 25 0;
#X connect 19 0 20 0;
#X connect 20 0 21 2;
#X connect 20 1 17 0;
#X connect 21 0 16 0;
#X connect 22 0 21 0;
#X connect 23 0 26 0;
#X connect 24 0 19 0;
#X connect 24 0 22 0;
#X connect 25 0 20 0;
#X connect 26 0 15 0;
#X connect 26 0 75 0;
#X connect 27 0 87 0;
#X connect 27 0 25 0;
#X connect 28 0 27 0;
#X connect 30 0 29 0;
#X connect 31 0 32 0;
#X connect 33 0 4 0;
#X connect 35 0 34 0;
#X connect 36 0 39 0;
#X connect 36 0 144 0;
#X connect 36 0 90 0;
#X connect 37 0 38 0;
#X connect 39 0 4 0;
#X connect 40 0 72 0;
#X connect 41 0 129 0;
#X connect 41 1 200 0;
#X connect 42 0 9 0;
#X connect 43 0 205 0;
#X connect 44 0 115 3;
#X connect 46 0 49 2;
#X connect 47 0 115 0;
#X connect 48 0 49 1;
#X connect 49 0 43 0;
#X connect 50 0 52 0;
#X connect 51 0 159 0;
#X connect 51 0 53 0;
#X connect 52 0 231 0;
#X connect 53 0 231 0;
#X connect 54 0 62 1;
#X connect 55 0 86 0;
#X connect 56 0 62 0;
#X connect 56 1 54 0;
#X connect 57 0 204 0;
#X connect 57 0 226 0;
#X connect 58 0 62 3;
#X connect 59 0 66 0;
#X connect 60 0 61 0;
#X connect 61 0 62 2;
#X connect 61 1 58 0;
#X connect 62 0 57 0;
#X connect 63 0 62 0;
#X connect 64 0 67 0;
#X connect 65 0 60 0;
#X connect 65 0 63 0;
#X connect 66 0 61 0;
#X connect 67 0 56 0;
#X connect 68 0 86 0;
#X connect 68 0 66 0;
#X connect 69 0 68 0;
#X connect 70 0 112 0;
#X connect 70 0 208 0;
#X connect 71 0 158 0;
#X connect 71 1 88 0;
#X connect 72 0 41 0;
#X connect 72 0 162 0;
#X connect 73 0 164 0;
#X connect 73 1 201 0;
#X connect 74 0 73 0;
#X connect 74 0 160 0;
#X connect 76 0 74 0;
#X connect 77 0 49 3;
#X connect 78 0 85 0;
#X connect 79 0 78 0;
#X connect 80 0 83 0;
#X connect 80 1 78 1;
#X connect 81 0 85 3;
#X connect 83 0 79 0;
#X connect 84 0 82 2;
#X connect 85 0 82 0;
#X connect 86 0 56 0;
#X connect 87 0 15 0;
#X connect 90 0 4 0;
#X connect 91 0 49 0;
#X connect 92 0 115 1;
#X connect 92 0 132 1;
#X connect 93 0 115 2;
#X connect 93 0 132 2;
#X connect 95 0 56 0;
#X connect 96 0 15 0;
#X connect 97 0 98 0;
#X connect 100 0 43 1;
#X connect 101 0 97 5;
#X connect 102 0 6 5;
#X connect 103 0 210 0;
#X connect 104 0 209 0;
#X connect 105 0 106 0;
#X connect 107 0 108 0;
#X connect 109 0 212 1;
#X connect 110 0 132 0;
#X connect 111 0 134 0;
#X connect 111 0 211 0;
#X connect 113 0 71 0;
#X connect 114 0 128 2;
#X connect 114 0 128 1;
#X connect 115 0 91 0;
#X connect 116 0 117 0;
#X connect 118 0 132 3;
#X connect 119 0 121 2;
#X connect 120 0 121 1;
#X connect 121 0 2 0;
#X connect 122 0 42 0;
#X connect 122 0 12 0;
#X connect 123 0 140 0;
#X connect 123 0 133 0;
#X connect 124 0 121 0;
#X connect 125 0 124 1;
#X connect 125 0 124 2;
#X connect 125 0 91 1;
#X connect 125 0 91 2;
#X connect 126 0 127 0;
#X connect 129 0 4 0;
#X connect 130 0 131 0;
#X connect 132 0 124 0;
#X connect 135 0 138 0;
#X connect 136 0 137 0;
#X connect 137 0 135 0;
#X connect 140 0 2 1;
#X connect 142 0 143 0;
#X connect 144 0 4 0;
#X connect 145 0 146 0;
#X connect 147 0 148 0;
#X connect 149 0 150 0;
#X connect 150 0 72 0;
#X connect 151 0 152 0;
#X connect 152 0 74 0;
#X connect 153 0 71 0;
#X connect 154 0 202 0;
#X connect 155 0 156 0;
#X connect 157 0 145 0;
#X connect 157 1 107 0;
#X connect 157 2 30 0;
#X connect 157 3 31 0;
#X connect 157 4 35 0;
#X connect 157 5 37 0;
#X connect 157 6 116 0;
#X connect 157 7 229 0;
#X connect 158 0 5 0;
#X connect 158 0 155 0;
#X connect 158 1 105 0;
#X connect 158 2 130 0;
#X connect 158 3 126 0;
#X connect 158 4 147 0;
#X connect 159 0 50 0;
#X connect 160 0 161 0;
#X connect 161 0 227 0;
#X connect 162 0 163 0;
#X connect 163 0 230 0;
#X connect 164 0 153 0;
#X connect 166 0 2 0;
#X connect 167 0 153 0;
#X connect 168 0 171 0;
#X connect 169 0 171 0;
#X connect 170 0 171 0;
#X connect 171 0 172 0;
#X connect 172 0 71 0;
#X connect 173 0 199 0;
#X connect 174 0 191 0;
#X connect 175 0 192 0;
#X connect 176 0 191 0;
#X connect 177 0 192 0;
#X connect 178 0 199 0;
#X connect 179 0 178 0;
#X connect 180 0 193 0;
#X connect 181 0 199 0;
#X connect 182 0 193 0;
#X connect 183 0 193 0;
#X connect 184 0 190 0;
#X connect 185 0 190 0;
#X connect 186 0 190 0;
#X connect 187 0 190 0;
#X connect 188 0 181 0;
#X connect 189 0 175 0;
#X connect 190 0 199 0;
#X connect 191 0 194 0;
#X connect 192 0 194 0;
#X connect 193 0 194 0;
#X connect 194 0 199 0;
#X connect 195 0 173 0;
#X connect 196 0 191 0;
#X connect 197 0 191 0;
#X connect 200 0 4 0;
#X connect 201 0 153 0;
#X connect 202 0 153 0;
#X connect 204 0 203 0;
#X connect 205 0 206 0;
#X connect 206 0 207 0;
#X connect 207 0 225 0;
#X connect 208 0 47 0;
#X connect 209 0 71 0;
#X connect 210 0 0 0;
#X connect 211 0 110 0;
#X connect 213 0 214 0;
#X connect 214 0 215 0;
#X connect 215 0 216 0;
#X connect 216 0 220 0;
#X connect 217 0 219 0;
#X connect 218 0 222 0;
#X connect 219 0 218 0;
#X connect 220 0 217 0;
#X connect 222 0 223 1;
#X connect 222 0 223 2;
#X connect 222 0 223 3;
#X connect 223 0 221 0;
#X connect 224 0 223 0;
#X connect 225 0 233 0;
#X connect 226 0 45 1;
#X connect 227 0 50 0;
#X connect 229 0 228 0;
#X connect 230 0 9 0;
#X connect 231 0 43 0;
#X connect 232 0 233 1;
#X connect 233 0 212 0;
#X connect 233 1 224 0;
#X connect 234 0 235 0;
#X connect 235 0 236 0;
#X connect 236 0 237 0;
#X connect 237 0 238 0;
#X connect 238 0 232 0;
