#N canvas 730 156 624 736 10;
#X obj 264 185 notein;
#X obj 261 410 *;
#X obj 229 328 sel 0;
#X obj 229 301 == \$1;
#X floatatom 289 368 5 0 0 0 - - -, f 5;
#X obj 229 237 stripnote;
#X obj 261 464 outlet;
#X floatatom 205 427 5 0 0 0 - - -, f 5;
#X floatatom 103 307 5 0 0 0 - - -, f 5;
#X obj 371 413 bng 15 250 50 0 empty empty empty 17 7 0 10 -262144
-1 -1;
#X obj 371 318 tempoo;
#X connect 0 0 5 0;
#X connect 0 1 5 1;
#X connect 1 0 7 0;
#X connect 1 0 6 0;
#X connect 2 1 1 0;
#X connect 3 0 2 0;
#X connect 4 0 1 1;
#X connect 5 0 3 0;
#X connect 5 0 8 0;
#X connect 5 1 4 0;
#X connect 10 0 9 0;
