#N canvas 512 138 1071 761 10;
#X obj 510 841 t a;
#X obj 510 824 t a;
#X obj 535 807 loadbang;
#X obj 497 809 bng 15 250 50 0 empty empty empty 17 7 0 10 -262144
-1 -1;
#X msg 466 858 6 0 0;
#X obj 92 43 spigot;
#X obj 92 158 gemlist;
#X obj 92 130 until;
#X obj 92 86 t b a;
#X obj 92 -400 separator;
#X obj 398 523 b;
#X obj 168 429 pack f f;
#X obj 168 454 route 0 1 2;
#X obj 267 -479 inlet;
#X obj 92 -479 r fildefer;
#X obj 207 350 b;
#X obj 168 406 f;
#X floatatom 222 -321 5 0 0 0 - - -, f 5;
#X obj 488 -61 bng 15 250 50 0 empty empty empty 17 7 0 10 -262144
-1 -1;
#X obj 92 -300 translateXYZ 0 0 -4;
#X obj 124 495 rotateXYZ 0 0 0;
#X floatatom 398 -360 5 0 0 0 - - -, f 5;
#X obj -92 837 loadbang;
#X obj 168 308 random 3;
#X msg 379 858 0 1 0;
#X msg 422 858 1 2 0;
#X obj 138 669 t a;
#X obj 298 675 t a;
#X obj 92 -14 scaleXYZ;
#N canvas 1 93 939 682 defaults 0;
#X obj 425 140 t a;
#X obj 425 113 t a;
#X obj 450 96 loadbang;
#X obj 412 98 bng 15 250 50 0 empty empty empty 17 7 0 10 -262144 -1
-1;
#X msg 333 130 res 7;
#X msg 389 204 6 0 0;
#X obj 310 269 polygon 5;
#X msg 345 157 0 1 0;
#X msg 365 180 1 2 0;
#X msg 411 227 1 -2 0;
#X msg 425 251 1 -1 0;
#X connect 0 0 7 0;
#X connect 0 0 8 0;
#X connect 0 0 5 0;
#X connect 0 0 9 0;
#X connect 0 0 10 0;
#X connect 1 0 0 0;
#X connect 1 0 4 0;
#X connect 2 0 1 0;
#X connect 3 0 1 0;
#X connect 4 0 6 0;
#X connect 5 0 6 3;
#X connect 7 0 6 1;
#X connect 8 0 6 2;
#X connect 9 0 6 4;
#X connect 10 0 6 5;
#X restore 398 947 pd defaults;
#X obj 398 667 t a;
#X obj 398 708 * -1;
#X obj 398 -479 inlet;
#X obj 173 -186 t a;
#X msg 173 -126 0;
#X obj 92 187 colorRGB 1 1 1 1;
#X msg 130 -126 0.5;
#X obj 130 -45 t a;
#X obj 398 44 t a;
#X obj 251 208 b;
#X obj 124 875 polygon 4;
#X msg 510 858 1 -2 0;
#X obj 221 676 t a;
#X msg 297 761 \$1 \$1 1;
#X msg 139 757 \$1 \$1 -1;
#X msg 220 760 1 \$1 \$1;
#X msg 398 769 -1 \$1 \$1;
#X obj 124 1021 polygon 2;
#X msg 184 999 0 20 0;
#X msg 154 977 0 3 0;
#X msg -92 858 draw line \, width 2 \, res 4;
#X msg -92 1004 draw line \, width 2 \, res 3;
#X obj -305 469 text3d;
#X obj -244 389 loadbang;
#X obj 92 247 t a a;
#X obj -305 264 separator;
#X floatatom -223 291 5 0 0 0 - - -, f 5;
#X msg -266 448 30;
#X obj 518 12 tgl 15 0 empty empty empty 17 7 0 10 -262144 -1 -1 0
1;
#X obj -305 318 translateXYZ 0 5 0;
#N canvas 1 93 635 596 backup 0;
#X obj 223 407 t a;
#X obj 223 380 t a;
#X obj 248 363 loadbang;
#X obj 210 365 bng 15 250 50 0 empty empty empty 17 7 0 10 -262144
-1 -1;
#X msg 126 397 res 7;
#X msg 184 471 6 0 0;
#X obj 321 8 b;
#X msg 145 424 0 1 0;
#X msg 165 447 1 2 0;
#X msg 204 494 1 -2 0;
#X msg 223 518 1 -1 0;
#X obj 99 107 t a;
#X obj 99 174 line;
#X msg 185 196 \$1 \$1 0;
#X obj 185 112 t a;
#X obj 185 175 line;
#X obj 347 88 t a;
#X obj 347 172 line;
#X obj 347 130 * -1;
#X msg 99 153 \$1 800;
#N canvas 1 93 939 682 defaults 0;
#X obj 425 140 t a;
#X obj 425 113 t a;
#X obj 450 96 loadbang;
#X obj 412 98 bng 15 250 50 0 empty empty empty 17 7 0 10 -262144 -1
-1;
#X msg 333 130 res 7;
#X msg 389 204 6 0 0;
#X obj 310 269 polygon 5;
#X msg 345 157 0 1 0;
#X msg 365 180 1 2 0;
#X msg 411 227 1 -2 0;
#X msg 425 251 1 -1 0;
#X connect 0 0 7 0;
#X connect 0 0 8 0;
#X connect 0 0 5 0;
#X connect 0 0 9 0;
#X connect 0 0 10 0;
#X connect 1 0 0 0;
#X connect 1 0 4 0;
#X connect 2 0 1 0;
#X connect 3 0 1 0;
#X connect 4 0 6 0;
#X connect 5 0 6 3;
#X connect 7 0 6 1;
#X connect 8 0 6 2;
#X connect 9 0 6 4;
#X connect 10 0 6 5;
#X restore 329 299 pd defaults;
#X obj 265 93 t a;
#X obj 265 175 line;
#X obj 265 134 * -1;
#X msg 265 195 \$1 0 0;
#X msg 433 193 \$1 \$1 0;
#X obj 433 109 t a;
#X obj 433 172 line;
#X msg 511 194 \$1 \$1 0;
#X obj 511 104 t a;
#X obj 511 173 line;
#X msg 511 153 \$1 800;
#X msg 100 195 -10 \$1 0;
#X msg 433 151 \$1 800;
#X msg 347 151 \$1 800;
#X msg 265 155 \$1 800;
#X msg 186 154 \$1 800;
#X obj 265 113 random 5;
#X obj 347 109 random 5;
#X obj 511 130 random 5;
#X obj 99 130 random 5;
#X obj 185 133 random 2;
#X obj 433 130 random 2;
#X msg 347 194 \$1 \$1 0;
#X obj 126 313 polygon 7 ----------;
#X connect 0 0 7 0;
#X connect 0 0 8 0;
#X connect 0 0 5 0;
#X connect 0 0 9 0;
#X connect 0 0 10 0;
#X connect 1 0 0 0;
#X connect 1 0 4 0;
#X connect 2 0 1 0;
#X connect 3 0 1 0;
#X connect 4 0 44 0;
#X connect 5 0 44 3;
#X connect 6 0 11 0;
#X connect 6 0 14 0;
#X connect 6 0 16 0;
#X connect 6 0 21 0;
#X connect 6 0 26 0;
#X connect 6 0 29 0;
#X connect 7 0 44 1;
#X connect 8 0 44 2;
#X connect 9 0 44 4;
#X connect 10 0 44 5;
#X connect 11 0 40 0;
#X connect 12 0 32 0;
#X connect 13 0 44 3;
#X connect 14 0 41 0;
#X connect 15 0 13 0;
#X connect 16 0 38 0;
#X connect 17 0 43 0;
#X connect 18 0 34 0;
#X connect 19 0 12 0;
#X connect 21 0 37 0;
#X connect 22 0 24 0;
#X connect 23 0 35 0;
#X connect 24 0 44 4;
#X connect 25 0 44 6;
#X connect 26 0 42 0;
#X connect 27 0 25 0;
#X connect 28 0 44 7;
#X connect 29 0 39 0;
#X connect 30 0 28 0;
#X connect 31 0 30 0;
#X connect 32 0 44 1;
#X connect 33 0 27 0;
#X connect 34 0 17 0;
#X connect 35 0 22 0;
#X connect 36 0 15 0;
#X connect 37 0 23 0;
#X connect 38 0 18 0;
#X connect 39 0 31 0;
#X connect 40 0 19 0;
#X connect 41 0 36 0;
#X connect 42 0 33 0;
#X connect 43 0 44 5;
#X restore 843 377 pd backup;
#X obj 518 27 metro 1000;
#X obj 221 697 random 20;
#X obj 298 696 random 20;
#X obj 138 692 random 20;
#X obj 398 687 random 20;
#X msg 138 715 \$1 1800;
#X obj 173 -146 pipe 200;
#X obj 398 -304 electribe_note 3;
#X obj 251 333 line_;
#X obj 138 736 line_;
#X obj 221 739 line_;
#X obj 298 738 line_;
#X obj 398 749 line_;
#X msg 222 718 \$1 300;
#X msg 299 717 \$1 600;
#X msg 398 730 \$1 300;
#X obj 488 -184 bng 15 250 50 0 empty empty empty 17 7 0 10 -262144
-1 -1;
#X obj 488 -205 ../100.Input/lpd8/lpd8_pad 42;
#X msg -282 418 text free \, font /usr/share/fonts/truetype/f500/f500.ttf
;
#X msg 92 108 17;
#X obj 173 -72 spigot;
#X obj 212 -92 toggle2;
#X obj 267 26 t a;
#X obj 620 -413 t a;
#X obj 251 283 - 90;
#X obj 251 250 random 180;
#X msg 251 307 \$1 1000;
#X obj 92 -216 scaleXYZ;
#X obj 130 -247 t a;
#X floatatom 216 -271 5 0 0 0 - - -, f 5;
#X connect 0 0 24 0;
#X connect 0 0 25 0;
#X connect 0 0 4 0;
#X connect 0 0 41 0;
#X connect 1 0 0 0;
#X connect 2 0 1 0;
#X connect 3 0 1 0;
#X connect 4 0 40 3;
#X connect 5 0 8 0;
#X connect 6 0 35 0;
#X connect 7 0 6 0;
#X connect 8 0 80 0;
#X connect 8 1 6 1;
#X connect 9 0 19 0;
#X connect 10 0 26 0;
#X connect 10 0 27 0;
#X connect 10 0 30 0;
#X connect 10 0 42 0;
#X connect 11 0 12 0;
#X connect 12 0 20 1;
#X connect 12 1 20 2;
#X connect 12 2 20 3;
#X connect 13 0 83 0;
#X connect 14 0 9 0;
#X connect 15 0 16 0;
#X connect 16 0 11 0;
#X connect 17 0 19 3;
#X connect 18 0 38 0;
#X connect 19 0 88 0;
#X connect 20 0 40 0;
#X connect 21 0 68 0;
#X connect 22 0 50 0;
#X connect 22 0 51 0;
#X connect 23 0 16 0;
#X connect 24 0 40 1;
#X connect 25 0 40 2;
#X connect 26 0 64 0;
#X connect 27 0 63 0;
#X connect 28 0 5 0;
#X connect 30 0 65 0;
#X connect 31 0 76 0;
#X connect 32 0 21 0;
#X connect 33 0 36 0;
#X connect 33 0 67 0;
#X connect 34 0 81 0;
#X connect 35 0 54 0;
#X connect 36 0 37 0;
#X connect 37 0 28 2;
#X connect 37 0 28 3;
#X connect 37 0 28 1;
#X connect 38 0 10 0;
#X connect 38 0 39 0;
#X connect 38 0 33 0;
#X connect 39 0 23 0;
#X connect 39 0 86 0;
#X connect 40 0 47 0;
#X connect 41 0 40 4;
#X connect 42 0 62 0;
#X connect 43 0 40 3;
#X connect 44 0 40 1;
#X connect 45 0 40 2;
#X connect 46 0 40 4;
#X connect 48 0 47 2;
#X connect 49 0 47 1;
#X connect 50 0 40 0;
#X connect 51 0 47 0;
#X connect 53 0 79 0;
#X connect 53 0 57 0;
#X connect 54 0 55 0;
#X connect 54 1 20 0;
#X connect 55 0 59 0;
#X connect 56 0 59 2;
#X connect 57 0 52 1;
#X connect 58 0 61 0;
#X connect 59 0 52 0;
#X connect 61 0 38 0;
#X connect 62 0 74 0;
#X connect 63 0 75 0;
#X connect 64 0 66 0;
#X connect 65 0 31 0;
#X connect 66 0 70 0;
#X connect 67 0 34 0;
#X connect 68 0 38 0;
#X connect 69 0 11 1;
#X connect 69 0 15 0;
#X connect 70 0 44 0;
#X connect 71 0 45 0;
#X connect 72 0 43 0;
#X connect 73 0 46 0;
#X connect 74 0 71 0;
#X connect 75 0 72 0;
#X connect 76 0 73 0;
#X connect 77 0 18 0;
#X connect 78 0 77 0;
#X connect 79 0 52 0;
#X connect 80 0 7 0;
#X connect 81 0 37 0;
#X connect 82 0 81 1;
#X connect 83 0 5 1;
#X connect 85 0 87 0;
#X connect 86 0 85 0;
#X connect 87 0 69 0;
#X connect 88 0 28 0;
#X connect 89 0 88 2;
#X connect 89 0 88 3;
#X connect 89 0 88 1;
#X connect 90 0 89 0;
