#N canvas 400 132 643 639 10;
#X obj 300 402 pix_texture;
#X obj 295 951 loadbang;
#X obj 424 977 openpanel;
#X msg 424 996 set \$1;
#X obj 424 960 bng 15 250 50 0 empty empty empty 17 7 0 10 -262144
-1 -1;
#X obj 295 1040 route 1 2 3 4 5 6 7 8 9;
#X obj 300 -1 r GEMHEADglissade;
#X obj 264 -18 tgl 15 0 empty empty empty 17 7 0 10 -262144 -1 -1 0
1;
#X obj 300 487 translateXYZ 0 0 1;
#X obj 391 170 r YY;
#X obj 264 -40 r GLISSADEHEAD;
#X text 293 931 chargemebt des textures toutes les 10 secondes;
#X obj 281 936 cnv 10 10 10 empty empty empty 20 12 0 14 -258113 -66577
0;
#X obj 295 1016 random 9;
#X msg 328 46 set 60;
#X obj 300 70 gemhead 60;
#X obj 295 1267 t a;
#X obj 188 323 loadbang;
#X obj 322 981 metro 1000;
#X obj 159 300 r init_Glissade;
#N canvas 44 86 729 700 ligne 0;
#X obj 355 519 GEMglEnd;
#X obj 492 228 GLdefine GL_SMOOTH;
#X obj 356 292 GEMglBegin;
#X obj 356 245 GEMglShadeModel;
#X obj 355 542 GEMglShadeModel;
#X obj 498 525 GLdefine GL_FLAT;
#X obj 492 275 GLdefine GL_LINES;
#X msg 523 161 bang;
#X msg 86 502 font /usr/share/fonts/truetype/ttf-f500/f500.ttf;
#X obj 356 339 GEMglColor4f 1 1 1 1;
#X obj 356 412 GEMglColor4f 1 1 1 1;
#X obj 563 144 loadbang;
#X obj 523 118 r init_Glissade;
#X obj 356 151 inlet;
#X obj 356 358 GEMglVertex3f 0 300 0;
#X obj 355 434 GEMglVertex3f 0 -300 0;
#X connect 0 0 4 0;
#X connect 1 0 3 1;
#X connect 2 0 9 0;
#X connect 3 0 2 0;
#X connect 5 0 4 1;
#X connect 6 0 2 1;
#X connect 7 0 5 0;
#X connect 7 0 1 0;
#X connect 7 0 6 0;
#X connect 9 0 14 0;
#X connect 10 0 15 0;
#X connect 11 0 7 0;
#X connect 12 0 7 0;
#X connect 13 0 3 0;
#X connect 14 0 10 0;
#X connect 15 0 0 0;
#X restore 23 705 pd ligne;
#X obj 300 100 scaleXYZ 3 3 3;
#X obj 300 443 scaleXYZ 3 3 3;
#X msg 295 1203 open ../../Medias/007.Glissade/22.jpg;
#X msg 295 1223 open ../../Medias/007.Glissade/24.jpg;
#X msg 295 1243 open ../../Medias/007.Glissade/26.jpg;
#X msg 295 1163 open ../../Medias/007.Glissade/18.jpg;
#X msg 295 1183 open ../../Medias/007.Glissade/19.jpg;
#X msg 295 1144 open ../../Medias/007.Glissade/13.jpg;
#X msg 295 1123 open ../../Medias/007.Glissade/5.jpg;
#X msg 295 1104 open ../../Medias/007.Glissade/4.jpg;
#X msg 295 1083 open ../../Medias/2.jpg;
#X msg 188 346 thread 0;
#X obj 297 896 pix_multiimage;
#X obj 300 292 colorRGB 1 1 1 1;
#X obj 300 195 translateXYZ 0 0 -10;
#X obj 300 363 pix_image ./bipolare.pln.4.png;
#X obj 300 628 rotateXYZ;
#X obj 300 699 translateXYZ;
#X obj 300 723 cube;
#X msg 213 706 draw line;
#X obj 213 686 loadbang;
#X obj 300 799 rectangle;
#X obj 300 761 translateXYZ 0 0 1;
#X obj 453 548 r boumTransX;
#X obj 453 670 line;
#X obj 390 645 line;
#X obj 334 606 line;
#X obj 334 565 random 360;
#X obj 453 629 random 10;
#X obj 390 604 random 10;
#X msg 390 625 \$1 500;
#X msg 453 650 \$1 500;
#X msg 334 586 \$1 500;
#X obj 300 532 t a;
#X obj 537 722 f;
#X connect 0 0 22 0;
#X connect 1 0 13 0;
#X connect 1 0 18 0;
#X connect 2 0 3 0;
#X connect 4 0 2 0;
#X connect 5 0 31 0;
#X connect 5 1 30 0;
#X connect 5 2 29 0;
#X connect 5 3 28 0;
#X connect 5 4 26 0;
#X connect 5 5 27 0;
#X connect 5 6 23 0;
#X connect 5 7 24 0;
#X connect 5 8 25 0;
#X connect 6 0 15 0;
#X connect 7 0 15 0;
#X connect 8 0 54 0;
#X connect 9 0 35 2;
#X connect 10 0 7 0;
#X connect 13 0 5 0;
#X connect 14 0 15 0;
#X connect 15 0 21 0;
#X connect 17 0 32 0;
#X connect 19 0 32 0;
#X connect 21 0 35 0;
#X connect 22 0 8 0;
#X connect 23 0 16 0;
#X connect 24 0 16 0;
#X connect 25 0 16 0;
#X connect 26 0 16 0;
#X connect 27 0 16 0;
#X connect 28 0 16 0;
#X connect 29 0 16 0;
#X connect 30 0 16 0;
#X connect 31 0 16 0;
#X connect 32 0 36 0;
#X connect 34 0 36 0;
#X connect 35 0 34 0;
#X connect 36 0 0 0;
#X connect 37 0 38 0;
#X connect 38 0 39 0;
#X connect 39 0 43 0;
#X connect 40 0 39 0;
#X connect 41 0 40 0;
#X connect 43 0 42 0;
#X connect 44 0 48 0;
#X connect 44 0 49 0;
#X connect 44 0 50 0;
#X connect 45 0 38 3;
#X connect 46 0 38 1;
#X connect 47 0 37 2;
#X connect 48 0 53 0;
#X connect 49 0 52 0;
#X connect 50 0 51 0;
#X connect 51 0 46 0;
#X connect 52 0 45 0;
#X connect 53 0 47 0;
#X connect 54 0 37 0;
