#N canvas 481 128 937 771 10;
#X obj 307 298 bng 15 250 50 0 empty empty empty 17 7 0 10 -262144
-1 -1;
#X floatatom 416 51 5 0 0 0 - - -, f 5;
#X msg 422 88 1;
#X obj 422 71 loadbang;
#X obj 321 333 s boumRotY;
#X obj 291 359 s boumTransX;
#X obj 413 343 s boumTransZ;
#X obj 416 111 s sizeY;
#X obj 738 455 s SetRndTransZ;
#X obj 749 434 s SetRndTransX;
#X obj 728 479 s SetRndRotY;
#X obj 540 234 s GEMHEADglissade;
#X obj 873 445 s YY;
#X obj 740 409 nbx 4 17 -1e+37 1e+37 0 0 empty empty Espacement 0 -8
1 9 -228856 -1 -1 0 256;
#X obj 873 415 nbx 4 17 -1e+37 1e+37 0 0 empty empty Hauteur 0 -8 1
9 -228856 -1 -1 0 256;
#X obj 367 211 bpmgen;
#X obj 541 210 toggle2;
#X obj 332 146 taptempo;
#X obj 408 260 QuartTemps;
#X obj 416 308 bng 15 250 50 0 empty empty empty 17 7 0 10 -262144
-1 -1;
#X obj 581 414 hradio 17 1 0 5 empty empty empty 0 -8 0 10 -228856
-1 -1 0;
#X obj 600 448 s preset_pmpd;
#X floatatom 555 449 5 0 0 0 - - -, f 5;
#X obj 101 898 ./cube_glissadee;
#X obj 100 845 ./cube_glissade_linee;
#X obj 101 871 ./cube_simple_glissade_linee;
#X obj 720 281 s init_Glissade;
#X obj 721 239 loadbang;
#X obj 791 246 bng 15 250 50 0 empty empty empty 17 7 0 10 -262144
-1 -1;
#X obj 688 60 tempo;
#X obj 306 262 QuartTemps;
#X obj 689 171 bng 15 250 50 0 empty empty empty 17 7 0 10 -262144
-1 -1;
#X obj 169 228 electribe_note 9;
#X obj 164 12 inlet;
#X obj 246 316 t a;
#X obj 116 464 ./cube_glissade.2;
#X obj 116 494 ./cube_glissade.2;
#X obj 116 524 ./cube_glissade.2;
#X obj 116 554 ./cube_glissade.2;
#X obj 116 584 ./cube_glissade.2;
#X obj 116 614 ./cube_glissade.2;
#X obj 116 644 ./cube_glissade.2;
#X obj 116 674 ./cube_glissade.2;
#X obj 437 830 pix_coordinate;
#X obj 559 653 expr 1 - $f1;
#X obj 592 569 loadbang;
#X obj 532 627 t f f;
#X msg 532 802 \$1 \$3 \$2 \$3 \$2 \$4 \$1 \$4;
#X obj 613 746 expr 1 - $f1;
#X obj 692 672 loadbang;
#X obj 586 697 / 10;
#X obj 586 720 t f f;
#X obj 532 769 pack f f f f;
#X obj 483 692 b;
#X obj 532 585 nbx 5 14 -1e+37 1e+37 0 0 empty empty empty 0 -8 0 10
-257985 -1 -1 0 256;
#X obj 586 678 nbx 5 14 -1e+37 1e+37 0 0 empty empty empty 0 -8 0 10
-257985 -1 -1 0 256;
#X msg 682 703 0;
#X obj 532 604 / 100;
#X obj 682 573 bng 15 250 50 0 empty empty proportions_ecran 17 7 0
10 -257985 -1 -1;
#X obj 682 549 loadbang;
#X floatatom 495 590 5 0 0 0 - - -, f 5;
#X msg 592 610 -0.0042;
#X msg 670 617 0;
#X connect 0 0 4 0;
#X connect 0 0 5 0;
#X connect 1 0 7 0;
#X connect 2 0 7 0;
#X connect 3 0 2 0;
#X connect 13 0 9 0;
#X connect 13 0 8 0;
#X connect 14 0 12 0;
#X connect 15 0 30 0;
#X connect 15 0 18 0;
#X connect 16 0 11 0;
#X connect 17 0 15 0;
#X connect 19 0 6 0;
#X connect 20 0 21 0;
#X connect 20 0 22 0;
#X connect 27 0 26 0;
#X connect 28 0 26 0;
#X connect 29 0 31 0;
#X connect 32 0 34 0;
#X connect 33 0 32 0;
#X connect 34 0 0 0;
#X connect 34 0 19 0;
#X connect 44 0 52 1;
#X connect 45 0 61 0;
#X connect 46 0 52 0;
#X connect 46 1 44 0;
#X connect 47 0 43 1;
#X connect 48 0 52 3;
#X connect 49 0 56 0;
#X connect 50 0 51 0;
#X connect 51 0 52 2;
#X connect 51 1 48 0;
#X connect 52 0 47 0;
#X connect 53 0 52 0;
#X connect 54 0 57 0;
#X connect 55 0 50 0;
#X connect 55 0 53 0;
#X connect 56 0 51 0;
#X connect 57 0 46 0;
#X connect 57 0 60 0;
#X connect 58 0 61 0;
#X connect 58 0 56 0;
#X connect 59 0 58 0;
#X connect 61 0 46 0;
#X connect 62 0 46 0;
#X coords 0 771 1 770 156 118 0;
