#N canvas 5 86 1357 813 10;
#X obj 218 550 model;
#X msg 229 522 open \$1;
#X obj 229 501 openpanel;
#X obj 229 482 bng 15 250 50 0 empty empty empty 17 7 0 10 -191407
-1 -1;
#X floatatom 281 390 5 0 0 0 - - -, f 5;
#X msg 308 518 set \$1;
#X obj 54 513 loadbang;
#X msg 54 533 open montagne.obj;
#X obj 218 315 GEMglPolygonMode;
#X obj 327 218 loadbang;
#X obj 272 235 GLdefine GL_FRONT_AND_BACK;
#X obj 255 237 bng 15 250 50 0 empty empty empty 17 7 0 10 -257985
-1 -1;
#X obj 218 707 GEMglPolygonMode;
#X obj 272 670 GLdefine GL_FRONT_AND_BACK;
#X obj 272 650 loadbang;
#X obj 254 672 bng 15 250 50 0 empty empty empty 17 7 0 10 -257985
-1 -1;
#X obj 327 687 GLdefine GL_FILL;
#X obj 950 -211 electribe_note;
#X floatatom 931 -327 5 0 0 0 - - -, f 5;
#X obj 931 -809 inlet;
#X obj 1065 -194 bng 15 250 50 0 empty empty empty 17 7 0 10 -262144
-1 -1;
#X obj 750 -592 alpha;
#X obj 379 298 GLdefine GL_FILL;
#X obj 379 283 bng 15 250 50 0 empty empty empty 17 7 0 10 -257985
-1 -1;
#X obj 159 297 t f;
#X msg 1022 -61 0;
#X obj 950 -98 t b b;
#X msg 982 -60 1;
#X obj 789 -807 inlet;
#X obj 750 -698 spigot;
#X obj 750 -837 r montagnes;
#X obj 750 -667 separator;
#X obj 1022 -26 pipe 350;
#X obj 218 404 scaleXYZ 2 2 2;
#X obj 187 171 model;
#X msg 198 143 open \$1;
#X obj 198 122 openpanel;
#X obj 198 103 bng 15 250 50 0 empty empty empty 17 7 0 10 -191407
-1 -1;
#X floatatom 241 36 5 0 0 0 - - -, f 5;
#X msg 277 139 set \$1;
#X msg 236 176 /home/rep/LIVE/VJSET_backup/LIVE3/001_Paysage/montagne.obj
;
#X obj 34 70 loadbang;
#X obj 187 -175 t a;
#X obj 187 -119 t a;
#X obj 750 -144 t a;
#X obj 750 -45 t a;
#X obj 250 -28 r SCREEN;
#X obj 187 0 pix_texture;
#X obj 750 -209 t a a;
#X obj 982 -9 t f;
#X msg 804 -25 \$1;
#X obj 804 -45 tgl 15 0 empty empty empty 17 7 0 10 -262144 -1 -1 0
1;
#X floatatom 845 -311 5 0 0 0 - - -, f 5;
#X obj 770 -415 tgl 15 0 empty empty empty 17 7 0 10 -262144 -1 -1
1 1;
#X obj 750 -235 rotateXYZ;
#X obj 784 -286 line;
#X obj 770 -398 metro 300;
#X obj 784 -328 / 4;
#X obj 770 -463 loadbang;
#X msg 770 -438 1;
#X obj 750 9 colorRGB 1 1 1 1;
#X obj 187 65 scaleXYZ 1.1 1.1 1.1;
#X msg 784 -306 \$1 1000;
#X obj 327 252 GLdefine GL_POINT;
#X floatatom 840 86 5 1 64 0 - - -, f 5;
#X obj 750 537 model;
#X msg 761 509 open \$1;
#X obj 761 488 openpanel;
#X obj 761 469 bng 15 250 50 0 empty empty empty 17 7 0 10 -191407
-1 -1;
#X msg 840 505 set \$1;
#X obj 596 500 loadbang;
#X obj 750 320 GEMglPolygonMode;
#X obj 827 215 loadbang;
#X obj 804 246 GLdefine GL_FRONT_AND_BACK;
#X obj 787 248 bng 15 250 50 0 empty empty empty 17 7 0 10 -257985
-1 -1;
#X obj 750 755 GEMglPolygonMode;
#X obj 812 708 GLdefine GL_FRONT_AND_BACK;
#X obj 842 665 loadbang;
#X obj 910 682 bng 15 250 50 0 empty empty empty 17 7 0 10 -257985
-1 -1;
#X obj 859 730 GLdefine GL_FILL;
#X obj 891 303 GLdefine GL_FILL;
#X obj 891 288 bng 15 250 50 0 empty empty empty 17 7 0 10 -257985
-1 -1;
#X obj 691 302 t f;
#X obj 859 263 GLdefine GL_LINE;
#X obj 379 334 GLdefine GL_LINE;
#X obj 379 319 bng 15 250 50 0 empty empty empty 17 7 0 10 -262144
-1 -1;
#X floatatom 925 97 5 0 0 0 - - -, f 5;
#X floatatom 388 -126 5 0 0 0 - - -, f 5;
#X obj 187 -69 colorRGB 1 1 1 0.2;
#X obj 1051 -809 r root;
#X msg 240 -149 0;
#X obj 269 -116 t a;
#X msg 297 -146 1;
#X obj 750 112 GEMglPointSize 2;
#X obj 770 -378 cyclone/MouseStatee;
#X obj 839 -713 tgl 15 0 empty empty empty 17 7 0 10 -262144 -1 -1
0 1;
#X obj 750 -532 scaleXYZ 3 3 3;
#X floatatom 813 -575 5 0 0 0 - - -, f 5;
#X obj 984 -140 line;
#X obj 813 -559 t f;
#X msg 984 -160 10 \, 1 300;
#X obj 1051 -348 t a;
#X obj 696 -192 t a;
#X msg 34 90 open montagne.2.obj;
#X msg 596 520 open montagne.2.obj;
#X obj 850 -55 line;
#X msg 850 -75 1 \, 0 300;
#X obj 750 -643 translateXYZ 0 -5 0;
#X connect 0 0 12 0;
#X connect 1 0 0 0;
#X connect 2 0 1 0;
#X connect 2 0 5 0;
#X connect 3 0 2 0;
#X connect 4 0 33 1;
#X connect 4 0 33 2;
#X connect 4 0 33 3;
#X connect 6 0 7 0;
#X connect 7 0 0 0;
#X connect 8 0 33 0;
#X connect 9 0 10 0;
#X connect 9 0 63 0;
#X connect 10 0 8 1;
#X connect 11 0 10 0;
#X connect 11 0 63 0;
#X connect 13 0 12 1;
#X connect 14 0 13 0;
#X connect 14 0 16 0;
#X connect 15 0 13 0;
#X connect 15 0 16 0;
#X connect 16 0 12 2;
#X connect 17 0 20 0;
#X connect 17 0 26 0;
#X connect 17 0 100 0;
#X connect 17 0 106 0;
#X connect 18 0 17 0;
#X connect 19 0 18 0;
#X connect 21 0 96 0;
#X connect 22 0 8 2;
#X connect 23 0 22 0;
#X connect 24 0 8 2;
#X connect 25 0 32 0;
#X connect 26 1 27 0;
#X connect 26 1 25 0;
#X connect 27 0 49 0;
#X connect 28 0 29 1;
#X connect 29 0 31 0;
#X connect 30 0 29 0;
#X connect 31 0 107 0;
#X connect 32 0 49 0;
#X connect 33 0 0 0;
#X connect 35 0 34 0;
#X connect 36 0 35 0;
#X connect 36 0 39 0;
#X connect 37 0 36 0;
#X connect 38 0 61 1;
#X connect 38 0 61 2;
#X connect 38 0 61 3;
#X connect 39 0 40 0;
#X connect 41 0 103 0;
#X connect 42 0 43 0;
#X connect 43 0 88 0;
#X connect 44 0 45 0;
#X connect 45 0 60 0;
#X connect 46 0 47 1;
#X connect 48 0 102 0;
#X connect 48 1 44 0;
#X connect 50 0 60 2;
#X connect 50 0 60 3;
#X connect 50 0 60 1;
#X connect 51 0 50 0;
#X connect 53 0 56 0;
#X connect 54 0 48 0;
#X connect 55 0 54 2;
#X connect 56 0 94 0;
#X connect 57 0 62 0;
#X connect 58 0 59 0;
#X connect 59 0 53 0;
#X connect 60 0 93 0;
#X connect 61 0 34 0;
#X connect 62 0 55 0;
#X connect 63 0 8 2;
#X connect 64 0 93 1;
#X connect 65 0 75 0;
#X connect 66 0 65 0;
#X connect 67 0 66 0;
#X connect 67 0 69 0;
#X connect 68 0 67 0;
#X connect 70 0 104 0;
#X connect 71 0 65 0;
#X connect 72 0 73 0;
#X connect 72 0 83 0;
#X connect 73 0 71 1;
#X connect 74 0 73 0;
#X connect 74 0 83 0;
#X connect 76 0 75 1;
#X connect 77 0 76 0;
#X connect 77 0 79 0;
#X connect 78 0 76 0;
#X connect 78 0 79 0;
#X connect 79 0 75 2;
#X connect 80 0 71 2;
#X connect 81 0 80 0;
#X connect 82 0 71 2;
#X connect 83 0 71 2;
#X connect 84 0 8 2;
#X connect 85 0 84 0;
#X connect 87 0 88 4;
#X connect 88 0 61 0;
#X connect 89 0 101 0;
#X connect 90 0 91 0;
#X connect 91 0 88 2;
#X connect 91 0 88 3;
#X connect 91 0 88 1;
#X connect 92 0 91 0;
#X connect 93 0 71 0;
#X connect 94 1 52 0;
#X connect 94 1 57 0;
#X connect 95 0 29 1;
#X connect 96 0 54 0;
#X connect 97 0 99 0;
#X connect 99 0 96 1;
#X connect 99 0 96 2;
#X connect 99 0 96 3;
#X connect 100 0 98 0;
#X connect 101 0 54 2;
#X connect 103 0 34 0;
#X connect 104 0 65 0;
#X connect 105 0 60 4;
#X connect 106 0 105 0;
#X connect 107 0 21 0;
#X coords 0 813 1 812 256 32 0;
