#N canvas 154 209 1360 690 10;
#X obj 543 595 loadbang;
#X obj 235 869 t a b;
#X obj 513 721 until;
#X obj 513 745 f;
#X obj 544 746 + 1;
#X msg 563 717 0;
#X obj 513 767 t f f;
#X obj 443 827 * 7;
#X obj 443 806 - 0.5;
#X obj 547 962 loadbang;
#X msg 733 983 draw points;
#X floatatom 543 671 5 0 0 0 - - -, f 5;
#X obj 443 784 /;
#X obj 543 694 t f b f f;
#X msg 603 860 resize \$1;
#X obj 603 882 t a a a;
#X obj 443 848 tabwrite phasor;
#X obj 626 925 s sound;
#X obj 649 904 s phasor;
#X obj 570 617 bng 15 250 50 0 empty empty empty 17 7 0 10 -262144
-1 -1;
#X obj 235 489 gemlist;
#X obj 235 461 until;
#X obj 235 417 t b a;
#X msg 829 983 draw line;
#X obj 1153 188 f;
#X obj 1207 188 + 1;
#X obj 1153 69 bng 15 250 50 0 empty empty empty 17 7 0 10 -262144
-1 -1;
#X msg 1294 188 stop;
#X obj 1294 161 sel 1;
#X obj 1153 90 t b b;
#X msg 1207 107 -1;
#X obj 1153 266 t f f;
#X obj 274 -137 inlet;
#X msg 267 891 posX POSXX \, posY POSYY \, posZ POSZZ;
#X msg 931 345 \; POSYY const 0;
#X msg 930 405 \; POSZZ const 0;
#X msg 933 282 \; POSXX const 0;
#X obj 1153 152 metro 1;
#X obj 56 -56 r oscillo;
#X obj 235 139 spigot;
#X floatatom 221 63 5 0 0 0 - - -, f 5;
#X obj 700 209 oscillo.tabwrite;
#X floatatom 166 63 5 0 0 0 - - -, f 5;
#X floatatom 111 63 5 0 0 0 - - -, f 5;
#X obj 235 1042 pix_separator;
#X floatatom 92 -5 5 0 0 0 - - -, f 5;
#X floatatom 333 292 5 0 0 0 hauteur - -, f 5;
#X floatatom 344 173 5 0 0 0 - - -, f 5;
#X obj 235 201 GEMglPointSize 5;
#X obj 1153 47 loadbang;
#X floatatom 367 488 5 0 0 0 - - -, f 5;
#X floatatom 379 291 5 0 0 0 - - -, f 5;
#X obj 700 175 *~;
#X obj 718 158 tgl 15 0 empty empty empty 17 7 0 10 -262144 -1 -1 1
1;
#X obj 768 176 *~;
#X obj 786 158 tgl 15 0 empty empty empty 17 7 0 10 -262144 -1 -1 1
1;
#X obj 379 272 / 100;
#X floatatom 379 256 5 0 0 0 largeur - -, f 5;
#X obj 235 516 rotateXYZ 180 0 0;
#X msg 421 367 set 2;
#X obj 545 321 f 180;
#X obj 477 274 bng 15 250 50 0 empty empty empty 17 7 0 10 -262144
-1 -1;
#X obj 566 345 bng 15 250 50 0 empty empty empty 17 7 0 10 -262144
-1 -1;
#X obj 477 232 route 0 1;
#X obj 477 -141 inlet;
#X obj 0 -23 gemhead a;
#X obj 56 122 t a;
#X obj 12 37 alpha;
#X obj 235 1078 colorRGB 1 1 1 1;
#X obj 459 422 t a;
#X obj 545 496 t a;
#X floatatom 143 -37 5 0 0 0 - - -, f 5;
#X obj 825 58 vsl 15 128 0 127 0 0 empty empty empty 0 -9 0 10 -262144
-1 -1 0 1;
#X obj 271 782 colorRGB 1 1 1 0.5;
#X obj 325 673 f;
#X obj 356 673 + 1;
#X obj 325 693 % 2;
#X obj 325 713 sel 1 0;
#X obj 332 758 t f;
#X msg 305 735 1;
#X msg 348 735 0;
#X obj 271 656 t a b;
#X msg 543 644 256;
#X obj 235 1000 gemvertexbuffer 256;
#X obj 814 284 table POSXX 256;
#X obj 813 345 table POSYY 256;
#X obj 812 405 table POSZZ 256;
#X msg 1359 127 256;
#X obj 1294 144 >= 256;
#X obj 1153 347 / 256;
#X floatatom 1359 333 5 0 0 0 - - -, f 5;
#X obj 1153 429 expr 1 / $f1;
#X obj 1153 469 + 1.18, f 9;
#X obj 1298 283 t a;
#X obj 1153 409 + 0.1865;
#X floatatom 205 -19 5 0 0 0 - - -, f 5;
#X floatatom 1083 554 5 0 0 0 - - -, f 5;
#X msg 235 439 360;
#X obj 1204 521 tabwrite POSXX;
#X msg 459 397 set 360;
#X obj 566 454 f 1;
#X obj 56 12 rotateXYZ 0 0 90;
#X floatatom 64 705 5 0 0 0 - - -, f 5;
#X obj 64 890 pack f f;
#X floatatom 117 806 5 0 0 0 - - -, f 5;
#X msg 64 926 draw_range \$1 \$2;
#X obj 95 842 b;
#X obj 117 772 - 10;
#X msg 31 983 draw_range 0 256;
#X floatatom 1239 457 5 0 0 0 - - -, f 5;
#X floatatom 1225 381 5 0 0 0 - - -, f 5;
#X floatatom 1243 491 5 0 0 0 - - -, f 5;
#X obj 1153 449 * -0.21;
#X obj 810 466 table phasor 256;
#X obj 681 23 r~ audio1;
#X obj 785 9 r~ audio2;
#X obj 888 31 loadbang;
#X msg 854 48 0;
#X msg 861 109 1;
#X obj 289 573 t a;
#X msg 271 543 1;
#X msg 309 543 0;
#X obj 235 603 colorRGB 1 1 1 1;
#X obj 235 296 t a;
#X obj 235 330 t a;
#X msg 547 983 draw linestrip \, width 3;
#X msg 580 1044 width \$1;
#X obj 703 1019 hsl 128 15 0 127 0 0 empty empty empty -2 -8 0 10 -262144
-1 -1 1700 1;
#X obj 56 83 translateXYZ -3.7 0 -6.5;
#X obj 288 313 scaleXYZ 7.25 0.027 1;
#X connect 0 0 82 0;
#X connect 1 0 83 0;
#X connect 1 1 33 0;
#X connect 2 0 3 0;
#X connect 3 0 4 0;
#X connect 3 0 6 0;
#X connect 4 0 3 1;
#X connect 5 0 3 1;
#X connect 6 0 12 0;
#X connect 6 1 16 1;
#X connect 7 0 16 0;
#X connect 8 0 7 0;
#X connect 9 0 125 0;
#X connect 10 0 83 0;
#X connect 11 0 13 0;
#X connect 12 0 8 0;
#X connect 13 0 2 0;
#X connect 13 1 5 0;
#X connect 13 2 12 1;
#X connect 13 3 14 0;
#X connect 14 0 15 0;
#X connect 15 0 83 0;
#X connect 15 1 17 0;
#X connect 15 2 18 0;
#X connect 19 0 82 0;
#X connect 20 0 58 0;
#X connect 21 0 20 0;
#X connect 22 0 97 0;
#X connect 22 1 20 1;
#X connect 23 0 83 0;
#X connect 24 0 25 0;
#X connect 24 0 31 0;
#X connect 24 0 88 0;
#X connect 25 0 24 1;
#X connect 26 0 29 0;
#X connect 27 0 37 0;
#X connect 28 0 27 0;
#X connect 29 0 37 0;
#X connect 29 1 30 0;
#X connect 30 0 25 0;
#X connect 31 0 89 0;
#X connect 31 1 93 0;
#X connect 32 0 39 1;
#X connect 33 0 83 0;
#X connect 37 0 24 0;
#X connect 38 0 101 0;
#X connect 39 0 48 0;
#X connect 40 0 128 3;
#X connect 42 0 128 2;
#X connect 43 0 128 1;
#X connect 44 0 68 0;
#X connect 45 0 101 1;
#X connect 46 0 129 1;
#X connect 47 0 48 1;
#X connect 48 0 123 0;
#X connect 49 0 26 0;
#X connect 50 0 58 3;
#X connect 50 0 58 2;
#X connect 51 0 129 2;
#X connect 52 0 41 0;
#X connect 53 0 52 1;
#X connect 54 0 41 0;
#X connect 55 0 54 1;
#X connect 56 0 51 0;
#X connect 57 0 56 0;
#X connect 58 0 122 0;
#X connect 59 0 69 0;
#X connect 60 0 70 0;
#X connect 61 0 59 0;
#X connect 61 0 60 0;
#X connect 62 0 99 0;
#X connect 62 0 100 0;
#X connect 63 0 61 0;
#X connect 63 1 62 0;
#X connect 64 0 63 0;
#X connect 65 0 67 0;
#X connect 66 0 39 0;
#X connect 69 0 97 0;
#X connect 70 0 58 1;
#X connect 71 0 101 2;
#X connect 72 0 41 1;
#X connect 74 0 75 0;
#X connect 74 0 76 0;
#X connect 75 0 74 1;
#X connect 76 0 77 0;
#X connect 77 0 79 0;
#X connect 77 1 80 0;
#X connect 78 0 73 2;
#X connect 78 0 73 3;
#X connect 78 0 73 1;
#X connect 79 0 78 0;
#X connect 80 0 78 0;
#X connect 81 0 73 0;
#X connect 81 1 74 0;
#X connect 82 0 11 0;
#X connect 87 0 88 1;
#X connect 87 0 90 0;
#X connect 88 0 28 0;
#X connect 89 0 94 0;
#X connect 90 0 89 1;
#X connect 91 0 112 0;
#X connect 92 0 98 0;
#X connect 93 0 98 1;
#X connect 94 0 91 0;
#X connect 95 0 101 3;
#X connect 97 0 21 0;
#X connect 99 0 69 0;
#X connect 100 0 70 0;
#X connect 101 0 128 0;
#X connect 102 0 103 0;
#X connect 102 0 107 0;
#X connect 103 0 105 0;
#X connect 104 0 103 1;
#X connect 104 0 106 0;
#X connect 105 0 83 0;
#X connect 106 0 103 0;
#X connect 107 0 104 0;
#X connect 108 0 83 0;
#X connect 109 0 112 1;
#X connect 110 0 94 1;
#X connect 111 0 92 1;
#X connect 112 0 92 0;
#X connect 114 0 52 0;
#X connect 115 0 54 0;
#X connect 116 0 117 0;
#X connect 116 0 118 0;
#X connect 117 0 72 0;
#X connect 118 0 55 0;
#X connect 118 0 53 0;
#X connect 119 0 122 2;
#X connect 119 0 122 1;
#X connect 119 0 122 3;
#X connect 120 0 119 0;
#X connect 121 0 119 0;
#X connect 122 0 1 0;
#X connect 123 0 129 0;
#X connect 124 0 22 0;
#X connect 125 0 83 0;
#X connect 126 0 83 0;
#X connect 127 0 126 0;
#X connect 128 0 66 0;
#X connect 129 0 124 0;
