#N canvas 73 86 1419 813 10;
#X msg 361 580 smooth 0;
#X obj 342 -52 inlet;
#X obj 470 563 loadbang;
#X obj 563 959 model dodecaedre.obj;
#X msg 712 942 smooth 0;
#X obj 563 894 scaleXYZ 1.3 1.3 1.3;
#X obj 724 824 metro 5000;
#X obj 641 868 line;
#X msg 641 847 1 \, 20 5000;
#X obj 724 803 tgl 15 0 empty empty empty 17 7 0 10 -262144 -1 -1 0
1;
#X obj 563 926 colorRGB 1 1 1 1;
#X obj 724 884 line;
#X msg 724 864 0.5 \, 0 5000;
#X obj 239 354 rotateXYZ;
#X obj 308 317 line;
#X msg 308 281 \$1 4000;
#X obj 308 259 random 360;
#X obj 308 236 metro 4000;
#X obj 239 191 separator;
#X obj 239 41 alpha;
#X obj 239 159 colorRGB 1 1 1 1;
#X obj 551 180 loadbang;
#X obj 669 427 model dodecaedre.obj;
#X msg 818 410 smooth 0;
#X obj 669 509 colorRGB 0.5 0.5 0.5 0.5;
#X obj 669 547 model dodecaedre.obj;
#X msg 818 530 smooth 0;
#X obj 669 662 model dodecaedre.obj;
#X msg 818 645 smooth 0;
#X obj 669 624 colorRGB 0 0 0 0.2;
#X obj 669 469 scaleXYZ 1.3 1.3 1.3;
#X obj 669 584 scaleXYZ 1.3 1.3 1.3;
#X obj 987 393 loadbang;
#X obj 669 354 rotateXYZ;
#X obj 738 317 line;
#X msg 738 281 \$1 4000;
#X obj 738 259 random 360;
#X obj 738 236 metro 4000;
#X obj 669 191 separator;
#X obj 669 131 alpha;
#X obj 669 159 colorRGB 1 1 1 1;
#X obj 239 388 scaleXYZ 2 2 2;
#X msg 109 580 texture \$1;
#X obj 109 560 hradio 15 1 0 3 empty empty empty 0 -6 0 8 -262144 -1
-1 0;
#X msg 116 698 material \$1;
#X obj 116 678 tgl 15 0 empty empty empty 0 -6 0 8 -262144 -1 -1 0
1;
#X obj 610 -12 hradio 15 1 0 3 empty empty empty 0 -8 0 10 -262144
-1 -1 0;
#X floatatom 668 62 5 0 0 0 - - -, f 5;
#X obj 239 495 GEMglPolygonMode;
#X obj 285 438 GLdefine GL_FRONT_AND_BACK;
#X obj 332 460 GLdefine GL_LINE;
#X obj 332 412 loadbang;
#X obj 239 895 GEMglPolygonMode;
#X obj 285 838 GLdefine GL_FRONT_AND_BACK;
#X obj 332 812 loadbang;
#X obj 332 860 GLdefine GL_FILL;
#X obj 288 800 bng 15 250 50 0 empty empty empty 17 7 0 10 -262144
-1 -1;
#X obj 535 225 tgl 15 0 empty empty empty 17 7 0 10 -262144 -1 -1 1
1;
#X obj 239 0 translateXYZ 0 0 -4;
#X obj 239 597 model boid.2.obj;
#X obj 258 115 spigot;
#X obj 299 96 tgl 15 0 empty empty empty 17 7 0 10 -262144 -1 -1 0
1;
#X obj 248 -48 inlet;
#X connect 0 0 59 0;
#X connect 1 0 61 0;
#X connect 2 0 0 0;
#X connect 4 0 3 0;
#X connect 5 0 10 0;
#X connect 6 0 8 0;
#X connect 6 0 12 0;
#X connect 7 0 5 1;
#X connect 7 0 5 2;
#X connect 7 0 5 3;
#X connect 8 0 7 0;
#X connect 9 0 6 0;
#X connect 10 0 3 0;
#X connect 11 0 10 4;
#X connect 12 0 11 0;
#X connect 13 0 41 0;
#X connect 14 0 13 2;
#X connect 14 0 13 1;
#X connect 15 0 14 0;
#X connect 16 0 15 0;
#X connect 17 0 16 0;
#X connect 18 0 13 0;
#X connect 19 0 60 0;
#X connect 20 0 18 0;
#X connect 21 0 17 0;
#X connect 21 0 37 0;
#X connect 22 0 30 0;
#X connect 23 0 22 0;
#X connect 23 0 26 0;
#X connect 24 0 25 0;
#X connect 25 0 31 0;
#X connect 26 0 25 0;
#X connect 26 0 28 0;
#X connect 28 0 27 0;
#X connect 29 0 27 0;
#X connect 30 0 24 0;
#X connect 31 0 29 0;
#X connect 32 0 23 0;
#X connect 33 0 22 0;
#X connect 34 0 33 2;
#X connect 34 0 33 1;
#X connect 35 0 34 0;
#X connect 36 0 35 0;
#X connect 37 0 36 0;
#X connect 38 0 33 0;
#X connect 39 0 40 0;
#X connect 40 0 38 0;
#X connect 41 0 48 0;
#X connect 42 0 59 0;
#X connect 43 0 42 0;
#X connect 44 0 59 0;
#X connect 45 0 44 0;
#X connect 46 0 47 0;
#X connect 48 0 59 0;
#X connect 49 0 48 1;
#X connect 50 0 48 2;
#X connect 51 0 49 0;
#X connect 51 0 50 0;
#X connect 53 0 52 1;
#X connect 54 0 53 0;
#X connect 54 0 55 0;
#X connect 55 0 52 2;
#X connect 56 0 53 0;
#X connect 56 0 55 0;
#X connect 57 0 17 0;
#X connect 57 0 37 0;
#X connect 58 0 19 0;
#X connect 59 0 52 0;
#X connect 60 0 20 0;
#X connect 61 0 60 1;
#X connect 62 0 58 0;
#X coords 0 0 1 1 156 17 0;
