#N canvas 1007 25 1465 1097 10;
#X obj 598 144 gemwin;
#X msg 627 106 destroy;
#X obj 117 112 gemhead;
#X obj 115 10 tgl 15 0 empty empty empty 17 7 0 10 -262144 -1 -1 1
1;
#X msg 298 798 smooth 0;
#X obj 298 774 loadbang;
#X msg 146 798 texture \$1;
#X obj 146 778 hradio 15 1 0 3 empty empty empty 0 -6 0 8 -262144 -1
-1 1;
#X obj 214 827 model boid.obj;
#X msg 257 864 material \$1;
#X obj 257 844 tgl 15 0 empty empty empty 0 -6 0 8 -262144 -1 -1 0
1;
#X obj 201 145 rotateXYZ;
#X obj 280 128 line;
#X msg 280 103 \$1 4000;
#X obj 280 81 random 360;
#X obj 280 58 metro 4000;
#X obj 280 32 loadbang;
#X obj 383 39 tgl 15 0 empty empty empty 17 7 0 10 -262144 -1 -1 0
1;
#X obj 237 679 GEMglPolygonMode;
#X obj 283 605 GLdefine GL_FRONT_AND_BACK;
#X obj 374 641 GLdefine GL_POINT;
#X obj 367 678 GLdefine GL_LINE;
#X obj 377 701 GLdefine GL_FILL;
#X obj 370 549 sel 0 1 2;
#X obj 370 518 hradio 15 1 0 8 empty empty empty 0 -8 0 10 -262144
-1 -1 1;
#X obj 247 330 GEMglEnable;
#X obj 335 263 GLdefine GL_LINE_SMOOTH;
#X obj 335 243 bng 15 250 50 0 empty empty empty 17 7 0 10 -262144
-1 -1;
#X obj 288 439 GEMglLineWidth;
#X floatatom 372 369 5 0 0 0 - - -;
#X msg 403 404 0.03;
#X msg 592 67 dimen 1000 1000 \, create \, 1;
#X obj 201 175 scaleXYZ 2 2 2;
#X obj 484 334 loadbang;
#X msg 470 424 1;
#X obj 616 817 cube;
#X obj 616 776 colorRGB 1 1 1;
#X obj 620 213 gemhead 100;
#X obj 615 687 GEMglPolygonMode;
#X obj 661 613 GLdefine GL_FRONT_AND_BACK;
#X obj 752 649 GLdefine GL_POINT;
#X obj 745 686 GLdefine GL_LINE;
#X obj 755 709 GLdefine GL_FILL;
#X obj 748 557 sel 0 1 2;
#X obj 748 526 hradio 15 1 0 8 empty empty empty 0 -8 0 10 -262144
-1 -1 1;
#X obj 625 338 GEMglEnable;
#X obj 713 271 GLdefine GL_LINE_SMOOTH;
#X obj 713 251 bng 15 250 50 0 empty empty empty 17 7 0 10 -262144
-1 -1;
#X obj 666 447 GEMglLineWidth;
#X floatatom 750 377 5 0 0 0 - - -;
#X msg 781 412 0.03;
#X obj 862 342 loadbang;
#X obj 1061 121 gemhead;
#X floatatom 1165 125 5 0 0 0 - - -;
#X floatatom 1124 120 4 0 0 0 - - -;
#X obj 1061 142 rotateXYZ;
#X obj 1059 620 GEMglPolygonMode;
#X obj 1105 546 GLdefine GL_FRONT_AND_BACK;
#X obj 1196 582 GLdefine GL_POINT;
#X obj 1189 619 GLdefine GL_LINE;
#X obj 1199 642 GLdefine GL_FILL;
#X obj 1192 490 sel 0 1 2;
#X obj 1192 459 hradio 15 1 0 8 empty empty empty 0 -8 0 10 -262144
-1 -1 2;
#X obj 1069 271 GEMglEnable;
#X obj 1157 204 GLdefine GL_LINE_SMOOTH;
#X obj 1157 184 bng 15 250 50 0 empty empty empty 17 7 0 10 -262144
-1 -1;
#X obj 1110 380 GEMglLineWidth;
#X floatatom 1194 310 5 0 0 0 - - -;
#X msg 1225 345 0.03;
#X obj 1306 275 loadbang;
#X floatatom 1166 822 5 0 100 1 size - -;
#X msg 1145 713 text hello world!;
#X msg 1149 732 1 2 3 4;
#X msg 1144 779 justify left base;
#X obj 1127 843 text3d;
#X msg 1155 754 string 48 49 32 51 52;
#X obj 645 182 tgl 15 0 empty empty empty 17 7 0 10 -262144 -1 -1 1
1;
#X obj 1059 64 tgl 15 0 empty empty empty 17 7 0 10 -262144 -1 -1 1
1;
#X msg 1292 365 2;
#X msg 848 432 2;
#X connect 1 0 0 0;
#X connect 2 0 11 0;
#X connect 3 0 2 0;
#X connect 4 0 8 0;
#X connect 5 0 4 0;
#X connect 6 0 8 0;
#X connect 7 0 6 0;
#X connect 9 0 8 0;
#X connect 10 0 9 0;
#X connect 11 0 32 0;
#X connect 12 0 11 2;
#X connect 12 0 11 1;
#X connect 13 0 12 0;
#X connect 14 0 13 0;
#X connect 15 0 14 0;
#X connect 16 0 15 0;
#X connect 17 0 15 0;
#X connect 18 0 8 0;
#X connect 19 0 18 1;
#X connect 20 0 18 2;
#X connect 21 0 18 2;
#X connect 22 0 18 2;
#X connect 23 0 20 0;
#X connect 23 0 19 0;
#X connect 23 1 21 0;
#X connect 23 1 19 0;
#X connect 23 2 22 0;
#X connect 23 2 19 0;
#X connect 24 0 23 0;
#X connect 25 0 28 0;
#X connect 26 0 25 1;
#X connect 27 0 26 0;
#X connect 28 0 18 0;
#X connect 29 0 28 1;
#X connect 30 0 28 1;
#X connect 31 0 0 0;
#X connect 32 0 25 0;
#X connect 33 0 26 0;
#X connect 33 0 30 0;
#X connect 33 0 34 0;
#X connect 34 0 24 0;
#X connect 36 0 35 0;
#X connect 37 0 45 0;
#X connect 38 0 36 0;
#X connect 39 0 38 1;
#X connect 40 0 38 2;
#X connect 41 0 38 2;
#X connect 42 0 38 2;
#X connect 43 0 40 0;
#X connect 43 0 39 0;
#X connect 43 1 41 0;
#X connect 43 1 39 0;
#X connect 43 2 42 0;
#X connect 43 2 39 0;
#X connect 44 0 43 0;
#X connect 45 0 48 0;
#X connect 46 0 45 1;
#X connect 47 0 46 0;
#X connect 48 0 38 0;
#X connect 49 0 48 1;
#X connect 50 0 48 1;
#X connect 51 0 46 0;
#X connect 51 0 50 0;
#X connect 51 0 79 0;
#X connect 52 0 55 0;
#X connect 53 0 55 3;
#X connect 54 0 55 1;
#X connect 55 0 63 0;
#X connect 56 0 74 0;
#X connect 57 0 56 1;
#X connect 58 0 56 2;
#X connect 59 0 56 2;
#X connect 60 0 56 2;
#X connect 61 0 58 0;
#X connect 61 0 57 0;
#X connect 61 1 59 0;
#X connect 61 1 57 0;
#X connect 61 2 60 0;
#X connect 61 2 57 0;
#X connect 62 0 61 0;
#X connect 63 0 66 0;
#X connect 64 0 63 1;
#X connect 65 0 64 0;
#X connect 66 0 56 0;
#X connect 67 0 66 1;
#X connect 68 0 66 1;
#X connect 69 0 64 0;
#X connect 69 0 68 0;
#X connect 69 0 78 0;
#X connect 70 0 74 1;
#X connect 71 0 74 0;
#X connect 72 0 74 0;
#X connect 73 0 74 0;
#X connect 75 0 74 0;
#X connect 76 0 37 0;
#X connect 77 0 52 0;
#X connect 78 0 62 0;
#X connect 79 0 44 0;
