#N canvas 1008 106 591 657 10;
#X obj 212 100 toggle2;
#X obj 129 244 gemhead;
#X obj -48 376 dodecahedre;
#X obj -48 332 separator;
#X obj 58 457 dodecahedre;
#X obj 184 478 dodecahedre;
#X obj 272 380 dodecahedre;
#X obj 58 434 translateXYZ 2 2 0;
#X obj 184 457 translateXYZ 2 -2 0;
#X obj 272 359 translateXYZ -2 -2 0;
#X obj -48 354 translateXYZ -2 2 0;
#X obj 58 411 separator;
#X obj 184 435 separator;
#X obj 272 337 separator;
#X obj 280 262 dodecahedre;
#X obj 239 100 toggle2;
#X obj 280 207 gemhead;
#X obj 280 233 scaleXYZ 2 2 2;
#X obj 77 169 gemwin;
#X msg 36 120 create \, 1;
#X connect 0 0 1 0;
#X connect 1 0 3 0;
#X connect 1 0 11 0;
#X connect 1 0 12 0;
#X connect 1 0 13 0;
#X connect 3 0 10 0;
#X connect 7 0 4 0;
#X connect 8 0 5 0;
#X connect 9 0 6 0;
#X connect 10 0 2 0;
#X connect 11 0 7 0;
#X connect 12 0 8 0;
#X connect 13 0 9 0;
#X connect 15 0 16 0;
#X connect 16 0 17 0;
#X connect 17 0 14 0;
#X connect 19 0 18 0;
#X coords 0 -1 1 1 156 17 1 100 100;
