#N canvas 395 199 593 410 10;
#X obj 378 246 dac~;
#X obj 388 30 osc~ 440;
#X obj 387 188 *~;
#X floatatom 405 152 5 0 0 0 - - -, f 5;
#X msg 405 129 0.25;
#X obj 405 106 loadbang;
#X connect 1 0 2 0;
#X connect 2 0 0 0;
#X connect 2 0 0 1;
#X connect 3 0 2 1;
#X connect 4 0 3 0;
#X connect 5 0 4 0;
