#N canvas 218 70 1087 784 10;
#X obj 336 -310 gemhead;
#X msg 622 -427 0 \, destroy;
#X obj 335 502 pix_texture;
#X text 536 -462 10272 856;
#X text 537 -448 5136 428;
#X obj 335 376 translateXYZ;
#X floatatom 416 358 5 0 0 0 - - -, f 5;
#X floatatom 126 441 10 0 0 0 - - -, f 10;
#X msg 108 337 8192;
#X obj 108 468 +;
#X floatatom 108 495 5 0 0 0 - - -, f 5;
#X obj 335 524 rectangle 8192 384;
#X obj 552 470 tgl 15 0 empty empty empty 17 7 0 10 -262144 -1 -1 0
1;
#X msg 552 485 quality \$1;
#X obj 335 677 rectangle 8192 384;
#X obj 335 655 pix_texture;
#X obj 335 827 rectangle 8192 384;
#X obj 335 805 pix_texture;
#X obj 126 415 *;
#X msg 144 388 3;
#X msg 126 362 8192;
#X obj 418 -254 bng 15 250 50 0 empty empty empty 17 7 0 10 -262144
-1 -1;
#X obj 547 -64 f;
#X obj 335 578 translateXYZ 16384 0 0;
#X obj 335 728 translateXYZ 16384 0 0;
#X msg 620 -339 8192 \, -40960 60000;
#X obj 622 -238 sel 1;
#X obj 463 -64 +;
#X obj 463 -6 * -1;
#X obj 335 479 pix_image screen_03.1.tiff;
#X obj 335 632 pix_image screen_03.2.tiff;
#X obj 335 782 pix_image screen_03.3.tiff;
#X floatatom 394 259 5 0 0 0 - - -, f 5;
#X obj 394 297 * 10;
#X msg 111 562 768;
#X msg 151 558 -41472;
#X msg 416 338 -380;
#X obj 531 41 < -40960;
#X obj 463 40 < -41472;
#X obj 418 -194 f 300;
#X floatatom 450 -215 5 0 300 0 - - -, f 5;
#X obj 515 -178 t b b;
#X msg 547 -93 0;
#X obj 515 -221 bng 15 250 50 0 empty empty empty 17 7 0 10 -262144
-1 -1;
#X obj 335 502 pix_texture;
#X obj 335 524 rectangle 8192 384;
#X obj 335 479 pix_image screen_03.1.tiff;
#X obj 335 957 pix_texture;
#X obj 335 979 rectangle 8192 384;
#X obj 335 934 pix_image screen_03.1.tiff;
#X obj 335 957 pix_texture;
#X obj 335 979 rectangle 8192 384;
#X obj 335 934 pix_image screen_03.1.tiff;
#X obj 335 913 translateXYZ 16384 0 0;
#X text 73 914 une quatrieme image pour boucler...;
#X msg 493 -129 -7680;
#X floatatom 362 11 10 0 0 0 - - -, f 10;
#X msg 450 -234 30, f 4;
#X obj 337 1124 pix_write 0 0 1024 768;
#X msg 353 1091 auto 1 \, file /home/rep/Projets/HH_/screen/screencap/test
90;
#X obj 336 -463 tgl 15 0 empty empty empty 17 7 0 10 -262144 -1 -1
0 1;
#X msg 620 195 pd~ start mp3.pd;
#X msg 645 228 pd~ stop;
#X obj 620 270 pd~ -ninsig 2 -noutsig 2 -fifo 20;
#X obj 735 337 dac~;
#X obj 552 638 t a;
#X obj 552 940 t a;
#X obj 552 788 t a;
#X obj 617 -405 abstractions/gemwin;
#X msg 617 -463 frames 60 \, offset 1600 0 \, border 0 \, perspec -1
1 -1 1 1 2000 \, dimen 1280 1024 \, create \, 1;
#X obj 482 320 loadbang;
#X obj 622 116 t a;
#X obj 359 -270 t b;
#X obj 336 -644 inlet;
#X obj 361 -528 loadbang;
#X msg 361 -505 0;
#X obj 402 1270 bng 15 250 50 0 empty empty empty 17 7 0 10 -262144
-1 -1;
#X obj 402 1290 t a;
#X obj 92 -400 separator;
#X floatatom 222 -321 5 0 0 0 - - -, f 5;
#X obj 92 -300 translateXYZ 0 0 -4;
#X obj 92 -479 r screen_reep;
#X connect 0 0 5 0;
#X connect 0 0 72 0;
#X connect 1 0 68 0;
#X connect 2 0 11 0;
#X connect 5 0 29 0;
#X connect 6 0 5 3;
#X connect 7 0 9 1;
#X connect 8 0 9 0;
#X connect 9 0 10 0;
#X connect 11 0 23 0;
#X connect 12 0 13 0;
#X connect 13 0 2 0;
#X connect 13 0 65 0;
#X connect 14 0 24 0;
#X connect 15 0 14 0;
#X connect 16 0 53 0;
#X connect 17 0 16 0;
#X connect 18 0 7 0;
#X connect 19 0 18 1;
#X connect 20 0 18 0;
#X connect 21 0 39 0;
#X connect 22 0 27 1;
#X connect 23 0 30 0;
#X connect 24 0 31 0;
#X connect 26 0 41 0;
#X connect 27 0 22 0;
#X connect 27 0 28 0;
#X connect 28 0 38 0;
#X connect 28 0 56 0;
#X connect 29 0 2 0;
#X connect 30 0 15 0;
#X connect 31 0 17 0;
#X connect 32 0 33 0;
#X connect 33 0 5 1;
#X connect 36 0 6 0;
#X connect 38 0 71 0;
#X connect 39 0 27 0;
#X connect 40 0 39 1;
#X connect 41 0 55 0;
#X connect 41 1 42 0;
#X connect 42 0 22 0;
#X connect 43 0 41 0;
#X connect 44 0 45 0;
#X connect 46 0 44 0;
#X connect 47 0 48 0;
#X connect 49 0 47 0;
#X connect 50 0 51 0;
#X connect 52 0 50 0;
#X connect 53 0 49 0;
#X connect 55 0 27 0;
#X connect 56 0 5 1;
#X connect 57 0 40 0;
#X connect 59 0 58 0;
#X connect 60 0 0 0;
#X connect 61 0 63 0;
#X connect 62 0 63 0;
#X connect 63 1 64 0;
#X connect 63 2 64 1;
#X connect 65 0 15 0;
#X connect 65 0 67 0;
#X connect 66 0 47 0;
#X connect 67 0 66 0;
#X connect 67 0 17 0;
#X connect 69 0 68 0;
#X connect 70 0 36 0;
#X connect 71 0 26 0;
#X connect 72 0 39 0;
#X connect 73 0 60 0;
#X connect 74 0 75 0;
#X connect 75 0 60 0;
#X connect 76 0 77 0;
#X connect 78 0 80 0;
#X connect 79 0 80 3;
#X connect 81 0 78 0;
