#N canvas 667 104 670 786 10;
#X obj 99 35 r rayurejaune;
#X obj 99 398 rotateXYZ 0 0 67;
#X obj 99 217 translateXYZ 0 0 -4;
#X obj 99 513 rectangle 100 1;
#X obj 99 377 colorRGB 1 1 1 1;
#X obj 99 117 spigot;
#X obj 140 -16 inlet;
#X obj 99 602 rectangle 100 1;
#X obj 99 691 rectangle 100 1;
#X obj 99 644 translateXYZ 0 -2 0;
#X floatatom 229 198 5 0 0 0 - - -, f 5;
#X obj 99 460 translateXYZ 0 4 0;
#X obj 99 555 translateXYZ 0 -2 0;
#X obj 99 780 rectangle 100 1;
#X obj 99 733 translateXYZ 0 -2 0;
#X obj 99 860 rectangle 100 1;
#X obj 99 813 translateXYZ 0 -2 0;
#X obj 140 98 tgl 15 0 empty empty empty 17 7 0 10 -262144 -1 -1 1
1;
#X obj 233 307 bng 15 250 50 0 empty empty empty 17 7 0 10 -262144
-1 -1;
#X floatatom 308 -53 5 0 0 0 - - -, f 5;
#X msg 432 655 0.5;
#X obj 432 674 t a;
#X msg 233 343 0;
#X msg 308 349 1;
#X obj 432 636 loadbang;
#X obj 308 -76 inlet;
#X obj 308 -30 electribe_note 9;
#X obj 142 196 line_;
#X obj 308 275 t b;
#X obj 99 66 alpha;
#X obj 346 23 bng 15 250 50 0 empty empty empty 17 7 0 10 -262144 -1
-1;
#X obj 346 3 ../100.Input/lpd8/lpd8_pad 41;
#X obj 283 -13 bng 15 250 50 0 empty empty empty 17 7 0 10 -262144
-1 -1;
#X obj 233 324 pipe 100;
#X msg 142 175 0.7 \, -0.7 70;
#X obj 308 58 t b;
#X obj 308 123 t b;
#X floatatom 526 685 5 0 0 0 - - -, f 5;
#X connect 0 0 29 0;
#X connect 1 0 11 0;
#X connect 2 0 4 0;
#X connect 3 0 12 0;
#X connect 4 0 1 0;
#X connect 5 0 2 0;
#X connect 6 0 17 0;
#X connect 7 0 9 0;
#X connect 8 0 14 0;
#X connect 9 0 8 0;
#X connect 10 0 2 3;
#X connect 11 0 3 0;
#X connect 12 0 7 0;
#X connect 13 0 16 0;
#X connect 14 0 13 0;
#X connect 16 0 15 0;
#X connect 17 0 5 1;
#X connect 18 0 33 0;
#X connect 19 0 26 0;
#X connect 20 0 21 0;
#X connect 21 0 3 2;
#X connect 21 0 7 2;
#X connect 21 0 8 2;
#X connect 21 0 13 2;
#X connect 21 0 15 2;
#X connect 22 0 4 4;
#X connect 23 0 4 4;
#X connect 24 0 20 0;
#X connect 25 0 19 0;
#X connect 26 0 32 0;
#X connect 26 0 35 0;
#X connect 27 0 2 1;
#X connect 28 0 18 0;
#X connect 28 0 23 0;
#X connect 29 0 5 0;
#X connect 30 0 35 0;
#X connect 31 0 30 0;
#X connect 33 0 22 0;
#X connect 34 0 27 0;
#X connect 35 0 36 0;
#X connect 36 0 34 0;
#X connect 36 0 28 0;
#X connect 37 0 21 0;
